<svg xmlns="http://www.w3.org/2000/svg" viewBox="0 0 587.967 185.423"><path d="M269.161 183.839H4.333A4.346 4.346 0 0 1 0 179.506V8.635a4.346 4.346 0 0 1 4.333-4.333H269.16a4.346 4.346 0 0 1 4.333 4.333v170.87a4.345 4.345 0 0 1-4.332 4.334z" fill="#8a4b4f"/><path d="M265.001 177.047H8.493a2.842 2.842 0 0 1-2.833-2.833V11.21a2.842 2.842 0 0 1 2.833-2.833H265a2.842 2.842 0 0 1 2.833 2.833v163.003a2.84 2.84 0 0 1-2.832 2.834z" fill="#8c353d"/><path d="M264.01 174.33H9.484c-.733 0-1.333-.6-1.333-1.333V12.427c0-.733.6-1.333 1.333-1.333H264.01c.733 0 1.333.6 1.333 1.333v160.569c.001.734-.6 1.334-1.333 1.334z" fill="#d7d8da"/><path d="M209.856 147.841H63.638c-2.75 0-5-2.25-5-5V25.376c0-2.75 2.25-5 5-5h146.218c2.75 0 5 2.25 5 5v117.465c0 2.75-2.25 5-5 5z" fill="#a7a49d"/><path d="M205.697 141.954h-137.9a3.339 3.339 0 0 1-3.329-3.329V28.46a3.339 3.339 0 0 1 3.329-3.329h137.9a3.339 3.339 0 0 1 3.329 3.329v110.165a3.339 3.339 0 0 1-3.329 3.329z" fill="#d7d8da"/><path d="M191.92 127.465H81.574c-5.019 0-9.125-4.106-9.125-9.125V48.15c0-5.019 4.106-9.125 9.125-9.125H191.92c5.019 0 9.125 4.106 9.125 9.125v70.19c0 5.018-4.106 9.125-9.125 9.125z" fill="#813537"/><path d="M191.516 124.083H81.978c-3.529 0-6.417-2.888-6.417-6.417V49.037c0-3.529 2.888-6.417 6.417-6.417h109.537c3.529 0 6.417 2.888 6.417 6.417v68.629c0 3.529-2.887 6.417-6.416 6.417z" fill="#97a18f"/><circle cx="36.281" cy="131.681" r="12.848" fill="#8a333b"/><circle cx="36.281" cy="131.681" r="10.188" fill="#c52e33"/><circle cx="238.005" cy="131.681" r="12.848" fill="#8a333b"/><circle cx="238.005" cy="131.681" r="10.188" fill="#c52e33"/><circle cx="91.353" cy="158.482" r="3.283" fill="#1c1d19"/><path d="M143.879 165.953h-5.49c-4.171 0-7.584-3.413-7.584-7.584 0-4.171 3.413-7.584 7.584-7.584h5.49c4.171 0 7.584 3.413 7.584 7.584 0 4.171-3.413 7.584-7.584 7.584z" fill="#802936"/><path d="M143.85 162.783h-5.434a4.4 4.4 0 0 1-4.387-4.387 4.4 4.4 0 0 1 4.387-4.387h5.434a4.4 4.4 0 0 1 4.387 4.387 4.4 4.4 0 0 1-4.387 4.387z" fill="#8b8f91"/><path d="M172.236 165.953h-5.49c-4.171 0-7.584-3.413-7.584-7.584 0-4.171 3.413-7.584 7.584-7.584h5.49c4.171 0 7.584 3.413 7.584 7.584 0 4.171-3.413 7.584-7.584 7.584z" fill="#802936"/><path d="M172.207 162.783h-5.434a4.4 4.4 0 0 1-4.387-4.387 4.4 4.4 0 0 1 4.387-4.387h5.434a4.4 4.4 0 0 1 4.387 4.387 4.4 4.4 0 0 1-4.387 4.387z" fill="#8b8f91"/><path d="M201.441 165.953h-5.49c-4.171 0-7.584-3.413-7.584-7.584 0-4.171 3.413-7.584 7.584-7.584h5.49c4.171 0 7.584 3.413 7.584 7.584.001 4.171-3.412 7.584-7.584 7.584z" fill="#802936"/><path d="M201.413 162.783h-5.434a4.4 4.4 0 0 1-4.387-4.387 4.4 4.4 0 0 1 4.387-4.387h5.434a4.4 4.4 0 0 1 4.387 4.387 4.4 4.4 0 0 1-4.387 4.387z" fill="#8b8f91"/><path d="M20.008 51.621V27.896c.193-.777.62-1.343 1.425-1.57.115-.033.227-.08.34-.12H50.75c1.131.472 1.493 1.025 1.493 2.278l-.001 22.81c0 .146.003.295-.025.437-.173.895-.895 1.444-1.895 1.444H22.027c-.057 0-.113.001-.17-.001-.855-.04-1.502-.535-1.76-1.344-.024-.071-.059-.139-.089-.209zm16.13 1.225h13.91c.158 0 .317.003.475-.011.728-.064 1.273-.534 1.37-1.19.028-.188.021-.382.021-.573l.001-22.506c0-.124.001-.248-.005-.372-.052-1.08-.649-1.651-1.723-1.651H22.334c-1.348 0-1.984.627-1.984 1.955v22.54c0 .101-.003.203.002.304.04.746.5 1.298 1.239 1.446.263.053.539.055.809.055 4.578.004 9.158.003 13.738.003z"/><path d="M45.828 44.192h1.176v2.759h2.13v-2.75h1.2v6.908H49.16V48.19h-2.149v2.917h-1.182l-.001-6.915zM45.459 49.263c-.534 1.348-2.311 2.208-3.884 1.914-1.691-.316-2.927-1.783-2.978-3.537-.05-1.696 1.169-3.239 2.864-3.628 1.576-.361 3.359.467 3.998 1.895-.446 0-.872.007-1.298-.007-.075-.002-.153-.086-.218-.145-.861-.764-1.986-.892-2.95-.331a2.5 2.5 0 0 0-1.176 2.731c.233 1.038 1.135 1.824 2.236 1.919a2.36 2.36 0 0 0 1.833-.607.748.748 0 0 1 .58-.21c.32.017.639.006.993.006zM37.555 51.117h-1.189v-5.745h-1.342v-1.174h3.848v1.147h-1.316l-.001 5.772zM34.518 44.173v6.931h-1.172v-1.459c-.47 0-.917.047-1.349-.011-.652-.087-1.097.12-1.348.731-.264.645-.734.902-1.423.768-.14-.027-.29-.004-.492-.004.081-.139.131-.235.191-.324 1.402-2.11 2.809-4.217 4.201-6.334.153-.233.314-.322.581-.302.258.02.52.004.811.004zm-1.2 2.179l-1.384 2.08h1.384v-2.08zM22.39 51.132V44.2h1.153v4.643l.072.035c.068-.092.139-.182.202-.277.911-1.369 1.827-2.734 2.724-4.112.157-.242.321-.349.606-.321.248.025.5.005.781.005v4.667l.072.035c.067-.091.139-.179.201-.273.923-1.388 1.848-2.774 2.763-4.168.127-.194.263-.28.497-.267.347.02.697.005 1.102.005-.1.161-.161.266-.229.367-1.396 2.102-2.797 4.2-4.184 6.308-.145.221-.297.31-.554.288-.259-.022-.522-.005-.82-.005v-4.659l-.08-.034c-.066.095-.134.188-.198.284-.904 1.359-1.815 2.714-2.704 4.083-.165.254-.338.361-.634.331-.245-.023-.496-.003-.77-.003zM36.46 39.3l.89.815c.181-.401.357-.766.509-1.141.075-.185.173-.266.379-.253.281.018.564.005.903.005-.283.638-.53 1.236-.813 1.815-.127.26-.1.416.122.605.468.398.908.828 1.38 1.264l-.723.784-1.398-1.283c-.494 1.052-1.307 1.515-2.424 1.374-.826-.105-1.436-.553-1.693-1.357-.378-1.181.09-2.066 1.088-2.707-.842-1.096-.901-1.877-.21-2.501.641-.579 1.685-.558 2.309.046.67.646.567 1.486-.319 2.534zm-.927.599c-.27.227-.539.408-.751.641-.467.515-.25 1.384.384 1.621.702.264 1.525-.177 1.676-.908.014-.067-.037-.174-.092-.226-.387-.368-.783-.728-1.217-1.128zm-.461-2.07c.006.223.37.681.544.684.186.003.539-.442.54-.682.002-.26-.255-.472-.566-.467-.308.004-.526.2-.518.465zM46.238 28.209h3.571v1.161h-2.378v1.775h2.386v1.181h-2.383v1.627h2.379v1.172h-3.574l-.001-6.916zM40.853 28.192v4.66l.071.034c.065-.096.132-.19.196-.287.866-1.302 1.75-2.594 2.588-3.915.246-.388.513-.563.96-.497.175.026.358.004.555.004v6.937H44.07V30.48l-.07-.033c-.068.094-.139.185-.203.281-.917 1.379-1.837 2.755-2.744 4.14-.133.203-.266.31-.519.287-.27-.024-.545-.005-.846-.005v-4.671l-.07-.035c-.067.091-.138.18-.201.275-.923 1.388-1.849 2.775-2.763 4.17-.127.194-.263.277-.497.264-.348-.02-.699-.005-1.102-.005.089-.143.145-.237.205-.328 1.396-2.102 2.798-4.201 4.184-6.31.158-.24.319-.351.606-.322.25.024.502.004.803.004zM34.688 35.131h-1.174v-1.462c-.731 0-1.434-.006-2.136.009-.073.002-.157.118-.212.198-.239.348-.479.696-.699 1.057-.103.17-.225.225-.416.218-.363-.013-.727-.004-1.142-.004.079-.133.131-.228.191-.319 1.402-2.112 2.809-4.22 4.201-6.338.152-.232.314-.325.582-.303.259.021.522.005.805.005v6.939zm-2.573-2.686h1.363v-2.051l-1.363 2.051zM26.036 32.856v-1.132h3.551c.202 1.645-1.236 3.36-3.066 3.67-1.88.318-3.752-.979-4.138-2.865-.397-1.941.793-3.842 2.695-4.306 1.726-.421 3.754.567 4.186 2.075-.383 0-.755.013-1.126-.009-.09-.005-.184-.117-.258-.197-.786-.858-1.977-1.109-3.001-.627-1.003.472-1.598 1.556-1.45 2.64.154 1.127 1.002 1.993 2.147 2.191.984.17 2.074-.34 2.572-1.207.032-.056.052-.119.1-.232h-1.126l-1.086-.001z"/><g fill="#13110c"><path d="M22.434 55.784H23.61h-.244.244l1.831 3.029v-3.029H26.664h-.244.244V60.26h-1.148l-1.906-3.29v3.291h-1.176v-4.477zM26.989 55.812H28.345h-.247.247v.93-.266.266H26.989h.247-.247v-.93.266-.266zm0 1.462h1.234-.247.376l-.005 2.999H26.99h.247-.247l-.001-2.999zM31.019 57.052c.9-.078 1.361.278 1.384 1.07v.134-.134.269-.134V60.27H31.16h.249-.249v-2.148c.002-.282-.18-.439-.545-.47-.258-.021-.451.091-.579.336V60.271H28.77v-3.088H29.91h-.247.377l-.003.375c.277-.293.604-.461.982-.506zM33.488 56.322h1.176v.635h.706-.236.236v.51h-.706V60.266h-1.176.236-.236v-2.798h-.706v-.51h.706v-.636zM37.168 57.08c1.023.034 1.559.561 1.607 1.582H36.719c-.015.677.061 1.061.229 1.151a.457.457 0 0 0 .499-.034c.168-.11.235-.361.2-.753h1.104-.226.226c-.154.671-.478 1.063-.972 1.176a2.22 2.22 0 0 1-1.389-.101c-.431-.183-.712-.601-.841-1.254l-.003-.218c.127-.986.668-1.502 1.622-1.549zm.016.342c-.301.017-.456.268-.465.753h.901c-.004-.462-.149-.714-.436-.753zM41.219 57.052c.9-.078 1.361.278 1.384 1.07v.134-.134.269-.134V60.27H41.36h.249-.249v-2.148c.002-.282-.18-.439-.545-.47-.258-.021-.451.091-.579.336V60.271H38.97v-3.088H40.11h-.247.377l-.003.375c.277-.293.604-.461.982-.506zM45.241 55.655h1.217-.244.244V60.276h-1.22l-.003-.107c-.095.081-.385.111-.87.093-.495-.011-.859-.181-1.091-.51a1.611 1.611 0 0 1-.304-1.075c.005-.355.098-.677.278-.966.18-.289.525-.503 1.034-.641.483-.035.802.018.958.16v-1.575zm-.455 1.767c-.325.015-.494.287-.506.815v.845c.026.519.198.791.517.815.312-.035.465-.186.46-.451V57.97c.024-.333-.133-.516-.471-.548zM46.696 58.559c.045-.558.222-.948.532-1.17.31-.222.682-.326 1.117-.311h.192c.474.027.845.162 1.111.408.267.245.418.6.455 1.066.012.576-.137.995-.447 1.254a2.068 2.068 0 0 1-1.127.456h-.2c-.57-.047-.981-.207-1.234-.482-.251-.271-.384-.678-.399-1.221zm1.705-1.092c-.344.011-.521.254-.53.728v.935c.024.463.204.707.54.731.332-.034.495-.283.488-.748v-.907c-.008-.489-.174-.735-.498-.739z"/></g><g fill="#13110c"><path d="M36.085 112.713h-2.997v-4.549h.967v3.717h2.03v.832zM40.243 112.713h-3.502v-4.549h3.399v.808h-2.432v1.019h2.268v.816h-2.268v1.09h2.535v.816zM44.183 108.972h-2.237v1.142h1.918v.812h-1.918v1.787h-.966v-4.549h3.204v.808zM48.215 108.995H46.87v3.717h-.959v-3.717h-1.337v-.832h3.641v.832z"/></g><g fill="#13110c"><path d="M226.284 112.713h-1.043l-.39-1.11c-.077-.226-.18-.387-.31-.486s-.293-.147-.49-.147h-.752v1.743h-.967v-4.549h2.022c.167 0 .324.007.47.022.146.015.281.04.404.078.123.037.235.089.334.155s.185.153.257.259c.074.106.131.224.171.352.04.129.06.273.06.432 0 .321-.085.578-.255.772s-.406.328-.708.402c.09.04.172.085.245.135a.92.92 0 0 1 .197.183c.058.072.111.156.159.253s.094.205.139.324l.457 1.182zm-2.985-2.52h.955c.287 0 .493-.052.619-.155s.189-.272.189-.505c0-.411-.248-.617-.744-.617h-1.019v1.277zM227.892 112.713h-.963v-4.549h.963v4.549zM230.877 112.784c-.329 0-.628-.054-.897-.161a1.93 1.93 0 0 1-.692-.462c-.192-.2-.341-.446-.446-.736s-.157-.619-.157-.985c0-.35.048-.67.145-.959.097-.289.239-.537.426-.744.187-.207.416-.367.686-.482.271-.114.58-.171.927-.171.281 0 .539.036.774.107.235.072.438.174.611.308.172.134.311.297.416.49s.169.409.193.651h-.959a.735.735 0 0 0-.31-.539c-.18-.129-.419-.193-.716-.193a1.18 1.18 0 0 0-.495.101 1.02 1.02 0 0 0-.376.296c-.103.13-.184.291-.241.482a2.286 2.286 0 0 0-.086.653c0 .247.029.466.086.657s.139.352.247.482.237.228.388.295.321.099.509.099c.47 0 .825-.142 1.067-.426v-.513h-.971v-.732h1.926v2.412h-.597l-.119-.366a1.57 1.57 0 0 1-.563.326c-.221.073-.479.11-.776.11zM237.551 112.713h-.963v-1.982h-1.827v1.982h-.967v-4.549h.967v1.763h1.827v-1.763h.963v4.549zM241.773 108.995h-1.345v3.717h-.959v-3.717h-1.337v-.832h3.641v.832z"/></g><g fill="#13110c"><path d="M133.97 137.705c-.247 0-.471-.04-.673-.121a1.464 1.464 0 0 1-.519-.346 1.512 1.512 0 0 1-.334-.553 2.158 2.158 0 0 1-.118-.739c0-.263.036-.502.109-.719.073-.217.179-.403.32-.558.14-.155.312-.276.515-.361.203-.086.434-.128.696-.128.21 0 .404.027.58.081.176.054.328.131.458.231.129.1.233.223.312.367.078.145.127.307.145.488h-.719a.558.558 0 0 0-.233-.405c-.135-.096-.314-.145-.537-.145a.873.873 0 0 0-.371.076c-.11.05-.204.125-.282.222s-.138.218-.18.361a1.702 1.702 0 0 0-.064.49c0 .185.021.349.064.492a.994.994 0 0 0 .185.361c.08.098.178.171.291.221a.94.94 0 0 0 .382.075c.353 0 .619-.106.8-.319v-.385h-.728v-.549h1.445v1.809h-.447l-.09-.275a1.184 1.184 0 0 1-.422.245 1.846 1.846 0 0 1-.585.084zM139.048 137.651h-.752l-.281-.812h-1.214l-.269.812h-.722l1.19-3.411h.803l1.245 3.411zm-1.203-1.4l-.448-1.4-.433 1.4h.881zM143.003 137.651h-.654v-2.695l-.812 2.695h-.663l-.83-2.695v2.695h-.659v-3.412h1.044l.771 2.579.764-2.579h1.039v3.412zM146.322 137.651h-2.627v-3.412h2.548v.606h-1.823v.764h1.701v.612h-1.701v.818h1.902v.612z"/></g><path d="M151.819 137.634h-.919l-.342-.992h-1.485l-.328.992h-.883l1.456-4.17h.981l1.52 4.17zm-1.47-1.711l-.547-1.711-.529 1.711h1.076zM180.4 136.401c0 .392-.129.695-.385.91-.257.216-.649.323-1.176.323h-1.642v-4.17h1.62c.222 0 .421.024.598.073.178.049.329.119.452.212a.934.934 0 0 1 .383.777c0 .425-.202.727-.606.905.255.071.445.191.569.361s.187.373.187.609zm-2.324-1.262h.696c.207 0 .358-.036.454-.107.096-.072.144-.198.144-.378 0-.161-.046-.28-.14-.359-.094-.079-.259-.119-.494-.119h-.661v.963zm0 1.784h.704c.235 0 .413-.042.531-.128.118-.085.176-.221.176-.409a.724.724 0 0 0-.036-.243.349.349 0 0 0-.125-.164c-.058-.043-.135-.074-.23-.093s-.213-.029-.354-.029h-.667v1.066z" fill="#13110c"/><g fill="#13110c"><path d="M162.554 137.705c-.247 0-.471-.04-.673-.121a1.464 1.464 0 0 1-.519-.346 1.512 1.512 0 0 1-.334-.553 2.158 2.158 0 0 1-.118-.739c0-.263.036-.502.109-.719.073-.217.179-.403.32-.558.14-.155.312-.276.515-.361.203-.086.434-.128.696-.128.21 0 .404.027.58.081.176.054.328.131.458.231.129.1.233.223.312.367.078.145.127.307.145.488h-.719a.558.558 0 0 0-.233-.405c-.135-.096-.314-.145-.537-.145a.873.873 0 0 0-.371.076c-.11.05-.204.125-.282.222s-.138.218-.18.361a1.702 1.702 0 0 0-.064.49c0 .185.021.349.064.492a.994.994 0 0 0 .185.361c.08.098.178.171.291.221a.94.94 0 0 0 .382.075c.353 0 .619-.106.8-.319v-.385h-.728v-.549h1.445v1.809h-.447l-.09-.275a1.184 1.184 0 0 1-.422.245 1.846 1.846 0 0 1-.585.084zM167.632 137.651h-.752l-.281-.812h-1.214l-.269.812h-.722l1.191-3.412h.803l1.244 3.412zm-1.203-1.4l-.448-1.4-.433 1.4h.881zM171.586 137.651h-.654v-2.695l-.812 2.695h-.663l-.83-2.695v2.695h-.659v-3.412h1.044l.771 2.579.764-2.579h1.039v3.412zM174.906 137.651h-2.627v-3.412h2.548v.606h-1.823v.764h1.701v.612h-1.701v.818h1.902v.612z"/></g><g fill="#13110c"><path d="M196.296 134.863h-1.009v2.788h-.719v-2.788h-1.003v-.624h2.731v.624zM197.489 137.651h-.722v-3.412h.722v3.412zM201.824 137.651h-.654v-2.695l-.812 2.695h-.663l-.83-2.695v2.695h-.659v-3.412h1.044l.771 2.579.764-2.579h1.039v3.412zM205.143 137.651h-2.627v-3.412h2.548v.606h-1.823v.764h1.701v.612h-1.701v.818h1.902v.612z"/></g><path fill="#13110c" d="M19.836 110.513l10.981-2.802v5.717zM244.175 113.428l10.98-2.915-10.98-2.802"/><path fill="#8a4b4f" d="M313.907 4.588h274.06v179.306h-274.06z"/><path fill="#8c353d" d="M318.279 12.958h262.124v162.357H318.279z"/><path fill="#492314" d="M316.211 0h26.413v4.588h-26.413z"/><path fill="#8c353d" d="M316.211 0h26.413v4.588h-26.413zM342.861 0h28.334v4.588h-28.334zM531.196 0h27.743v4.588h-27.743zM559.16 0h27.019v4.588H559.16zM435.056 183.894h28.334v1.529h-28.334z"/><path fill="#c99440" d="M576.817 50.999v.191l-256-3.487v-8.847l256 11.902z"/><path fill="#693f1c" d="M576.817 17.212v33.787l-256-12.143V17.212z"/><path fill="#958565" d="M576.817 51.006v13.305l-249.984-6.094-6.016-.146V47.212h.656l253.098 3.679z"/><path fill="#bc8c37" d="M576.817 89.421v3.051l-256-5.406v-5.854h.656z"/><path fill="#8f785f" d="M576.817 92.472v11.722l-256-7.126V87.066z"/><path fill="#7e4a22" d="M320.817 127.653V97.068l256 7.136v32.625z"/><path fill="#a87127" d="M320.817 133.77v-6.117l255.978 9.176z"/><path fill="#a2886f" d="M320.817 141.416v-7.646l256 3.059v10.705z"/><path fill="#693f1c" d="M576.817 147.342v24.87h-256v-30.925z"/><path fill="#55361f" d="M576.817 64.189v25.232l-255.344-8.209h-.656V58.071l6.016.146z"/><path fill="#13110c" d="M568.201 156.645h8.898v1.402h-8.898zM321.038 156.645v1.482l169.784-.081v-1.402H321.038zM560.192 150.592h-61.449c-1.595 0-3.042.638-4.091 1.77-1.049 1.132-1.702 2.602-1.702 4.314 0 3.433 2.602 6.15 5.793 6.15h61.449c1.595 0 3.042-.638 4.091-1.77 1.049-1.132 1.702-2.602 1.702-4.314 0-3.434-2.602-6.15-5.793-6.15zm3.609 9.91a4.815 4.815 0 0 1-3.545 1.56h-61.577c-2.758 0-5.02-2.401-5.02-5.383 0-1.491.567-2.799 1.475-3.777a4.801 4.801 0 0 1 3.545-1.545h61.577c2.758 0 5.02 2.386 5.02 5.368 0 1.49-.567 2.798-1.475 3.777z"/><g fill="#13110c"><path d="M506.819 160.327v-5.507l-3.365 5.507h-1.032l-.519-5.482-3.501 5.611h-1.263l4.631-7.475h.929l.49 5.64 3.161-5.64h1.733v7.346h-1.264zM511.556 160.457c-1.336 0-2.296-.954-2.296-2.823v-4.652h1.263v4.652c0 1.143.396 1.511 1.041 1.511.627 0 1.032-.358 1.032-1.511v-4.652h1.263v4.652c.002 1.878-.957 2.823-2.303 2.823zM515.161 160.327v-7.346h1.263v6.044h2.084v1.302h-3.347zM520.812 154.283v6.044h-1.263v-6.044h-1.263v-1.302h3.789v1.302h-1.263zM522.72 160.327v-7.346h1.263v7.346h-1.263zM529.623 160.457c-1.198 0-2.129-.835-2.24-2.227h1.318c.055.616.359.915.922.915.544 0 .922-.368.922-.895 0-.298-.111-.576-.314-.745-.203-.169-.276-.199-1.18-.567-.913-.368-1.42-1.074-1.42-1.998 0-1.163.885-2.087 1.982-2.087s1.954.795 2.018 2.087h-1.309c-.037-.497-.295-.775-.719-.775-.415 0-.701.308-.701.745 0 .268.129.497.378.666.092.06.111.07.755.328 1.383.557 1.761 1.203 1.761 2.197.003 1.332-.946 2.356-2.173 2.356zM535.91 160.457c-1.992 0-3.586-1.71-3.586-3.827 0-2.077 1.577-3.777 3.503-3.777 1.402 0 2.627.815 3.226 2.237h-1.41c-.461-.646-.996-.924-1.789-.924-1.3 0-2.258 1.093-2.258 2.475 0 1.372 1.032 2.505 2.286 2.505.654 0 1.134-.239 1.687-.865h1.484c-.534 1.341-1.751 2.176-3.143 2.176zM542.916 160.327l-1.789-2.813v2.813h-1.263v-7.346h1.964c.931 0 1.42.139 1.862.547.47.427.719 1.063.719 1.809 0 1.143-.553 1.949-1.779 2.276l1.844 2.714h-1.558zm-1.226-6.044h-.562v2.207h.618c.977 0 1.392-.338 1.392-1.113-.001-.656-.25-1.094-1.448-1.094zM545.211 160.327v-7.346h3.66v1.302h-2.397v1.73h2.296v1.302h-2.296v1.71h2.397v1.302h-3.66zM550.004 160.327v-7.346h3.66v1.302h-2.397v1.73h2.296v1.302h-2.296v1.71h2.397v1.302h-3.66zM558.909 160.327l-2.849-5.338v5.338h-1.263v-7.346h1.438l2.821 5.348v-5.348h1.262v7.346h-1.409z"/></g><g><path d="M335.882 56.729V30.972c.194-.844.624-1.458 1.434-1.704.116-.035.228-.086.342-.13h29.173c1.138.513 1.503 1.113 1.503 2.473l-.001 24.764c0 .158.003.32-.025.474-.174.972-.901 1.568-1.908 1.568h-28.487c-.057 0-.114.002-.171-.001-.861-.044-1.512-.581-1.772-1.459-.023-.079-.059-.153-.088-.228zm16.238 1.33h14.004c.159 0 .319.003.478-.012.733-.069 1.282-.579 1.379-1.292.028-.204.021-.415.021-.622l.001-24.433c0-.134.001-.269-.005-.403-.053-1.172-.653-1.792-1.735-1.792h-28.042c-1.357 0-1.997.681-1.997 2.123v24.47c0 .11-.003.22.002.33.041.81.504 1.409 1.247 1.57.265.057.542.06.814.06 4.611.002 9.222.001 13.833.001z"/><path d="M361.876 48.663h1.184v2.996h2.144v-2.985h1.208v7.499h-1.182v-3.169h-2.164v3.167h-1.19v-7.508zM361.505 54.168c-.538 1.464-2.326 2.397-3.91 2.078-1.703-.343-2.947-1.935-2.998-3.839-.05-1.841 1.177-3.517 2.884-3.939 1.586-.392 3.382.507 4.025 2.057-.449 0-.878.008-1.306-.007-.075-.003-.154-.094-.22-.157-.867-.83-1.999-.968-2.97-.36-.955.599-1.429 1.787-1.184 2.965.235 1.127 1.143 1.98 2.251 2.084.696.065 1.324-.156 1.845-.659a.72.72 0 0 1 .584-.228c.321.017.643.005.999.005zM353.547 56.181h-1.197v-6.237h-1.351v-1.275h3.874v1.245h-1.325l-.001 6.267zM350.49 48.642v7.524h-1.18v-1.584c-.473 0-.923.051-1.358-.012-.657-.095-1.105.13-1.357.794-.266.7-.739.979-1.433.834-.141-.03-.292-.004-.496-.004.082-.151.132-.255.192-.352 1.411-2.291 2.828-4.578 4.229-6.877.154-.253.316-.35.585-.327.261.021.525.004.818.004zm-1.209 2.366l-1.393 2.259h1.393v-2.259zM338.28 56.197v-7.526h1.161v5.04l.073.038c.068-.1.14-.197.204-.3.917-1.486 1.839-2.968 2.742-4.464.158-.262.323-.379.61-.348.25.027.504.006.787.006v5.067l.072.038c.068-.099.14-.194.203-.296.929-1.507 1.861-3.012 2.781-4.525.128-.211.265-.304.501-.29.35.021.701.005 1.109.005-.101.175-.163.289-.23.399-1.406 2.282-2.816 4.56-4.212 6.848-.146.24-.299.336-.557.313-.261-.023-.525-.005-.826-.005v-5.059l-.08-.037c-.067.103-.135.204-.199.309-.91 1.476-1.827 2.947-2.722 4.433-.166.275-.34.392-.638.359-.251-.027-.503-.005-.779-.005zM352.445 43.352l.896.884c.182-.435.359-.832.512-1.238.076-.2.174-.289.382-.275.283.02.568.005.909.005-.285.693-.533 1.341-.818 1.971-.128.282-.1.451.123.657.471.432.914.899 1.389 1.372l-.728.852-1.407-1.393c-.497 1.142-1.316 1.645-2.44 1.491-.831-.114-1.446-.6-1.705-1.473-.38-1.282.091-2.243 1.096-2.939-.848-1.19-.907-2.038-.211-2.716a1.644 1.644 0 0 1 2.325.05c.673.702.569 1.615-.323 2.752zm-.933.65c-.272.247-.543.443-.756.696-.47.559-.252 1.502.386 1.76.707.286 1.535-.192 1.688-.986.014-.073-.037-.189-.093-.245-.39-.4-.789-.791-1.225-1.225zm-.465-2.247c.006.242.373.74.547.743.187.004.542-.48.544-.741.002-.282-.256-.512-.57-.507-.309.005-.529.217-.521.505zM362.289 31.311h3.595v1.26h-2.395v1.927h2.402v1.282h-2.399v1.766h2.395v1.273h-3.598v-7.508zM356.868 31.292v5.06l.071.037c.066-.104.133-.207.197-.311.872-1.414 1.762-2.816 2.605-4.25.248-.422.517-.611.967-.54.177.028.36.005.559.005v7.531h-1.161v-5.046l-.071-.036c-.068.102-.14.201-.204.305-.923 1.497-1.85 2.991-2.763 4.495-.134.22-.268.336-.522.311-.272-.026-.548-.006-.851-.006v-5.071l-.07-.038c-.068.099-.139.196-.202.298-.929 1.507-1.861 3.013-2.781 4.527-.128.211-.265.301-.5.286-.351-.022-.703-.006-1.109-.006.09-.155.146-.257.207-.357 1.406-2.282 2.817-4.561 4.212-6.85.159-.26.321-.381.61-.35.249.028.502.006.806.006zM350.66 38.826h-1.182v-1.587c-.736 0-1.444-.007-2.151.01-.073.002-.158.129-.214.215-.241.378-.483.756-.704 1.147-.104.184-.227.244-.419.237-.365-.014-.732-.004-1.15-.004.08-.144.132-.248.193-.346 1.411-2.293 2.828-4.582 4.23-6.881.153-.251.316-.353.586-.329.261.023.525.005.81.005l.001 7.533zm-2.59-2.916h1.372v-2.227l-1.372 2.227zM341.95 36.356v-1.229h3.575c.203 1.786-1.244 3.648-3.087 3.984-1.893.345-3.777-1.062-4.166-3.111-.4-2.108.798-4.171 2.714-4.674 1.738-.457 3.78.616 4.214 2.252-.385 0-.761.014-1.134-.01-.091-.006-.186-.127-.26-.214-.792-.932-1.99-1.204-3.022-.681-1.01.512-1.609 1.689-1.459 2.866.155 1.224 1.009 2.163 2.162 2.378.991.185 2.088-.369 2.59-1.311.032-.06.052-.129.1-.252h-1.133c-.355.002-.709.002-1.094.002z"/></g><g fill="#13110c"><path d="M338.352 61.449H339.528h-.244.244l1.831 3.029v-3.029H342.582h-.244.244V65.925h-1.148l-1.906-3.29v3.291h-1.177v-4.477zM342.907 61.476H344.263h-.247.247v.93-.266.266H342.907h.247-.247v-.93.266-.266zm0 1.463h1.234-.247.376l-.005 2.999H342.909h.247-.247l-.002-2.999zM346.937 62.717c.9-.078 1.361.278 1.384 1.07v.134-.134.269-.134V65.935H347.078h.249-.249v-2.148c.002-.282-.18-.439-.545-.47-.258-.021-.451.091-.579.336V65.936h-1.263v-3.088H345.831h-.247.377l-.003.375c.275-.293.602-.461.979-.506zM349.407 61.987h1.176v.635h.706-.236.236v.51h-.706V65.931h-1.176.236-.236v-2.798h-.706v-.51h.706v-.636zM353.087 62.745c1.023.034 1.559.561 1.607 1.582H352.638c-.015.677.061 1.061.229 1.151a.457.457 0 0 0 .499-.034c.168-.11.235-.361.2-.753h1.104-.226.226c-.154.671-.478 1.063-.972 1.176a2.22 2.22 0 0 1-1.389-.101c-.431-.183-.712-.601-.841-1.254l-.003-.218c.127-.986.668-1.502 1.622-1.549zm.015.342c-.301.017-.456.268-.465.753h.901c-.003-.463-.148-.714-.436-.753zM357.138 62.717c.9-.078 1.361.278 1.384 1.07v.134-.134.269-.134V65.935H357.279h.249-.249v-2.148c.002-.282-.18-.439-.545-.47-.258-.021-.451.091-.579.336V65.936h-1.263v-3.088H356.032h-.247.377l-.003.375a1.56 1.56 0 0 1 .979-.506zM361.16 61.32h1.217-.244.244V65.941h-1.22l-.003-.107c-.095.081-.385.111-.87.093-.495-.011-.859-.181-1.091-.51a1.611 1.611 0 0 1-.304-1.075c.005-.355.098-.677.278-.966.18-.289.525-.503 1.034-.641.483-.035.802.018.958.16V61.32zm-.455 1.767c-.325.015-.494.287-.506.815v.845c.026.519.198.791.517.815.312-.035.465-.186.46-.451v-1.476c.024-.334-.133-.516-.471-.548zM362.614 64.224c.045-.558.222-.948.532-1.17.31-.222.682-.326 1.117-.311h.192c.474.027.845.162 1.111.408.267.245.418.6.455 1.066.012.576-.137.995-.447 1.254a2.068 2.068 0 0 1-1.127.456h-.2c-.57-.047-.981-.207-1.234-.482-.25-.271-.384-.678-.399-1.221zm1.706-1.092c-.344.011-.521.254-.53.728v.935c.024.463.204.707.54.731.332-.034.495-.283.488-.748v-.907c-.008-.489-.174-.736-.498-.739z"/></g></svg>