<svg xmlns="http://www.w3.org/2000/svg" viewBox="0 0 143.706 323.734"><path d="M133.442 313.285h10.265v10.449h-10.265z"/><path fill="#efd9b4" d="M133.442 302.849h10.265v10.436h-10.265z"/><path fill="#74282b" d="M133.442 281.964h10.265V292.4h-10.265zM133.442 271.515h10.265v10.449h-10.265zM133.442 198.412h10.265v10.449h-10.265z"/><path d="M133.442 31.334h10.265V41.77h-10.265z"/><path d="M133.442 20.885h10.265v10.449h-10.265zM133.442 10.449h10.265v10.436h-10.265zM123.177 313.285h10.265v10.449h-10.265z"/><path fill="#efd9b4" d="M123.177 302.849h10.265v10.436h-10.265z"/><path fill="#ababab" d="M123.177 292.4h10.265v10.449h-10.265z"/><path fill="#74282b" d="M123.177 281.964h10.265V292.4h-10.265zM123.177 271.515h10.265v10.449h-10.265z"/><path fill="#74282b" d="M123.177 261.08h10.265v10.436h-10.265zM123.177 250.631h10.265v10.449h-10.265zM123.177 240.195h10.265v10.436h-10.265zM123.177 208.861h10.265v10.449h-10.265z"/><path fill="#74282b" d="M123.177 198.412h10.265v10.449h-10.265zM123.177 187.976h10.265v10.436h-10.265z"/><path d="M123.177 93.988h10.265v10.436h-10.265zM123.177 83.539h10.265v10.449h-10.265zM123.177 73.103h10.265v10.436h-10.265z"/><path d="M123.177 62.654h10.265v10.449h-10.265z"/><path d="M123.177 52.219h10.265v10.436h-10.265zM123.177 41.77h10.265v10.449h-10.265zM123.177 31.334h10.265V41.77h-10.265z"/><path fill="#fff" d="M123.177 20.885h10.265v10.449h-10.265z"/><path d="M123.177 10.449h10.265v10.436h-10.265zM123.177 0h10.265v10.449h-10.265zM112.912 313.285h10.265v10.449h-10.265z"/><path fill="#a28d68" d="M112.912 302.849h10.265v10.436h-10.265z"/><path fill="#ababab" d="M112.912 292.4h10.265v10.449h-10.265z"/><path fill="#74282b" d="M112.912 281.964h10.265V292.4h-10.265zM112.912 271.515h10.265v10.449h-10.265z"/><path fill="#74282b" d="M112.912 261.08h10.265v10.436h-10.265zM112.912 250.631h10.265v10.449h-10.265zM112.912 240.195h10.265v10.436h-10.265z"/><path fill="#74282b" d="M112.912 229.746h10.265v10.449h-10.265z"/><path fill="#ababab" d="M112.912 219.31h10.265v10.436h-10.265zM112.912 208.861h10.265v10.449h-10.265z"/><path fill="#74282b" d="M112.912 198.412h10.265v10.449h-10.265z"/><path fill="#fff" d="M112.912 187.976h10.265v10.436h-10.265z"/><path fill="#74282b" d="M112.912 177.527h10.265v10.449h-10.265z"/><path fill="#74282b" d="M112.912 167.091h10.265v10.436h-10.265z"/><path fill="#e3978f" d="M112.912 104.424h10.265v10.449h-10.265z"/><path fill="#fff" d="M112.912 93.988h10.265v10.436h-10.265zM112.912 83.539h10.265v10.449h-10.265zM112.912 73.103h10.265v10.436h-10.265z"/><path fill="#efd9b4" d="M112.912 62.654h10.265v10.449h-10.265z"/><path fill="#421f24" d="M112.912 52.219h10.265v10.436h-10.265zM112.912 41.77h10.265v10.449h-10.265zM112.912 31.334h10.265V41.77h-10.265z"/><path fill="#421f24" d="M112.912 20.885h10.265v10.449h-10.265z"/><path fill="#fff" d="M112.912 10.449h10.265v10.436h-10.265z"/><path d="M112.912 0h10.265v10.449h-10.265zM102.647 313.285h10.265v10.449h-10.265z"/><path fill="#a28d68" d="M102.647 302.849h10.265v10.436h-10.265z"/><path fill="#ababab" d="M102.647 292.4h10.265v10.449h-10.265z"/><path fill="#74282b" d="M102.647 281.964h10.265V292.4h-10.265zM102.647 271.515h10.265v10.449h-10.265z"/><path fill="#74282b" d="M102.647 261.08h10.265v10.436h-10.265zM102.647 250.631h10.265v10.449h-10.265zM102.647 240.195h10.265v10.436h-10.265z"/><path fill="#74282b" d="M102.647 229.746h10.265v10.449h-10.265z"/><path fill="#ababab" d="M102.647 219.31h10.265v10.436h-10.265zM102.647 208.861h10.265v10.449h-10.265z"/><path fill="#ae353a" d="M102.647 198.412h10.265v10.449h-10.265zM102.647 187.976h10.265v10.436h-10.265z"/><path fill="#fff" d="M102.647 177.527h10.265v10.449h-10.265z"/><path fill="#74282b" d="M102.647 167.091h10.265v10.436h-10.265z"/><path fill="#74282b" d="M102.647 156.643h10.265v10.449h-10.265zM102.647 146.207h10.265v10.436h-10.265z"/><path fill="#efd9b4" d="M102.647 114.873h10.265v10.449h-10.265z"/><path fill="#e3978f" d="M102.647 104.424h10.265v10.449h-10.265z"/><path d="M102.647 93.988h10.265v10.436h-10.265zM102.647 83.539h10.265v10.449h-10.265zM102.647 73.103h10.265v10.436h-10.265z"/><path fill="#efd9b4" d="M102.647 62.654h10.265v10.449h-10.265z"/><path fill="#efd9b4" d="M102.647 52.219h10.265v10.436h-10.265z"/><path fill="#421f24" d="M102.647 41.77h10.265v10.449h-10.265zM102.647 31.334h10.265V41.77h-10.265z"/><path fill="#421f24" d="M102.647 20.885h10.265v10.449h-10.265z"/><path d="M102.647 10.449h10.265v10.436h-10.265zM102.647 0h10.265v10.449h-10.265z"/><path fill="#ae353a" d="M92.383 271.515h10.265v10.449H92.383z"/><path fill="#ae353a" d="M92.383 261.08h10.265v10.436H92.383z"/><path fill="#74282b" d="M92.383 250.631h10.265v10.449H92.383z"/><path fill="#fff" d="M92.383 240.195h10.265v10.436H92.383z"/><path fill="#fff" d="M92.383 229.746h10.265v10.449H92.383z"/><path fill="#74282b" d="M92.383 219.31h10.265v10.436H92.383z"/><path fill="#fff" d="M92.383 208.861h10.265v10.449H92.383z"/><path fill="#ae353a" d="M92.383 198.412h10.265v10.449H92.383zM92.383 187.976h10.265v10.436H92.383zM92.383 177.527h10.265v10.449H92.383z"/><path fill="#fff" d="M92.383 167.091h10.265v10.436H92.383z"/><path fill="#74282b" d="M92.383 156.643h10.265v10.449H92.383zM92.383 146.207h10.265v10.436H92.383z"/><path fill="#74282b" d="M92.383 135.758h10.265v10.449H92.383z"/><path fill="#efd9b4" d="M92.383 125.322h10.265v10.436H92.383zM92.383 114.873h10.265v10.449H92.383zM92.383 104.424h10.265v10.449H92.383zM92.383 93.988h10.265v10.436H92.383zM92.383 83.539h10.265v10.449H92.383zM92.383 73.103h10.265v10.436H92.383z"/><path fill="#efd9b4" d="M92.383 62.654h10.265v10.449H92.383z"/><path fill="#421f24" d="M92.383 52.219h10.265v10.436H92.383zM92.383 41.77h10.265v10.449H92.383zM92.383 31.334h10.265V41.77H92.383z"/><path fill="#421f24" d="M92.383 20.885h10.265v10.449H92.383zM92.383 10.449h10.265v10.436H92.383z"/><path fill="#74282b" d="M82.118 250.631h10.265v10.449H82.118zM82.118 240.195h10.265v10.436H82.118z"/><path fill="#74282b" d="M82.118 229.746h10.265v10.449H82.118z"/><path fill="#fff" d="M82.118 219.31h10.265v10.436H82.118zM82.118 208.861h10.265v10.449H82.118z"/><path fill="#ae353a" d="M82.118 198.412h10.265v10.449H82.118zM82.118 187.976h10.265v10.436H82.118zM82.118 177.527h10.265v10.449H82.118z"/><path fill="#ae353a" d="M82.118 167.091h10.265v10.436H82.118z"/><path fill="#fff" d="M82.118 156.643h10.265v10.449H82.118z"/><path fill="#74282b" d="M82.118 146.207h10.265v10.436H82.118z"/><path fill="#74282b" d="M82.118 135.758h10.265v10.449H82.118z"/><path fill="#efd9b4" d="M82.118 125.322h10.265v10.436H82.118zM82.118 114.873h10.265v10.449H82.118zM82.118 104.424h10.265v10.449H82.118zM82.118 93.988h10.265v10.436H82.118zM82.118 83.539h10.265v10.449H82.118zM82.118 73.103h10.265v10.436H82.118z"/><path fill="#efd9b4" d="M82.118 62.654h10.265v10.449H82.118z"/><path fill="#efd9b4" d="M82.118 52.219h10.265v10.436H82.118zM82.118 41.77h10.265v10.449H82.118z"/><path fill="#421f24" d="M82.118 31.334h10.265V41.77H82.118z"/><path fill="#421f24" d="M82.118 20.885h10.265v10.449H82.118zM82.118 10.449h10.265v10.436H82.118zM82.118 0h10.265v10.449H82.118z"/><path fill="#74282b" d="M71.853 219.31h10.265v10.436H71.853z"/><path fill="#fff" d="M71.853 208.861h10.265v10.449H71.853z"/><path fill="#ae353a" d="M71.853 198.412h10.265v10.449H71.853zM71.853 187.976h10.265v10.436H71.853zM71.853 177.527h10.265v10.449H71.853z"/><path fill="#ae353a" d="M71.853 167.091h10.265v10.436H71.853z"/><path fill="#ae353a" d="M71.853 156.643h10.265v10.449H71.853z"/><path fill="#fff" d="M71.853 146.207h10.265v10.436H71.853z"/><path fill="#74282b" d="M71.853 135.758h10.265v10.449H71.853z"/><path fill="#efd9b4" d="M71.853 125.322h10.265v10.436H71.853zM71.853 114.873h10.265v10.449H71.853zM71.853 104.424h10.265v10.449H71.853zM71.853 93.988h10.265v10.436H71.853zM71.853 83.539h10.265v10.449H71.853zM71.853 73.103h10.265v10.436H71.853z"/><path fill="#efd9b4" d="M71.853 62.654h10.265v10.449H71.853z"/><path fill="#421f24" d="M71.853 52.219h10.265v10.436H71.853zM71.853 41.77h10.265v10.449H71.853zM71.853 31.334h10.265V41.77H71.853z"/><path fill="#421f24" d="M71.853 20.885h10.265v10.449H71.853zM71.853 10.449h10.265v10.436H71.853zM71.853 0h10.265v10.449H71.853z"/><path fill="#74282b" d="M61.588 271.515h10.265v10.449H61.588z"/><path fill="#74282b" d="M61.588 261.08h10.265v10.436H61.588zM61.588 250.631h10.265v10.449H61.588zM61.588 240.195h10.265v10.436H61.588z"/><path fill="#74282b" d="M61.588 229.746h10.265v10.449H61.588z"/><path fill="#ababab" d="M61.588 219.31h10.265v10.436H61.588zM61.588 208.861h10.265v10.449H61.588z"/><path fill="#ae353a" d="M61.588 198.412h10.265v10.449H61.588zM61.588 187.976h10.265v10.436H61.588zM61.588 177.527h10.265v10.449H61.588z"/><path fill="#ae353a" d="M61.588 167.091h10.265v10.436H61.588z"/><path fill="#ae353a" d="M61.588 156.643h10.265v10.449H61.588zM61.588 146.207h10.265v10.436H61.588z"/><path fill="#fff" d="M61.588 135.758h10.265v10.449H61.588z"/><path fill="#efd9b4" d="M61.588 125.322h10.265v10.436H61.588zM61.588 114.873h10.265v10.449H61.588z"/><path fill="#e3978f" d="M61.588 104.424h10.265v10.449H61.588z"/><path fill="#fff" d="M61.588 93.988h10.265v10.436H61.588zM61.588 83.539h10.265v10.449H61.588zM61.588 73.103h10.265v10.436H61.588z"/><path fill="#efd9b4" d="M61.588 62.654h10.265v10.449H61.588z"/><path fill="#efd9b4" d="M61.588 52.219h10.265v10.436H61.588z"/><path fill="#421f24" d="M61.588 41.77h10.265v10.449H61.588zM61.588 31.334h10.265V41.77H61.588z"/><path fill="#421f24" d="M61.588 20.885h10.265v10.449H61.588zM61.588 10.449h10.265v10.436H61.588zM61.588 0h10.265v10.449H61.588z"/><path d="M51.324 313.285h10.265v10.449H51.324z"/><path fill="#efd9b4" d="M51.324 302.849h10.265v10.436H51.324z"/><path fill="#ababab" d="M51.324 292.4h10.265v10.449H51.324z"/><path fill="#74282b" d="M51.324 281.964h10.265V292.4H51.324zM51.324 271.515h10.265v10.449H51.324z"/><path fill="#74282b" d="M51.324 261.08h10.265v10.436H51.324zM51.324 250.631h10.265v10.449H51.324zM51.324 240.195h10.265v10.436H51.324z"/><path fill="#74282b" d="M51.324 229.746h10.265v10.449H51.324z"/><path fill="#ababab" d="M51.324 219.31h10.265v10.436H51.324zM51.324 208.861h10.265v10.449H51.324z"/><path fill="#74282b" d="M51.324 198.412h10.265v10.449H51.324zM51.324 187.976h10.265v10.436H51.324z"/><path fill="#ae353a" d="M51.324 177.527h10.265v10.449H51.324z"/><path fill="#ae353a" d="M51.324 167.091h10.265v10.436H51.324z"/><path fill="#ae353a" d="M51.324 156.643h10.265v10.449H51.324zM51.324 146.207h10.265v10.436H51.324z"/><path fill="#ae353a" d="M51.324 135.758h10.265v10.449H51.324z"/><path fill="#efd9b4" d="M51.324 125.322h10.265v10.436H51.324zM51.324 114.873h10.265v10.449H51.324z"/><path fill="#e3978f" d="M51.324 104.424h10.265v10.449H51.324z"/><path d="M51.324 93.988h10.265v10.436H51.324zM51.324 83.539h10.265v10.449H51.324zM51.324 73.103h10.265v10.436H51.324z"/><path fill="#efd9b4" d="M51.324 62.654h10.265v10.449H51.324z"/><path fill="#421f24" d="M51.324 52.219h10.265v10.436H51.324zM51.324 41.77h10.265v10.449H51.324zM51.324 31.334h10.265V41.77H51.324z"/><path fill="#421f24" d="M51.324 20.885h10.265v10.449H51.324zM51.324 10.449h10.265v10.436H51.324zM51.324 0h10.265v10.449H51.324z"/><path d="M41.059 313.285h10.265v10.449H41.059z"/><path fill="#efd9b4" d="M41.059 302.849h10.265v10.436H41.059z"/><path fill="#ababab" d="M41.059 292.4h10.265v10.449H41.059z"/><path fill="#74282b" d="M41.059 281.964h10.265V292.4H41.059z"/><path fill="#ae353a" d="M41.059 271.515h10.265v10.449H41.059z"/><path fill="#ae353a" d="M41.059 261.08h10.265v10.436H41.059zM41.059 250.631h10.265v10.449H41.059zM41.059 240.195h10.265v10.436H41.059z"/><path fill="#74282b" d="M41.059 229.746h10.265v10.449H41.059z"/><path fill="#ababab" d="M41.059 219.31h10.265v10.436H41.059zM41.059 208.861h10.265v10.449H41.059z"/><path fill="#74282b" d="M41.059 198.412h10.265v10.449H41.059zM41.059 187.976h10.265v10.436H41.059zM41.059 177.527h10.265v10.449H41.059z"/><path fill="#ae353a" d="M41.059 167.091h10.265v10.436H41.059z"/><path fill="#ae353a" d="M41.059 156.643h10.265v10.449H41.059zM41.059 146.207h10.265v10.436H41.059z"/><path fill="#ae353a" d="M41.059 135.758h10.265v10.449H41.059z"/><path fill="#efd9b4" d="M41.059 114.873h10.265v10.449H41.059zM41.059 104.424h10.265v10.449H41.059zM41.059 93.988h10.265v10.436H41.059zM41.059 83.539h10.265v10.449H41.059zM41.059 73.103h10.265v10.436H41.059z"/><path fill="#efd9b4" d="M41.059 62.654h10.265v10.449H41.059z"/><path fill="#421f24" d="M41.059 52.219h10.265v10.436H41.059zM41.059 41.77h10.265v10.449H41.059zM41.059 31.334h10.265V41.77H41.059z"/><path fill="#421f24" d="M41.059 20.885h10.265v10.449H41.059zM41.059 10.449h10.265v10.436H41.059z"/><path d="M30.794 313.285h10.265v10.449H30.794z"/><path fill="#efd9b4" d="M30.794 302.849h10.265v10.436H30.794z"/><path fill="#ababab" d="M30.794 292.4h10.265v10.449H30.794z"/><path fill="#ae353a" d="M30.794 281.964h10.265V292.4H30.794zM30.794 271.515h10.265v10.449H30.794z"/><path fill="#ae353a" d="M30.794 261.08h10.265v10.436H30.794zM30.794 250.631h10.265v10.449H30.794zM30.794 240.195h10.265v10.436H30.794z"/><path fill="#ae353a" d="M30.794 229.746h10.265v10.449H30.794zM30.794 219.31h10.265v10.436H30.794z"/><path fill="#efd9b4" d="M30.794 208.861h10.265v10.449H30.794z"/><path fill="#ae353a" d="M30.794 198.412h10.265v10.449H30.794z"/><path fill="#74282b" d="M30.794 187.976h10.265v10.436H30.794z"/><path fill="#ae353a" d="M30.794 177.527h10.265v10.449H30.794z"/><path fill="#ae353a" d="M30.794 167.091h10.265v10.436H30.794z"/><path fill="#ae353a" d="M30.794 156.643h10.265v10.449H30.794z"/><path fill="#421f24" d="M30.794 104.424h10.265v10.449H30.794zM30.794 93.988h10.265v10.436H30.794zM30.794 83.539h10.265v10.449H30.794zM30.794 73.103h10.265v10.436H30.794z"/><path fill="#421f24" d="M30.794 62.654h10.265v10.449H30.794z"/><path fill="#421f24" d="M30.794 52.219h10.265v10.436H30.794zM30.794 41.77h10.265v10.449H30.794zM30.794 31.334h10.265V41.77H30.794z"/><path fill="#421f24" d="M30.794 20.885h10.265v10.449H30.794z"/><path d="M20.529 313.285h10.265v10.449H20.529z"/><path fill="#a28d68" d="M20.529 302.849h10.265v10.436H20.529z"/><path fill="#ae353a" d="M20.529 281.964h10.265V292.4H20.529zM20.529 271.515h10.265v10.449H20.529z"/><path fill="#ae353a" d="M20.529 261.08h10.265v10.436H20.529zM20.529 250.631h10.265v10.449H20.529z"/><path fill="#efd9b4" d="M20.529 219.31h10.265v10.436H20.529zM20.529 208.861h10.265v10.449H20.529z"/><path fill="#ae353a" d="M20.529 198.412h10.265v10.449H20.529zM20.529 187.976h10.265v10.436H20.529zM20.529 177.527h10.265v10.449H20.529z"/><path fill="#421f24" d="M20.529 104.424h10.265v10.449H20.529zM20.529 93.988h10.265v10.436H20.529z"/><path fill="#efd9b4" d="M20.529 83.539h10.265v10.449H20.529zM20.529 73.103h10.265v10.436H20.529z"/><path fill="#421f24" d="M20.529 62.654h10.265v10.449H20.529z"/><path fill="#421f24" d="M20.529 52.219h10.265v10.436H20.529zM20.529 41.77h10.265v10.449H20.529z"/><path fill="#fff" d="M20.529 31.334h10.265V41.77H20.529z"/><path fill="#fff" d="M20.529 20.885h10.265v10.449H20.529z"/><path fill="#ae353a" d="M10.265 198.412H20.53v10.449H10.265zM10.265 187.976H20.53v10.436H10.265z"/><path fill="#421f24" d="M10.265 83.539H20.53v10.449H10.265zM10.265 73.103H20.53v10.436H10.265z"/><path fill="#421f24" d="M10.265 62.654H20.53v10.449H10.265z"/><path fill="#421f24" d="M10.265 52.219H20.53v10.436H10.265zM10.265 31.334H20.53V41.77H10.265z"/><path fill="#421f24" d="M10.265 20.885H20.53v10.449H10.265zM10.265 10.449H20.53v10.436H10.265zM0 83.539h10.265v10.449H0zM0 73.103h10.265v10.436H0z"/><path fill="#421f24" d="M0 62.654h10.265v10.449H0z"/><path fill="#421f24" d="M0 52.219h10.265v10.436H0zM0 31.334h10.265V41.77H0z"/><path fill="#421f24" d="M0 20.885h10.265v10.449H0z"/></svg>