<svg xmlns="http://www.w3.org/2000/svg" width="400" height="481.88345">
  <defs>
    <clipPath id="a">
      <path d="M0 339.086h281.467V0H0v339.086z"/>
    </clipPath>
  </defs>
  <g clip-path="url(#a)" transform="matrix(1.4211261,0,0,-1.4211261,-1.058349e-4,481.88358)">
    <path fill="#31456a" d="M241.0495 61.2966c-2.552-4.05-6.565-6.371-10.525-8.678-11.659-6.793-24.445-10.572-37.456-13.682-3.866-.924-7.797-1.571-11.675-2.447-1.57-.355-3.049-.998-4.26-2.174-4.079-3.961-8.156-7.924-12.301-11.816-4.554-4.275-6.934-9.872-9.543-15.341-.197-.412-.342-.852-.566-1.248-3.66-6.49-3.672-6.554-12.156-5.228-8.033 1.255-15.852 3.437-23.613 5.821-.802.247-1.578.598-2.338.961-4.927 2.35-4.497 3.78-3.604 8.797 1.376 7.736 4.243 15.042 7.195 22.295.905 2.224 1.204 4.588 1.669 6.913.285 1.425-.303 2.294-1.735 2.772-7.788 2.598-15.682 4.742-23.845 5.774-1.108.14-2.157-.199-2.945-1.007-6.373-6.533-13.099-12.76-18.193-20.425-2.602-3.916-4.147-8.175-4.015-12.983.094-3.402-.353-3.88-3.627-3.725-12.721.601-24.873 3.225-35.906 10.01-3.593 2.211-7.233 4.335-10.659 6.803-1.834 1.321-2.488 2.627-1.553 5.162 4.512 12.23 8.078 24.764 11.05 37.459.521 2.225.023 3.723-2.3 5.127-8.402 5.081-13.615 12.71-15.879 22.216-.556 2.334-.137 4.901-.166 7.361 1.269.578 1.366-.539 1.679-1.219 1.318-2.863 2.231-5.882 3.367-8.816 1.035-2.67 1.654-2.994 4.034-1.569 10.982 6.577 22.877 11.157 34.661 15.99 2.453 1.006 4.967 1.557 7.616 1.511.225-.05.483-.079.643-.232 4.422-4.212 10.232-4.968 15.796-6.255 6.811-1.575 13.35-3.962 19.902-6.325.638-.231 1.326-.454 1.526-1.245-2.91-4.89-6.374-9.383-9.967-13.78-.909-1.113-2.183-1.348-3.536-1.328-4.063.058-8.133-.204-11.732.19 2.307-.483 5.113-.1 7.89-.367 5.978-.574 11.055-3.561 16.244-6.176 1.434-.723 2.249-.761 3.345.425 5.252 5.685 11.556 10.06 18.008 14.244 2.528-.027 4.73-1.23 7.022-2.036 15.373-5.405 30.884-10.377 46.486-15.072 7.578-2.281 15.105-4.728 22.678-7.026.873-.265 1.795-.506 2.307-1.393.092-1.221-.937-1.497-1.707-1.894-6.084-3.13-12.258-6.077-18.553-8.754-3.247-1.381-6.668-.33-10.008-.401-1.677-.036-3.354.366-5.179.01 6.947.685 13.086-1.491 19.035-4.455 1.624-.809 2.611-2.104 2.766-3.911 8.644 8.142 19.284 11.8 30.374 14.529 2.007-.21 3.89-.902 5.792-1.512 3.299-1.058 6.62-1.977 10.076-2.435 1.955-.259 3.815-.234 5.696.323.865.257 1.741.691 2.685.262"/>
    <path fill="#466489" d="M63.3852 115.5882c-11.284-2.136-21.2-7.853-31.63-12.199-3.73-1.554-7.161-3.84-10.682-5.873-2.38-1.375-3.355-1.095-4.319 1.511-1.276 3.449-2.538 6.903-3.791 10.361-.157.434-.461.572-.86.626.181 7.38 1.602 14.529 3.839 21.554 3.437 10.797 6.983 21.556 10.757 32.241.269.763 1.114 1.625.185 2.531-.317 1.008.433 1.555.983 2.144 2.037 2.181 4.311 4.104 6.759 5.797 3.46 2.393 6.303 1.141 7.092-3.051.142-.757.11-1.518.065-2.281-2.476-12.235-5.27-24.415-6.502-36.915 1.103 1.017 1.541 2.365 1.959 3.703 3.085 9.891 6.198 19.773 9.971 29.432.391 1.002.756 2.012 1.22 2.981 2.187 6.166 4.747 12.157 8.325 17.668.252.387.57.845.474 1.276-.842 3.809 1.584 6.771 2.644 10.06 1.271 3.943 2.8 7.811 4.36 11.654.699 1.724.297 2.705-1.369 3.465-3.36 1.533-6.633 3.236-9.398 5.754-1.273 1.311-2.591 2.579-3.849 3.905-.551.581-1.34 1.089-1.071 2.106 1.396.908 1.712 2.508 2.361 3.856 1.343 2.788 3.431 4.763 6.306 5.688 1.872.602 2.703 1.555 2.469 3.467 1.287-1.274 2.59-1.124 4.237-.496 5.551 2.119 10.969 4.581 16.607 6.477.116.039.301-.019.332.184-.147-.067-.296-.075-.445-.027-.423.134-.637.38-.453.843 6.712 1.301 12.438 5.096 18.745 7.418 1.174.495 2.562 1.751 3.587.784 1.168-1.102-.324-2.367-.899-3.419-4.761-8.701-7.642-18.111-10.417-27.552-4.445-15.12-9.607-29.997-14.793-44.874-4.375-12.554-8.632-25.153-12.535-37.865-1.57-5.11-2.221-10.354-1.923-15.708.095-1.715.464-3.337 1.219-4.883.355-.727.999-1.431.44-2.343"/>
    <path fill="#cddae6" d="M63.3852 115.5882c-3.571 5.678-2.903 11.809-1.654 17.879 2.033 9.885 5.685 19.299 8.937 28.813 7.951 23.268 16.045 46.487 23.037 70.071 2.04 6.883 5.131 13.329 8.748 19.76-1.408-.15-2.467-.871-3.594-1.39-3.528-.962-7.004-.237-10.452.428-4.461.86-8.93 1.363-13.483 1.294-2.668-.04-3.02.659-1.694 2.901.98 1.657.278 3.154-.344 4.604-1.514 3.531-2.036 7.211-1.963 11.011.012.614.025 1.23.161 1.831.506 2.231 1.862 2.897 3.918 1.931 2.012-.946 3.033-2.744 3.971-4.613 1.299-2.546 2.043-5.293 2.809-8.024.838-2.991 2.738-4.638 5.787-5.187 3.4-.612 6.846-.94 10.221-1.691 1.028-.229 2.164-.237 2.91-1.18 1.591-.855 2.988-.765 4.684.139 2.871 1.529 5.993.888 9 .119 1.777-.455 3.522-1.038 5.282-1.563.779.359 1.496.039 2.209-.223 6.377-2.348 12.761-4.679 19.093-7.145 5.307-2.033 10.633-4.019 15.935-6.069 1.115-.43 2.06-.55 2.845.522.076.011.206.051.22.026 1.8-3.196 5.269-3.565 8.2-4.833 2.044-.885 4.214-1.469 6.219-2.426 1.267-.605 1.962-.17 2.6.824.237-4.053 3.819-3.712 6.309-4.805.685.177 1.359.131 2.015-.121 3.479-1.334 7.035-2.458 10.501-3.825.568-.224 1.127-.482 1.374-1.112 2.488-.872 4.976-1.745 7.463-2.618.868.431 1.643.003 2.429-.273 4.554-1.596 9.111-3.187 13.639-4.856 1.503-.591 3.054-1.06 4.534-1.712 2.311-1.047 5.082-1.021 6.996-2.994 4.212-1.82 8.647-3.038 12.849-4.911 7.161-3.192 10.785-8.358 10.455-16.406-.327-7.976-1.242-15.904-1.599-23.872.743-1.629.369-3.323.217-4.979-1.202-13.047-2.539-26.08-3.612-39.139-.264-3.206-.439-6.423-.876-9.614-.104-.757-.119-1.546-.822-2.063-.417-5.112-.842-10.224-1.248-15.338-.651-8.186-.852-16.407-1.862-24.564-.438-3.539-1.71-6.685-4.7-8.899-4.388-2.324-8.89-1.577-13.356-.383-3.742 1.001-7.431 2.196-11.143 3.305-1.804-.275-3.431.46-5.091.936-3.213.921-6.336 2.136-9.569 2.998-.735.196-1.454.473-1.883 1.181-8.544 2.708-17.053 5.533-25.64 8.098-17.777 5.31-35.368 11.175-52.87 17.318-.777-.364-1.514-.073-2.239.164-5.412 1.766-10.762 3.711-16.108 5.666-.707.258-1.498.441-1.854 1.244-8.825 3.323-17.751 6.3-27.009 8.208-4.121.85-7.932 2.402-10.902 5.557"/>
    <path fill="#31456a" d="M48.5471 224.0385c1.705-1.831 3.41-3.663 5.115-5.494.05-3.605-1.3-6.93-2.17-10.334-1.982-7.749-3.971-15.499-5.995-23.238-.156-.595-.269-1.206-.508-1.773-.704-1.675-2.101-2.188-3.202-.843-1.932 2.361-4.409 3.685-7.069 4.964-2.098 1.009-2.489 3.428-1.57 6.817-3.139-1.731-4.735-3.165-6.852-6.065-.713-.978-1.306-2.126-2.687-2.359-1.568-1.049-2.9-2.427-4.634-3.253-.842-.4-1.559-.537-2.243.254-.678.787-.18 1.465.247 2.049.936 1.279 1.966 2.489 2.958 3.727 2.443 3.543 1.383 6.935-.365 10.353-.907 1.775-1.566 3.667-2.176 5.572-.555 1.733-.032 2.989 1.53 3.875 2.286 1.298 4.769 2.104 7.666 3.087-4.49-.011-8.437-.731-12.184-2.229-2.831-1.132-5.693-1.076-8.609-.937-.539.026-1.068.164-1.547.419-1.111.592-2.293 1.295-2.136 2.711.175 1.575 1.655 1.635 2.852 1.768 1.674.187 3.38.041 5.032.483.737.197 1.633.273 1.878 1.119.254.878-.519 1.354-1.078 1.871-.434.402-1.078.654-1.037 1.408.792.132.978.595.772 1.328-.527 1.881-.215 3.801-.238 5.706 1.358 2.801 3.244 5.056 5.825 5.966-2.369-.29-5.167-.884-7.715-2.322-1.264.11-2.425-.089-3.479-.896-.47-.359-1.088-.562-1.669-.732-.961-.281-2.072-.607-2.798.283-.881 1.078.344 1.822.788 2.613.953 1.698 3.109 2.406 3.531 4.663.517 2.771-.03 5.359-1.003 7.828-2.139 5.426-2.942 11.052-3.258 16.828-.281 5.129.108 10.243.04 15.365-.008.631-.366 1.562.491 1.818.667.2 1.279-.404 1.774-.895 2.456-2.439 4.908-4.883 7.355-7.331 6.851-6.856 13.652-13.762 20.563-20.557 5.536-5.443 9.418-12.07 13.643-18.464 1.218-1.843 2.305-3.815 4.162-5.153"/>
    <path fill="#002" d="M59.6452 281.2933c.078 1.175-.287 2.271-.566 3.39-.461 1.848-1.645 2.611-3.49 2.717-3.14.179-6.279.437-9.444 2.025 3.621 1.445 5.233 4.424 6.807 7.481.802 1.557.454 2.63-.954 3.481-1.365.826-2.746 1.623-4.462 2.634 2.175.503 4.068.561 5.829 1.284 4.208 1.726 6.224 4.98 5.874 9.478-.393 5.049-.678 10.107-1.411 15.125-.17 1.166-.455 2.267-1.22 3.177-.538.642-.901 1.262-.291 2.042.346.442.759.823 1.365.63.876-.279 1.365-.862 1.483-1.835.432-3.587 1.348-7.078 2.205-10.58.218-.894.42-1.793.63-2.689.983-.683 1.078-1.811 1.403-2.819.769-2.39.917-2.464 3.158-1.163 3.254 1.89 6.658 3.48 10.052 5.094 3.591 1.708 7.216 2.054 11.183 1.344 8.694-1.556 17.357-3.084 25.6-6.452 2.769-1.131 5.783-1.427 8.818-1.379 1.969.032 4.001.075 5.753-1.135 1.382-1.543 2.839-3.01 4.068-4.698 1.332-1.827 1.235-3.457-.442-4.871-1.241-1.047-1.488-1.98-.811-3.557 2.538-5.907.424-11.321-5.544-14.04-2.23-1.016-3.807-2.435-4.956-4.547-1.135-2.087-2.326-4.15-4.068-5.842-1.478-1.436-3.157-2.393-5.176-2.819-3.058-.645-4.023.101-3.914 3.146.018.533.136 1.062.209 1.593.057.146.117.341.242.379 3.586 1.089 4.895 4.162 6.319 7.165 1.059 2.232 2.552 4.21 3.946 6.235 2.134 3.1 2.51 6.174.383 9.445-.754 1.159-1.429 2.368-2.269 3.472-2.691 3.536-5.145 4.098-8.951 1.878-2.228-1.301-4.536-2.268-7.119-2.496-.671-.059-1.532-.34-1.856.441-.326.785.466 1.225 1.014 1.593 1.304.875 1.988 2.1 2.268 3.603.546 2.926-.053 4.139-2.818 5.23-3.803 1.501-7.659 2.798-11.847 2.651-3.14-.111-5.921-1.131-8.106-3.372-7.048-7.23-8.54-16.503-2.14-24.979.556-.737 1.149-1.442 1.558-2.279.457-1.779-.82-2.653-1.891-3.637-2.292-1.674-4.666-3.205-7.356-4.19-2.147-.918-4.419-1.24-6.717-1.292-3.177-.072-3.748.937-2.348 3.938"/>
    <path fill="#648dbd" d="M120.1235 254.0196c-1.067 1.166-.082 2.382.055 3.498.615 5.027 1.639 9.997 4.224 14.434 3.525 6.051 9.142 9.594 15.44 12.107 5.587 2.229 10.965 4.667 14.754 10.079-6.069-.07-11.31-2.33-17.024-5.076 3.942 5.786 8.172 10.141 14.936 11.165 1.717.259 3.457.538 5.024 1.389 1.079.001 1.048-.96 1.31-1.596.956-2.322 1.888-4.654 2.8-6.994.698-1.79 1.727-3.374 2.948-4.844.064-.575-.194-1.044-.546-1.449-2.826-3.251-3.315-6.869-1.741-10.826.198-.498.309-1.018.236-1.562-.068-.385-.191-.77-.461-1.041-5.293-5.31-9.967-11.317-17.083-14.528-3.214-1.45-6.559-2.181-9.996-2.553-4.504-.488-9.036-.738-13.348-2.317-.51-.187-1.046-.284-1.528.114"/>
    <path fill="#f7f1f1" d="M185.699 251.6816c-.587.063-1.173.127-1.76.19-5.887 1.133-9.914 4.549-12.283 10.006-1.033 3.722-.327 7.548-.703 11.306-.125.864.127 1.665.507 2.413 1.043 2.057 1.242 4.193.7 6.416-.14 1.46.372 2.691 1.256 3.834 1.603 2.072 3.341 4.015 5.327 5.725.598.515 1.342.974 2.084.437.695-.502.258-1.272.085-1.915-.647-2.401-1.771-4.711-1.373-7.301.376-.323.838-.412 1.298-.382 2.732.181 5.201-.369 7.059-2.803.457 2.046.018 2.536-2.837 3.559-2.905.892-2.938 1.142-.513 3.803 1.376.806 2.604-.062 3.786-.325-.869.58-2.341.214-2.93 1.552.329 1.88.904 3.602 2.839 4.457 3.18-1.321 6.158-3.002 8.86-5.145.67-.531 1.285-1.104 2.226-.998 3.856.074 6.616-1.943 8.432-6.153.973-5.239-.23-10.374-1.003-15.475-.979-6.452-5.251-10.133-11.387-11.823-3.031-1.808-6.234-2.411-9.67-1.378"/>
    <path fill="#31456a" d="M248.8593 110.0975c.888 13.68 2.324 27.312 3.582 40.96.456 4.949 1.005 9.89 1.511 14.835 6.864 3.048 13.748 6.046 20.781 8.688.716.27 1.461.464 2.194.688 1.623.498 3.418.793 4.296-.953.903-1.797-.908-2.717-2.021-3.597-1.918-1.518-3.992-2.842-6.015-4.226-4.395-3.005-5.299-6.527-3.048-11.272.997-2.104 2.585-3.805 3.643-5.844.527-1.015.994-2.088 1.298-3.187.371-1.344-.277-2.451-1.381-3.146-1.082-.681-1.827.152-2.579.853-3.558 3.321-4.451 3.175-6.973-1.064-.353-.593-.709-1.189-1.118-1.742-2.089-2.825-2.185-5.648.028-8.437 1.181-1.488 1.524-3.005.345-4.627-.861-1.183-1.757-1.785-3.226-.612-1.199.958-2.535 2.17-4.307.828-1.507-1.143-1.842-2.443-.604-3.918 1.33-1.586 3.086-2.518 5.146-2.747 2.259-.252 4.333-.977 6.181-2.278 1.025-.722 1.737-1.718 2.011-2.986.349-1.611-.345-2.362-1.966-2.075-.297.052-.592.171-.862.31-5.594 2.892-10.19 1.16-14.255-3.062-.586-.609-1.182-1.209-1.793-1.793-.602-.576-.718-.032-.868.404"/>
    <path fill="#182142" d="M23.6094 185.7135c2.891 4.037 6.011 7.827 11.026 10.156-.953-1.853-1.572-3.468-1.315-5.274.209-1.468.752-2.6 2.305-3.092 2.526-.801 4.806-1.958 6.183-4.425.312-.56.872-1.145 1.696-.936.85.217.804.993.974 1.654 2.893 11.25 5.796 22.497 8.71 33.741.091.352.313.671.474 1.006 3.06-2.486 6.489-4.38 10.059-5.989 1.657-.747 2.138-1.525 1.426-3.309-2.388-5.983-4.626-12.026-6.922-18.046-.425-1.113-1.175-2.178-.106-3.388.4-.451.012-1.048-.28-1.489-3.746-5.653-6.441-11.815-8.806-18.137-2.606.293-5.239.348-7.812.919.002.535.043 1.074-.002 1.606-.327 3.903-3.105 5.282-6.234 3.043-2.993-2.142-5.725-4.588-8.101-7.413-.848-.241-1.706-1.366-2.489-.66-.782.705-.191 1.823.09 2.802 1.08 3.767.615 7.623.31 11.426-.156 1.943-.041 4.029-1.186 5.805"/>
    <path fill="#638dbd" d="M184.7952 286.8003c-.246-.981-1.087-1.58-1.669-2.471.757-.212 1.423-.398 2.088-.584-.867-1.214-2.219-.692-3.357-.923-.895-.182-1.763-.465-2.657-.646-1.268.282-.656 1.162-.55 1.834.418 2.643 1.215 5.19 2.422 8.35-2.867-1.72-4.492-3.777-6.161-5.761-1.061-1.261-2.499-2.366-2.239-4.326-.874-.063-.928.693-1.109 1.212-.939 2.69-2.577 4.661-5.402 5.48-1.758 4.047-3.947 7.861-6.28 11.598-.2.321-.261.714.018 1.064 3.25.947 6.613 1.208 9.952 1.316 5.295.171 10.603.155 15.899.012 4.445-.119 8.859-.762 13.014-2.43 3.72-1.492 6.516-4.018 7.659-8.026.712-2.495 2.255-3.302 4.485-1.984 1.845 1.092 3.26 2.587 3.948 4.846 1.314 4.312.5 8.483-.338 12.678-.432 2.16-1.054 4.282-1.708 6.895 1.788-1.515 2.751-3.094 3.674-4.658 2.465-4.177 4.62-8.437 4.782-13.491.22-6.882-3.288-11.423-8.818-14.764-1.414-.854-2.858-1.873-4.689-1.664-.788.834-1.73 1.571-2.334 2.522-1.518 2.389-3.501 3.578-6.368 2.996-.518.865-.18 1.797-.18 2.694-.001 4.316-4.119 8.587-8.409 8.674-2.932.06-3.524-.863-2.266-3.539.195-.413.449-.81.24-1.296-1.832-.809-1.747-2.876-2.77-4.216-.127-.568-1.816-.152-.877-1.392"/>
    <path fill="#648cbc" d="M77.6148 286.3363c-7.698 8.242-7.894 18.265-.632 26.759 3.581 4.188 8.144 5.242 13.305 4.494 2.89-.419 5.673-1.321 8.375-2.436 3.996-1.647 4.772-6.724 1.461-9.617-.508-.444-1.107-.785-1.892-1.332 3.184-.034 5.794.838 8.285 2.367 4.352 2.671 6.684 2.181 9.849-1.872.473-.605.901-1.244 1.364-1.856 3.206-4.245 3.596-8.44.098-12.806-2.016-2.517-3.665-5.331-4.939-8.303-1.083-2.526-2.906-3.866-5.556-4.226-2.341-.743-4.763-.165-7.133-.438-.607-.342-1.234-.601-1.955-.544-7.169.572-13.814 2.457-19.253 7.508-.725.674-.899 1.55-1.377 2.302"/>
    <path fill="#31456b" d="M127.9669 313.143c-7.027.393-13.984.898-20.599 3.812-7.148 3.15-15.044 3.268-22.573 4.894-2.971.641-5.713-.746-8.374-1.934-3.85-1.718-7.611-3.619-11.194-5.845-1.071-.665-1.691-.925-1.969.707-.281 1.649-.828 3.252-1.258 4.876.219.309.552.589.639.931 1.932 7.551 7.773 11.493 13.945 15.114 6.233 3.657 12.844 4.167 19.771 2.42 7.269-1.833 14.708-2.935 21.903-5.102 1.988-.599 3.997-1.141 5.775-2.234 2.555-1.569 4.163-3.789 4.465-6.86.356-3.622 1.209-7.262-.531-10.779"/>
    <path fill="#446183" d="M120.1235 254.0196c5.402 2.453 11.28 2.453 16.996 3.198 5.509.718 10.306 2.956 14.416 6.485 3.824 3.283 7.354 6.921 10.691 10.722.314.019.641-.045.812-.294 1.356-1.976 3.604-2.203 5.616-2.899.49-2.66-.815-4.935-1.73-7.228-1.98-4.966-5.201-8.948-10.051-11.443-.747-.384-1.502-.768-2.381-.74-4.202-.233-7.619-2.222-10.761-4.823-.921-.763-1.535-1.924-2.843-2.185-7.074 2.636-14.148 5.272-21.223 7.908.153.433.305.866.458 1.299"/>
    <path fill="#182142" d="M9.7631 217.9905c.406-.198.878-.322 1.206-.61.892-.783 2.268-1.378 1.958-2.856-.291-1.387-1.624-1.336-2.748-1.615-1.596-.397-3.193-.363-4.802-.415-1.106-.035-2.691.06-2.77-1.266-.075-1.257 1.346-2.164 2.562-2.26 2.808-.223 5.646-.547 8.406.587 4.375 1.798 8.945 2.663 13.69 2.485.35-.013.763.14 1.122-.399-1.067-1.061-2.574-1.147-3.862-1.677-1.206-.495-2.447-.903-3.65-1.405-3.442-1.436-3.65-1.824-2.363-5.273 1.018-2.729 2.246-5.38 3.268-8.108 1.107-2.957.617-4.539-1.843-6.688-5.956 2.48-11.804 3.208-17.719-1.762 1.011 3.588 1.856 6.423 2.6 9.285.461 1.772.848 3.572 1.128 5.381.361 2.337-.754 4.303-2.303 5.778-2.672 2.544-3.413 5.679-3.568 9.122-.225 4.988-.239 4.949 4.413 3.237 1.715-.631 3.514-1.034 5.275-1.541"/>
    <path fill="#31456a" d="M59.6452 281.2933c.058-3.605.108-3.71 3.719-3.17 1.869.28 3.785.465 5.55 1.253.839-2.106.615-2.95-1.39-4.045-1.177-.643-2.165-1.303-2.273-2.762-.585-.369-.946.152-1.389.351-1.677-.03-2.56-1.402-3.558-2.359-3.458-3.313-7.581-4.72-12.262-4.986-4.507-.256-8.597-2.097-12.77-3.613-1.689-.614-3.813-2.273-5.109-1.095-1.404 1.277.392 3.378.931 5.034 3.084 9.48 10.468 13.478 20.623 14.421 2.659.247 5.335.224 7.928.971"/>
    <path fill="#1b1f44" d="M197.1866 223.5344c-4.63 1.686-9.26 3.372-13.89 5.057 5.421 4.845 10.837 9.696 16.274 14.523.386.343.901.628 1.401.742 2.587.593 8.665-4.32 8.757-7.031.019-.561-.107-1.053-.508-1.472-3.597-3.768-7.181-7.55-10.801-11.297-.286-.295-.816-.353-1.233-.522"/>
    <path fill="#002" d="M63.8625 272.9203c.536.371.887.326.933-.412.864-2.124-.134-4.076-.703-5.998-1.227-4.142-1.014-8.162.361-12.21 2.059-6.062 6.226-9.299 12.623-9.688.965-.058 2.035.152 2.776-.766.541-.185 1.083-.371 1.958-.671-6.891-3.062-13.56-5.744-20.361-8.109-2.296-.799-.92 1.555-1.767 1.982-.216 6.602-.803 13.198-.1 19.809.593 5.584 1.058 11.186 4.28 16.063"/>
    <path fill="#638dbd" d="M154.2647 252.2276c6.007 1.886 9.556 6.298 11.989 11.793 1.02 2.302 1.705 4.735 2.245 7.2.249.891.757 1.231 1.64.767.109-3.65.469-7.252 2.11-10.599 2.725-4.613 6.726-7.657 11.69-9.518-4.237-.134-8.121-1.19-11.227-4.287-.388-.159-.797-.086-1.045.185-1.501 1.64-3.492 1.858-5.53 1.969-2.507 1.532-5.022.505-7.518-.005-1.337-.274-2.622-.842-4.004-.86-1.227-.017-2.717.038-2.783 1.618-.057 1.363 1.135 1.825 2.433 1.737"/>
    <path fill="#f7f1f1" d="M166.2859 250.0185c2.747.783 4.7-.528 6.426-2.435 2.597-4.376 3.817-9.166 4.275-14.187-.073-.678-.146-1.356-.253-2.352-4.499 1.704-8.82 3.449-13.221 4.96-1.959.673-3.368 1.569-3.595 3.757-.881.698-.635 1.546-.323 2.403.727 1.269.845 2.758 1.482 4.073.906 1.869 2.115 3.354 4.177 3.98.37.07.716.011 1.032-.199"/>
    <path fill="#1a2042" d="M100.7006 254.0265c-4.683.795-9.367 1.582-14.047 2.388-2.771.478-4.479 2.132-5.332 4.789-.913 2.846-1.902 5.667-2.858 8.499 1.09 1.392 1.668-.016 2.082-.548 1.769-2.27 4.065-3.917 6.332-5.59 1.261-.931 2.877-2.485 4.244-1.516 1.471 1.043-.182 2.735-.558 4.117-.481 1.761-1.338 3.415-1.509 5.271.184 1.275.385 2.522 2.031 1.11 4.256-4.824 7.696-10.222 11.038-15.688 1.633-2.671 1.619-2.679-1.423-2.832"/>
    <path fill="#31456a" d="M91.0859 272.5466c-1.78.852-1.34-.586-1.475-1.43-2.202 2.072-5.211 2.284-7.836 3.378-2.474 1.03-4.673 2.347-5.916 4.826-.629 1.254-1.106 2.572-.061 3.881.454 1.133 2.137 1.553 1.817 3.135 4.923-5.171 10.869-8.225 18.047-8.763 1.517-.113 3.026-.332 4.538-.503-1.192-2.93-3.633-3.849-6.52-4.095-.871-.074-1.836.346-2.594-.429"/>
    <path fill="#638dbd" d="M224.9519 213.542c-1.417.535-2.834 1.071-4.251 1.606.068.302.257.548.38.824.324.726-.136 1.329-.643 1.51-2.299.818-1.413 5.033-4.927 4.53-.971-.139-1.96-.356-2.941-.292-.681.044-1.873-.191-1.305 1.26 7.556 2.255 15.128 4.331 23.125 2.493.811-.186 1.645-.416 2.48-.057.466-.377.966-.719 1.388-1.14.459-.459.668-1.054.322-1.663-.323-.567-.943-.439-1.444-.385-.749.08-1.479.336-2.227.414-2.647.273-2.974-.033-3.089-2.743-.821-.195-1.654 1.05-2.459-.002-.685-.896-.13-1.707.22-2.53.39-.917.736-1.841-.026-2.754-1.433-.792-3.147-.376-4.603-1.071"/>
    <path fill="#f5f0f0" d="M236.8697 225.4164c-.534-1.359-1.651-.803-2.568-.733-2.827.216-5.647.534-8.474.738-2.651.191-5.196-.29-7.585-1.49-2.272-1.142-4.851-.612-7.201-1.331-1.853-1.159-3.82-1.605-5.963-.96-.846.237-1.137.764-.24 1.167 9.611 4.331 19.254 8.56 29.997 3.681.697-.317 1.357-.713 2.034-1.072"/>
    <path fill="#31456c" d="M205.0783 221.6405c1.965.463 3.925.958 5.964.96 1.887-.895 3.718.345 5.616.147 1.434-.15 2.407-.445 2.318-2.099-.089-1.654 1.401-2.049 2.311-2.897 1.62-1.509 1.543-1.892-.586-2.603-5.351 1.922-10.701 3.845-16.052 5.768.143.241.286.483.429.724"/>
    <path fill="#628eba" d="M185.699 251.6816c3.301-.084 6.466.781 9.67 1.378-.727-.984-1.486-1.946-2.176-2.956-1.99-2.915-4.598-4.823-8.155-5.441-1.708-.297-3.359-.924-5.362-1.022 2.11 2.13 4.159 4.325 6.357 6.36 1.036.96.474 1.261-.334 1.681"/>
    <path fill="#f5f0f0" d="M159.8997 301.627c1.716-3.246 4.221-6.042 5.468-9.552.332-.936.562-1.908.839-2.863-.185-.998-.703-1.476-1.753-1.122-1.508.438-2.068 1.764-2.598 2.995-1.501 3.484-2.89 7.017-4.323 10.531-.378 1.283-.756 2.565-1.267 4.302 1.87-1.297 2.389-3.108 3.634-4.291"/>
    <path fill="#f1edee" d="M229.5254 214.8152c.112 1.29-.42 2.327-1.089 3.407-.76 1.227-.08 2.178 1.068 2.811 1.3.716 1.945.062 2.316-1.135.051-2.022 1.253-3.873.887-5.958-1.391-.907-2.554-.99-3.182.875"/>
    <path fill="#192143" d="M8.4074 228.6684c1.494 2.418 4.148 2.171 6.425 2.727.862.21 1.819.034 2.824-.114-3.379-1.047-4.999-4.078-7.36-6.258.024 1.554-.516 2.816-1.889 3.645"/>
    <path fill="#33476e" d="M229.5254 214.8152c.843-1.081 2.063-.794 3.181-.875.693-1.089 1.107-2.133-.459-2.859-2.432.82-4.863 1.64-7.295 2.461 1.144 1.79 2.991 1.055 4.573 1.273"/>
    <path fill="#002" d="M101.2958 101.8229c6.734-2.358 13.467-4.716 20.201-7.074-.945-1.81-2.925-2.338-4.41-3.456-4.895-3.686-9.97-7.145-13.938-11.903-.875-1.05-1.431-1.168-2.499-.083-1.699 1.726-4.212 2.109-6.286 3.242-4.686 2.559-9.669 3.676-15.007 3.545-1.971-.049-3.955.408-5.933.634l.063.627c4.173 0 8.351.132 12.516-.047 2.653-.115 4.637.364 6.205 2.81 2.187 3.409 4.771 6.564 7.187 9.826.536.724.861 1.664 1.901 1.879m98.7112-32.4893c5.514-1.705 11.029-3.41 16.543-5.115-4.217-1.849-8.843-2.437-13.065-4.304-4.503-1.992-8.848-4.251-12.951-6.971-1.42-.942-2.776-1.938-3.223-3.733-.086-.347-.189-.827-.66-.81-.567.02-.81.592-.788.985.2 3.5-2.639 4.057-4.911 5.206-5.597 2.829-11.657 3.513-18.41 3.809 3.547 1.035 6.559.769 9.533.634 3.526-.159 6.892-.149 10.205 1.558 5.854 3.017 11.996 5.463 17.727 8.741"/>
    <path fill="#4a6994" d="M75.7978 283.2014c-.38-3.918 1.948-6.114 5.084-7.604 1.842-.876 3.83-1.638 5.829-1.935 1.731-.256 2.519-1.027 2.9-2.546.83-2.383 1.67-4.762 2.484-7.15.32-.939.789-2.059-.108-2.778-.837-.67-1.923-.223-2.824.244-3.367 1.744-6.234 4.114-8.773 6.924-.504.559-.654 1.822-1.926 1.346-1.143 1.601-1.801 3.594-3.791 4.501-1.896.865-2.792.503-2.98-1.566-.351-3.862.031-7.671 1.365-11.346.131-.36.312-.702.464-1.054 1.018-2.354 2.385-4.748-.985-6.868 9.107.882 17.527-2.579 26.322-2.648-3.92-1.698-7.9-3.274-11.739-5.14-2.34-1.138-4.671-1.876-7.267-1.734-1.38.068-2.785-.008-4.135.23-9.571 1.689-15.354 11.477-12.661 21.278.65 2.365 1.162 4.767 1.738 7.152-.49 2.187 1.141 2.828 2.632 3.408 1.768.688 1.39 2.141 1.487 3.462 2.489.924 4.577 2.572 6.884 3.824"/>
    <path fill="#010021" d="M41.2215 169.1044c2.014.695 6.802.132 7.812-.919-4.18-10.974-7.906-22.102-11.349-33.328-.335-1.092-.877-2.127-1.389-3.155-.3-.603-.672-1.439-1.466-1.214-.87.248-.552 1.199-.469 1.806.527 3.872 1.023 7.752 1.73 11.593 1.552 8.437 3.039 16.889 5.131 25.217"/>
    <path fill="#648dbd" d="M206.4023 73.017c-4.69.858-9.177 2.465-13.698 3.89-20.479 6.452-41.251 11.962-61.52 19.091-2.303.81-4.604 1.625-6.906 2.437 1.005 17.775 4.882 35.038 9.294 52.205.076.296.213.577.198.977-1.109.58-2.802-.403-3.59 1.181.816 1.163 2.066.836 3.165.844 2.692.021 5.354.039 7.971.888 5.17 1.679 8.72 5.03 10.658 10.067 1.334 3.467 2.022 7.077 2.072 10.804.015 1.134-.202 2.322.537 3.345.431.273.8.064.913-.307.565-1.845.745-3.722.389-5.616 1.726 11.96.246 21.476-9.513 27.622-.647.407-1.318.796-1.627 1.561.035 4.918 1.169 9.687 2.017 14.489.811 4.591 2.075 9.085 3.293 13.583.238.878.443 1.796 1.23 2.402 1.094.564 2.109.062 3.104-.293 13.529-4.824 26.965-9.906 40.531-14.631 7.985-2.781 16.091-5.154 24.177-7.6 1.251-.378 2.482-.824 3.745-1.15 1.571-.406 2.356-1.34 2.297-2.971-1.335-10.64-3.077-21.212-5.219-31.716-.33-.756-.934-1.24-1.718-1.365-4.703-.75-7.17-3.984-8.965-7.983-.093-.208-.241-.388-.312-.608-.252-.176-.02-.195.004-.153.449.764 1.024 1.132 1.801.36.021-.314-.008-.63-.182-.889-3.041-4.547-4.291-9.65-4.601-15.024-.433-7.495 1.024-14.372 6.668-19.837.651-.631 1.457-1.176 1.501-2.228-1.892-14.719-3.941-29.416-5.753-44.144-.263-2.137-.473-4.279-.714-6.418-.12-1.065-.139-2.182-1.247-2.813m-106.0646 34.2953c-8.636 3.408-17.789 5.238-26.419 8.663-.997.395-1.981.835-2.935 1.325-4.189 2.148-5.047 4.207-4.659 8.685.983 11.33 4.08 22.188 7.474 32.922 8.402 26.572 17.473 52.925 26.881 79.159 1.013 2.822 2.271 5.549 3.752 8.159 1.96 3.453 3.443 3.987 7.394 2.778 8.19-3.075 16.007-7.039 24.191-10.129 1.213-.458 2.162-1.192 2.229-2.647-1.525-9.448-3.85-18.716-6.246-27.969-.3-1.157-.977-1.885-2.237-1.925-1.148-.093-2.31-.094-3.451.003-7.942.673-15.316-5.333-17.878-12.401-.285-.785-1.01-1.702.32-2.298.342-.81-.025-1.514-.361-2.196-5.494-11.124-2.318-21.199 6.009-28.679.877-.787 2.12-1.353 2.232-2.784-5.253-15.895-10.107-31.912-14.741-47.997-.29-1.006-.381-2.163-1.555-2.669m148.2199 89.1322c.736-3.424.327-6.891.208-10.318-.237-6.825-.754-13.641-1.183-20.458-.693-11.033-1.619-22.047-2.664-33.053-.61-6.418-.969-12.86-1.499-19.286-1.242-15.064-1.625-30.207-4.127-45.154-.534-3.189-.885-3.412-4.039-2.95-4.792.702-9.439 2.031-14.088 3.347-.644.683-.644 1.525-.592 2.382.929 15.346 2.365 30.64 4.764 45.832.345 2.186.295 4.468 1.405 6.49.637.851 1.614 1.124 2.544 1.477 7.036 2.667 10.259 7.291 10.662 14.823.178 3.341.19 6.688.436 10.02.302.307.985.077.948.925-.128 2.886.137 5.777-.471 8.654-.756 3.577-2.428 6.54-5.303 8.81-.664.524-1.31 1.057-1.515 1.943-.21 3.538.538 7.005.776 10.509.299 4.421.542 8.852 1.038 13.258.739 2.408.287 4.885.407 7.329.119 2.437.791 2.967 2.996 2.017 4.165-1.796 7.527-4.443 8.861-9.04.053-.185.234-.422.081-.493.075.914-.834 2.103.355 2.936"/>
    <path fill="#31456a" d="M100.3377 107.3123c4.298 14.684 8.635 29.357 13.354 43.912.762 2.35.992 4.949 2.765 6.906.644.219 1.206-.035 1.722-.356 3.26-2.033 6.79-3.347 10.555-4.07.586-.113 1.208-.227 1.554-.824.279-.113.549-.292.838-.329 3.576-.467 3.607-.469 2.7-3.915-3.517-13.358-6.325-26.857-8.042-40.569-.323-2.584-.418-5.196-.619-7.795-.056-.728.21-1.612-.887-1.837-8.017 2.859-16.091 5.563-23.94 8.877m126.8232 16.0121c-1.443-8.76-2.639-17.554-3.662-26.374-1.094-9.435-1.527-18.921-2.333-28.377-4.941 1.416-9.97 2.539-14.764 4.444.63 4.86 1.254 9.721 1.89 14.58 1.46 11.17 2.897 22.343 4.417 33.505.254 1.861 0 3.849 1.089 5.556.629.344 1.206.079 1.72-.232 3.089-1.873 6.425-2.702 10.031-2.483.608.037 1.232-.005 1.612-.619m9.3109 70.7097c-.283-8.183-1.12-16.323-1.881-24.47-.617-.298-1.205-.091-1.745.177-3.855 1.912-7.933 2.997-12.21 3.377-.459.041-.888.2-1.205.567.986 6.025 2.005 12.045 2.949 18.076.744 4.751 1.394 9.517 2.086 14.277.41.701.156 1.423.092 2.148-.054.608-.008 1.224.877 1.162 3.752-1.028 7.393-2.38 11.005-3.812.255-.292.572-.624.504-1.001-.632-3.481.106-7.021-.472-10.501m-107.1393 12.8942c1.345-.157 1.793.56 2.099 1.787 2.3 9.214 4.477 18.453 6.27 27.78.422 1.369-1.013 2.929.431 4.193 4.752-1.338 9.217-3.443 13.821-5.178.885-1.195.623-2.227-.449-3.142-2.804-9.117-4.725-18.423-5.983-27.873-.111-.836-.255-1.668-.384-2.502-.759-.599-1.452-.112-2.124.169-3.937 1.644-7.95 3.027-12.181 3.713-.638.103-1.43.093-1.5 1.053"/>
    <path fill="#4b6895" d="M151.5047 232.3681c.244 1.034.632 2.047.448 3.142 10.945-4.259 21.789-8.802 32.86-12.703 13.171-4.641 26.536-8.729 39.815-13.064.282-.092.539-.262.807-.395-1.123-.869 0-2.396-.969-3.31.098 1.16-.358 1.654-1.57 2.023-11.214 3.421-22.49 6.655-33.516 10.67-12.251 4.461-24.512 8.892-36.771 13.332-.358.13-.736.205-1.104.305"/>
    <path fill="#31456a" d="M160.2009 242.1322c-.555-.735-.398-1.556-.283-2.371-.037-1.273-.105-2.333-1.946-1.597-5.673 2.269-11.385 4.44-17.083 6.649 2.895 4.238 7.374 6.047 11.917 7.745.514.192 1.066.19 1.459-.331-.738-.646-2.48-.813-1.889-2.102.509-1.112 2.029-.778 3.165-.495 3.326.831 6.58 2.166 10.132 1.22.541-.144.871-.207.613-.832l-.9-.195c-4.039-.979-4.869-2.21-5.185-7.691"/>
    <path fill="#4c6895" d="M138.1326 240.6884c-.15-1.397.369-2.863-.432-4.193-.07 1.16-.99 1.463-1.849 1.787-8.095 3.06-15.937 6.709-23.838 10.223-.269.12-.362.241-.188.497 7.13-1.12 13.855-3.635 20.615-6.017 1.926-.679 3.94-1.173 5.692-2.297"/>
    <path fill="#4b6895" d="M236.4718 194.0341c-.011 3.834-.021 7.668-.032 11.502 2.941-.897 5.705-2.23 8.535-3.405 2.62-1.087 3.928-2.82 3.583-5.687-.057-1.221-.114-2.442-.185-3.959-2.12 5.5-5.715 9.043-11.27 10.549-.636-3.093.397-6.118-.631-9"/>
    <path fill="#496894" d="M60.5574 297.4381c-.128 2.038.072 4.248.747 6.384.419 1.327.927 2.773 2.764 2.47 1.719-.283 2.35-1.627 2.459-3.173.203-2.85-.453-5.629-.862-8.428-.191-1.312-.505-2.563-1.432-3.56-1.43-1.54-2.496-1.33-3.138.644-.577 1.773-.568 3.622-.538 5.663"/>
    <path fill="#1b1f44" d="M164.4534 288.0901c.584.374 1.169.748 1.753 1.122 3.483-.048 4.778-2.542 5.867-5.259.222-.552.051-1.245.6-1.681 1.256-3.218.083-6.023-1.49-8.76-.009-.888-.466-1.34-1.344-1.381-.447-.303-.894-.607-1.341-.911-2.999-.71-4.818.89-6.272 3.204-2.516 5.769-1.827 9.995 2.227 13.666"/>
    <path fill="#496894" d="M188.4419 292.4088c-.967 1.329-2.646 2.61-1.531 4.415 1.037 1.678 3.057 1.225 4.677 1.043 5.42-.609 9.187-6.747 7.469-11.992-.33-.128-.666-.556-1.017-.153-2.642 3.033-6.525 4.279-9.598 6.687"/>
    <path fill="#1b2045" d="M194.0921 259.3752c-2.335-1.686-4.558-2.56-6.961-2.991-1.316-.236-2.175.388-2.725 1.581-.969 2.1-1.041 4.257-.583 6.903 3.035-2.683 6.005-4.96 10.269-5.493"/>
    <path fill="#283157" d="M179.1998 282.1766c1.558 2.239 3.961 1.239 6.016 1.569.853-.086 1.63-.391 2.332-.872 1.579-1.082 2.826-2.251.76-4.219-2.03 2.46-4.536 3.932-7.93 3.028-.412-.11-.924-.001-1.178.494"/>
    <path fill="#20254a" d="M185.5943 277.953c.011-1.619-1.922-3.901-3.348-3.817-.938.055-1.872.443-1.924 1.568-.072 1.549 2.115 4.588 3.223 4.514 1.339-.089 2.033-.904 2.049-2.265"/>
    <path fill="#cddae6" d="M169.8393 272.1315l1.344 1.38c.64-.367.633-.989.639-1.608.031-3.51-.2-7.03.426-10.515-2.373 2.54-2.627 5.697-2.584 8.934.008.603.114 1.206.175 1.809"/>
    <path fill="#21264a" d="M201.4198 274.4077c-.324.491-.965.978-.438 1.597.351.413 1.018.376 1.527.2 2.011-.698 3.348-2.228 4.087-4.087.407-1.024-.233-1.85-1.54-1.026-1.492.798-2.654 1.958-3.636 3.316"/>
    <path fill="#1e2348" d="M203.729 268.8346c-.289-.537-.471-1.187-.89-1.588-.892-.854-1.876-.505-2.69.175-.846.708-.57 1.488.095 2.188.37.388.754.762 1.131 1.143.336.688.633 1.448 1.652 1.082.791-.283.904-.94.877-1.664-.018-.451.063-.914-.175-1.336"/>
    <path fill="#6589b4" d="M203.729 268.8346c-.19.906.453 2.049-.701 2.677-.843.46-1.179-.337-1.653-.76.015 1.219.03 2.438.045 3.656 1.632-.644 2.693-1.915 3.636-3.316-1.718-.002-.398-1.791-1.327-2.257"/>
    <path fill="#3d5075" d="M184.7952 286.8003c-.738.276-1.475.552-2.624.982 1.423.659 2.482.382 3.501.41 1.504-.729 3.343-.89 4.397-2.691-1.833.477-3.41 1.536-5.274 1.299"/>
    <path fill="#cedae6" d="M106.2556 294.2502c1.235-1.551 2.471-3.102 3.706-4.652 1.956-2.365 1.894-4.383-.39-5.835-4.956-3.149-10.237-5.354-16.282-4.288-5.035.888-9.169 3.561-13.06 6.796-5.942 4.939-6.878 11.292-5.555 18.33.456 2.428 1.456 2.942 3.909 2.557.577-.048 1.025-.303 1.308-.821.339-.927.089-2.062.994-2.784 1.101-.574 2.161-.676 3.148.229.382.369.757.754 1.363.661 3.207-2.32 6.83-3.563 10.663-4.46 3.459-.809 6.176-3.231 9.237-4.911.558.004 1.095-.015.959-.822"/>
    <path fill="#9cb2d5" d="M78.5834 307.1581c-1.898.064-2.913-.776-3.292-2.717-2.136-10.96 3.17-19.629 14.697-23.624 6.957-2.411 13.251-.184 19.231 3.262 2.409 1.388 1.371 3.555.742 5.519 1.362-.196 2.05-1.315 2.832-2.213.94-1.08.348-2.228-.658-2.708-4.315-2.059-7.863-5.774-12.957-6.146-6.032-.442-11.358 1.595-16.129 5.06-3.334 2.421-6.797 4.815-8.639 8.747-2.217 4.736-1.911 9.571-.192 14.31.927 2.556 2.79 1.266 4.365.51"/>
    <path fill="#020322" d="M106.2556 294.2502l-.96.822c-.083 4.151 2.49 6.699 6.473 6.409 1.702-.628 1.937-1.666.859-3.071-.172-.421-.349-.841-.516-1.264-1.267-3.208-2.449-3.793-5.856-2.896"/>
    <path fill="#010221" d="M85.3962 304.4436c-.298-.293-.597-.586-.895-.879-1.212-1.214-2.618-.938-4.042-.527-1.35.9-1.033 2.087-.567 3.299 1.759 1.89 3.021 4.445 6.102 4.572 2.08-.791 2.342-1.523 1.328-3.715-.912-.728-1.376-1.769-1.926-2.75"/>
    <path fill="#ccd8e3" d="M112.6274 298.4098c.115 1.137.122 2.243-.86 3.072-.706 1.173-1.967 1.231-3.101 1.585-1.443.449-2.015 1.169-.469 2.278 2.417.676 4.389-.29 6.116-1.817.677-.599 1.019-1.511.314-2.422-.004-.824.012-1.649-.018-2.472-.034-.918.368-2.292-.96-2.361-1.263-.065-.762 1.36-1.022 2.137"/>
    <path fill="#ccd8e4" d="M87.322 307.1934c.015 1.402.37 2.926-1.328 3.715-.321.741-1.072.763-1.68 1.056-.677.325-2.044.087-1.802 1.255.184.882 1.358.201 2.042.453 2.727.339 5.067-1.053 5.605-3.334.049-2.77-.257-3.109-2.837-3.145"/>
    <path fill="#202b4e" d="M114.6271 301.1053c-.044 2.452-1.896 3.094-3.75 3.676-.867.272-1.785.38-2.68.563 1.802 1.888 3.511.243 5.156-.258 1.512-.461 2.628-1.59 2.515-3.39-.061-.97-.274-1.931-.508-3.49-.345 1.364-.539 2.132-.733 2.899"/>
    <path fill="#1e2849" d="M90.1591 310.3384c-1.349 1.983-3.387 2.809-5.605 3.334-.516.579-1.338.204-1.924.601 1.225.933 4.164.484 6.518-1.174 1.234-.869 2.846-1.722 2.042-3.794-.861-.066-.448.947-1.031 1.033"/>
    <path fill="#cedae6" d="M89.656 334.3942c8.473-.191 16.603-2.485 24.84-4.101 1.168-.229 2.239-.944 3.355-1.434 4.235-2.947 5.881-7.417 7.073-12.13.111-.439.404-1.304-.645-1.34-7.054 2.309-13.982 5.048-21.35 6.287-8.809 1.48-17.66 2.197-26.576 1.226-1.457-.158-1.943.325-2.037 1.665-.081 1.169-.141 2.301.588 3.311 4.022 4.198 8.856 6.56 14.752 6.516"/>
    <path fill="#4b6894" d="M124.2789 315.3888c1.15.785.343 1.691.038 2.434-1.629 3.98-3.504 7.831-6.466 11.037 1.719-.097 3.229-.903 4.736-1.576 1.49-.665 1.939-2.1 2.228-3.724.418-2.355.309-4.702.388-7.052.016-.496.454-1.646-.924-1.119"/>
    <path fill="#4b6994" d="M89.656 334.3942c-5.497-.861-10.282-3.331-14.752-6.516 1.165 3.909 5.893 8.504 11.215 7.036 1.155-.319 2.46.351 3.537-.52"/>
    <path fill="#6b90ba" d="M160.2009 242.1322c-1.491 4.491.687 7.721 5.186 7.691-3.323-1.489-4.035-4.738-5.186-7.691"/>
    <path fill="#fefbfc" d="M130.2874 152.8802c-5.102.454-9.641 2.39-13.83 5.25-4.157 3.263-7.736 6.992-9.789 11.98-2.658 6.457-2.004 12.761.782 18.994.401.898 1.102 1.682 1.114 2.741.54 2.595 2.483 4.164 4.357 5.704 3.533 2.903 7.745 4.026 12.232 4.099 2.854.046 5.653-.55 8.438-1.149 1.597-.344 2.394-1.18 2.138-2.927-1.181-8.064-1.515-16.211-2.321-24.312-.152-1.533-.18-3.07-.015-4.604.049-.455.163-.945.739-1.022.432-.058.701.257.947.554.597.721.967 1.571 1.303 2.429 2.251 5.741 3.93 11.65 5.132 17.694.3 1.507.543 3.027.865 4.531.85 3.98 1.893 4.304 5.192 1.776 4.402-3.373 6.585-8.002 7.677-13.266.186-.896.305-1.844-.463-2.6.223-4.257-.325-8.415-1.486-12.513-2.377-8.389-9.447-13.622-18.183-13.417-1.609.037-3.219.039-4.829.058m96.8735-29.5558c-4.87-.556-9.333.521-13.363 3.334-7.224 5.746-9.062 13.535-8.487 22.263.375 5.694 1.828 11.013 5.212 15.7.219 1.253 1.271 1.661 2.225 2.113 3.028 1.433 6.214 1.531 9.455.994 1.945-.322 3.169-1.452 2.912-3.455-.637-4.961-.065-9.965-.672-14.918-.253-2.066-.257-4.131-.048-6.196.06-.591.077-1.397.79-1.509.647-.102 1.034.572 1.378 1.077.744 1.095 1.13 2.342 1.462 3.606.899 3.415 1.457 6.903 2.189 10.353.238 1.123.388 2.271.902 3.32.757.937.463 2.582 2.002 3 .384.07.765.038 1.116-.129 3.323-1.578 7.249-8.847 6.799-12.587-.028-.233-.187-.411-.343-.58.341-4.057.241-8.104-.267-12.142-.928-7.368-4.918-12.052-12.171-13.877-.371-.093-.728-.243-1.091-.367"/>
    <path fill="#010122" d="M154.7856 178.7518c-.486 6.921-3.26 12.543-9.177 16.463-1.418.939-1.976.917-2.265-.929-1.178-7.53-3.012-14.908-5.581-22.089-.567-1.585-1.298-3.118-2.05-4.627-.375-.751-.932-1.484-1.992-1.116-.955.333-1.125 1.078-1.119 2.014.032 5.304.5 10.583 1.023 15.851.47 4.726.471 9.511 1.608 14.161.127.518.047.788-.479 1.069-6.54 3.496-18.561 1.14-23.692-4.69-.862-.979-1.667-2.009-2.498-3.015-.411-.3-.823-.602-1.606-1.176.534 3.672 1.968 6.521 4.024 9.082 4.735 5.896 10.95 8.068 18.351 7.179 3.119-.602 6.241-1.206 9.224-2.333 2.207-.833 4.388-1.733 6.58-2.603 11.749-6.108 13.414-17.667 11.231-29.934-.02-.11-.209-.191-.48-.423-.652 2.397-.18 4.883-1.102 7.116m85.9044-29.041c-.856 5.234-2.45 10.051-7.342 13.005-.869-.05-1.806-.372-2.436.984-.371-1.221-.314-1.962.498-2.545.441-.316.958-.625.374-1.253-1.04-4.72-2.055-9.445-3.133-14.156-.431-1.885-1.069-3.703-2.648-4.999-.407-.334-.761-.897-1.343-.767-.758.169-.717.947-.784 1.513-.427 3.601-.144 7.21-.019 10.814.147 4.217.085 8.449.689 12.637.19 1.316-.359 1.661-1.565 1.934-4.502 1.017-8.667.493-12.458-2.257-.67-.307-1.341-.614-2.048-.938.974 5.104 4.541 8.712 9.421 9.604.518.095 1.023.264 1.534.398 5.484.209 10.423-1.584 15.161-4.12 6.587-5.077 9.289-13.347 6.807-20.879-.625.075-.288.82-.708 1.025"/>
    <path fill="#172044" d="M136.7359 115.96c10.02-6.018 19.962-12.166 31.495-15.053 11.367-2.846 22.894-4.829 33.964-6.607-24.79-2.839-47.251 3.009-65.459 21.66"/>
    <path fill="#4b6b94" d="M176.4758 133.1748c-3.784-.271-7.072.312-10.344-.453-1.418-.331-2.774-.113-3.648 1.277-1.288 2.051-.137 4.04 2.581 4.148 4.29.17 8.581.152 12.804-.88 4.978-1.217 9.973-2.364 14.954-3.569.627-.152 1.652.074 1.733-.785.082-.878-.908-1.142-1.584-1.459-2.385-1.118-5.008-1.368-7.53-1.979-1.555-.377-3.15-.596-4.729-.872-.916-.159-1.84-.284-2.648.357-.448.355-.993.339-1.504.478-.899.244-2.157-1.135-2.628.28-.35 1.049 1.064 1.53 1.64 2.302.175.235.361.464.903 1.155"/>
    <path fill="#587ca2" d="M101.1318 292.8698c-1.013 0-1.63-.059-2.23.016-.602.076-1.538-.411-1.669.639-.08.632.494 1.095.991 1.46.805.59 1.248-.031 1.691-.569.33-.4.642-.814 1.217-1.546"/>
    <path fill="#4f6284" d="M95.056 286.1963c-2.139-.947-3.858-1.186-5.619 0h5.619z"/>
    <path fill="#648cbc" d="M80.4589 303.0371c1.416-.354 2.77-.227 4.042.527-1.134-1.81-2.561-1.375-4.042-.527"/>
    <path fill="#475a7c" d="M120.479 318.7617c-.726.201-1.294.567-1.211 1.397.066.661.505 1.162 1.176 1.178.772.019 1.319-.48 1.332-1.254.014-.785-.555-1.183-1.297-1.321"/>
    <path fill="#384b70" d="M84.6021 327.049c-.062-.696-.489-1.055-1.205-1.021-.704.032-1.163.411-1.139 1.15.026.808.445 1.294 1.313 1.186.723-.09 1.036-.563 1.031-1.315"/>
    <path fill="#e6e5e8" d="M231.7843 159.9017c-2.034.741-2.135 2.296-1.699 4.065.091.37.258.782.685.786.237.003.675-.271.684-.44.071-1.237 1.213-1.133 1.893-1.596-1.485-.403-.538-2.156-1.563-2.815"/>
    <path fill="#dbdbdf" d="M141.1259 194.2378c-.212-.775.033-2.05-1.028-1.991-1.17.066-.926 1.348-.926 2.207.001.801-.118 2.044.939 1.99 1.135-.059.826-1.38 1.015-2.206"/>
  </g>
</svg>
