<svg xmlns="http://www.w3.org/2000/svg" width="400" height="318.52911">
  <defs>
    <clipPath id="a">
      <path d="M0 369.507h464.017V0H0v369.507z"/>
    </clipPath>
  </defs>
  <g clip-path="url(#a)" transform="matrix(0.86203813,0,0,-0.86203813,0,318.52912)">
    <path fill="#5a5758" d="M285.9677 366.7803h-107.918c-.752 0-1.363.611-1.363 1.363 0 .753.611 1.364 1.363 1.364h107.918c.754 0 1.365-.611 1.365-1.364 0-.752-.611-1.363-1.365-1.363"/>
    <path fill="#4f4c4d" d="M464.0166 44.0469c0-2.256-1.846-4.104-4.104-4.104H4.1036c-2.256 0-4.104 1.848-4.104 4.104v226.537c0 2.258 1.848 4.104 4.104 4.104h455.809c2.258 0 4.104-1.846 4.104-4.104v-12.168c0-2.256-1.846-4.119-4.104-4.137l-17.428-.14c-2.257-.02-4.104-1.881-4.104-4.139v-24.723c0-2.256 1.847-4.103 4.104-4.103h17.428c2.258 0 4.104-1.848 4.104-4.104V44.0469z"/>
    <path fill="#444141" d="M459.6406 278.518c0 3.612-2.955 6.566-6.568 6.566H10.9446c-3.612 0-6.566-2.954-6.566-6.566V36.113c0-3.611 2.954-6.566 6.566-6.566h392.022c1.301 0 2.373 1.109 2.381 2.464.01 1.354.885 2.464 1.945 2.464h22.346c1.069 0 1.945-1.11 1.94-2.464-.003-1.355 1.396-2.464 3.112-2.464h18.382c3.613 0 6.568 2.955 6.568 6.566v242.405z"/>
    <path fill="#444141" d="M337.3418 217.0967c0-3.161-2.585-5.745-5.744-5.745h-199.178c-3.159 0-5.746 2.584-5.746 5.745v145.416c0 3.161 2.587 5.746 5.746 5.746h199.178c3.159 0 5.744-2.585 5.744-5.746v-145.416z"/>
    <path fill="#4f4c4d" d="M328.588 259.367H135.431v102.195h193.157V259.367zM450.8261 43.7871c0-2.258-1.847-4.105-4.105-4.105H17.7061c-2.256 0-4.104 1.847-4.104 4.105v187.775c0 2.258 1.848 4.104 4.104 4.104h429.015c2.258 0 4.105-1.846 4.105-4.104V43.7871z"/>
    <path fill="#4f4c4d" d="M371.098 216.221H93.332v49.691h277.766v-49.691z"/>
    <path fill="#5a5758" d="M440.977 45.775H23.453V216.22h417.524V45.775z"/>
    <path fill="#4f4c4d" d="M151.495 62.59H31.387v20.654h120.108V62.59z"/>
    <path fill="#4f4c4d" d="M49.1592 72.9179c0-11.502-9.325-20.826-20.825-20.826-11.503 0-20.826 9.324-20.826 20.826 0 11.501 9.323 20.826 20.826 20.826 11.5 0 20.825-9.325 20.825-20.826"/>
    <path fill="#231f20" d="M28.334 87.5976c-8.095 0-14.68-6.586-14.68-14.68 0-8.093 6.585-14.679 14.68-14.679 8.094 0 14.679 6.586 14.679 14.679 0 8.094-6.585 14.68-14.679 14.68m0-30.102c-8.505 0-15.424 6.918-15.424 15.422 0 8.504 6.919 15.422 15.424 15.422 8.504 0 15.423-6.918 15.423-15.422 0-8.504-6.919-15.422-15.423-15.422"/>
    <path fill="#4f4c4d" d="M151.495 114.025H31.387v20.654h120.108v-20.654z"/>
    <path fill="#4f4c4d" d="M49.1592 124.3535c0-11.502-9.325-20.826-20.825-20.826-11.503 0-20.826 9.324-20.826 20.826 0 11.501 9.323 20.825 20.826 20.825 11.5 0 20.825-9.324 20.825-20.825"/>
    <path fill="#231f20" d="M28.334 139.0332c-8.095 0-14.68-6.586-14.68-14.68 0-8.093 6.585-14.679 14.68-14.679 8.094 0 14.679 6.586 14.679 14.679 0 8.094-6.585 14.68-14.679 14.68m0-30.103c-8.505 0-15.424 6.919-15.424 15.423 0 8.504 6.919 15.422 15.424 15.422 8.504 0 15.423-6.918 15.423-15.422 0-8.504-6.919-15.423-15.423-15.423"/>
    <path fill="#4f4c4d" d="M151.495 165.461H31.387v20.654h120.108v-20.654z"/>
    <path fill="#4f4c4d" d="M49.1592 175.789c0-11.502-9.325-20.827-20.825-20.827-11.503 0-20.826 9.325-20.826 20.827 0 11.5 9.323 20.825 20.826 20.825 11.5 0 20.825-9.325 20.825-20.825"/>
    <path fill="#231f20" d="M28.334 190.4668c-8.095 0-14.68-6.584-14.68-14.678 0-8.094 6.585-14.679 14.68-14.679 8.094 0 14.679 6.585 14.679 14.679 0 8.094-6.585 14.678-14.679 14.678m0-30.101c-8.505 0-15.424 6.919-15.424 15.423 0 8.504 6.919 15.422 15.424 15.422 8.504 0 15.423-6.918 15.423-15.422 0-8.504-6.919-15.423-15.423-15.423"/>
    <path fill="#4f4c4d" d="M312.613 62.59H432.72v20.654H312.613V62.59z"/>
    <path fill="#4f4c4d" d="M414.9492 72.9179c0-11.502 9.322-20.826 20.825-20.826 11.502 0 20.825 9.324 20.825 20.826 0 11.501-9.323 20.826-20.825 20.826-11.503 0-20.825-9.325-20.825-20.826"/>
    <path fill="#231f20" d="M435.7744 87.5976c-8.095 0-14.681-6.586-14.681-14.68 0-8.093 6.586-14.679 14.681-14.679 8.095 0 14.68 6.586 14.68 14.679 0 8.094-6.585 14.68-14.68 14.68m0-30.102c-8.505 0-15.425 6.918-15.425 15.422 0 8.504 6.92 15.422 15.425 15.422s15.424-6.918 15.424-15.422c0-8.504-6.919-15.422-15.424-15.422"/>
    <path fill="#4f4c4d" d="M312.613 114.025H432.72v20.654H312.613v-20.654z"/>
    <path fill="#4f4c4d" d="M414.9492 124.3535c0-11.502 9.322-20.826 20.825-20.826 11.502 0 20.825 9.324 20.825 20.826 0 11.501-9.323 20.825-20.825 20.825-11.503 0-20.825-9.324-20.825-20.825"/>
    <path fill="#231f20" d="M435.7744 139.0332c-8.095 0-14.681-6.586-14.681-14.68 0-8.093 6.586-14.679 14.681-14.679 8.095 0 14.68 6.586 14.68 14.679 0 8.094-6.585 14.68-14.68 14.68m0-30.103c-8.505 0-15.425 6.919-15.425 15.423 0 8.504 6.92 15.422 15.425 15.422s15.424-6.918 15.424-15.422c0-8.504-6.919-15.423-15.424-15.423"/>
    <path fill="#4f4c4d" d="M312.613 165.461H432.72v20.654H312.613v-20.654z"/>
    <path fill="#4f4c4d" d="M414.9492 175.789c0-11.502 9.322-20.827 20.825-20.827 11.502 0 20.825 9.325 20.825 20.827 0 11.5-9.323 20.825-20.825 20.825-11.503 0-20.825-9.325-20.825-20.825"/>
    <path fill="#231f20" d="M435.7744 190.4668c-8.095 0-14.681-6.584-14.681-14.678 0-8.094 6.586-14.679 14.681-14.679 8.095 0 14.68 6.585 14.68 14.679 0 8.094-6.585 14.678-14.68 14.678m0-30.101c-8.505 0-15.425 6.919-15.425 15.423 0 8.504 6.92 15.422 15.425 15.422s15.424-6.918 15.424-15.422c0-8.504-6.919-15.423-15.424-15.423"/>
    <path fill="#5a5758" d="M328.5879 4.9238c0-2.707-2.215-4.924-4.925-4.924h-183.308c-2.708 0-4.924 2.217-4.924 4.924v258.82c0 2.707 2.216 4.924 4.924 4.924h183.308c2.71 0 4.925-2.217 4.925-4.924V4.9238z"/>
    <path fill="#656263" d="M145.827 20.381h-6.156v225.58h6.156V20.381zm11.9 0h-6.156v225.58h6.156V20.381zm11.902 0h-6.156v225.58h6.156V20.381zm11.901 0h-6.155v225.58h6.155V20.381zm11.902 0h-6.155V170.76h6.155V20.381zm83.309 0h-6.155V170.76h6.155V20.381zm11.902 0h-6.157v225.58h6.157V20.381zm11.901 0h-6.155v225.58h6.155V20.381zm11.901 0h-6.156v225.58h6.156V20.381zm11.902 0h-6.155v225.58h6.155V20.381zm-62.748 0h-59.181V170.76h59.181V20.381z"/>
    <path fill="#4f4c4d" d="M180.8584 66.6416c0-7.866-6.379-14.243-14.245-14.243s-14.244 6.377-14.244 14.243c0 7.866 6.378 14.245 14.244 14.245s14.245-6.379 14.245-14.245"/>
    <path fill="#656263" d="M176.9111 66.6416c0-5.686-4.611-10.298-10.298-10.298-5.686 0-10.298 4.612-10.298 10.298 0 5.689 4.612 10.298 10.298 10.298 5.687 0 10.298-4.609 10.298-10.298"/>
    <path fill="#444141" d="M163.7734 61.7226l-2.84 4.92 2.84 4.919h5.681l2.84-4.919-2.84-4.92h-5.681z"/>
    <path fill="#4f4c4d" d="M180.8584 203.8262c0-7.866-6.379-14.244-14.245-14.244s-14.244 6.378-14.244 14.244c0 7.867 6.378 14.245 14.244 14.245s14.245-6.378 14.245-14.245"/>
    <path fill="#656263" d="M176.9111 203.8262c0-5.686-4.611-10.299-10.298-10.299-5.686 0-10.298 4.613-10.298 10.299 0 5.688 4.612 10.299 10.298 10.299 5.687 0 10.298-4.611 10.298-10.299"/>
    <path fill="#444141" d="M163.7734 198.9072l-2.84 4.921 2.84 4.918h5.681l2.84-4.918-2.84-4.921h-5.681z"/>
    <path fill="#4f4c4d" d="M311.7832 66.6416c0-7.866-6.377-14.243-14.243-14.243-7.867 0-14.244 6.377-14.244 14.243 0 7.866 6.377 14.245 14.244 14.245 7.866 0 14.243-6.379 14.243-14.245"/>
    <path fill="#656263" d="M307.8369 66.6416c0-5.686-4.61-10.298-10.297-10.298-5.688 0-10.299 4.612-10.299 10.298 0 5.689 4.611 10.298 10.299 10.298 5.687 0 10.297-4.609 10.297-10.298"/>
    <path fill="#444141" d="M294.7002 61.7226l-2.841 4.92 2.841 4.919h5.679l2.842-4.919-2.842-4.92h-5.679z"/>
    <path fill="#4f4c4d" d="M311.7832 203.8262c0-7.866-6.377-14.244-14.243-14.244-7.867 0-14.244 6.378-14.244 14.244 0 7.867 6.377 14.245 14.244 14.245 7.866 0 14.243-6.378 14.243-14.245"/>
    <path fill="#656263" d="M307.8369 203.8262c0-5.686-4.61-10.299-10.297-10.299-5.688 0-10.299 4.613-10.299 10.299 0 5.688 4.611 10.299 10.299 10.299 5.687 0 10.297-4.611 10.297-10.299"/>
    <path fill="#444141" d="M294.7002 198.9072l-2.841 4.921 2.841 4.918h5.679l2.842-4.918-2.842-4.921h-5.679z"/>
    <path fill="#0a93b2" d="M205.8203 72.5097l5.455 4.876c2.186-.009 4.371.001 6.556-.006 0-2.324-.001-4.649.003-6.974-1.576 0-3.148.002-4.72 0-.002-1.839.002-3.678-.002-5.515 2.587-.004 5.17-.008 7.757.002 0 .551.012 1.101.015 1.654 2.314-.004 4.628.006 6.942-.006-.012-1.34.002-2.679-.005-4.021.007-.151-.149-.24-.236-.344-1.67-1.598-3.306-3.239-4.994-4.818-3.703-.03-7.409-.002-11.116-.014l-5.649 4.982-.006 10.184zm32.8232 7.4874c-10.942-.008-21.883-.001-32.823-.003v7.482c10.437.002 20.876-.005 31.314.004-.004.696-.012 1.391.005 2.086 2.369-.006 4.736-.004 7.104 0 .025-1.271.007-2.543.012-3.814.024-.151-.057-.266-.163-.358l-5.449-5.397zm-32.8232 13.4443v7.481c10.949-.006 21.901.017 32.849-.01 1.885-1.789 3.707-3.65 5.572-5.459.004-1.326.001-2.649.001-3.975-2.361-.002-4.724-.004-7.086.002-.006.652-.003 1.307-.001 1.961-10.445.003-20.891 0-31.335 0m-.0003 17.3906h38.422v-7.48H205.82v7.48zm.002 7.3643c1.804 1.809 3.586 3.645 5.393 5.451h14.589c1.807-1.806 3.588-3.64 5.392-5.451.004-1.78.002-3.562.003-5.343h-7.281v3.238H213.1v-3.238h-7.28l.002 5.343zm-.002 7.9043v16.479h7.28v-8.998h23.862v8.998h7.28v-16.479H205.82zm-.0003 26.4904h38.422v-7.483h-38.422v7.483zm19.3274 8.6141c1.527 1.493 3.008 3.042 4.552 4.517 4.847.032 9.696.004 14.543.013v-7.582h-15.368v-3.741h-7.281v3.741h-8.493v-3.741h-7.28l.002 5.846 5.56 5.476c3.001.005 6.003-.002 9.004.002l4.761-4.531z"/>
    <path fill="#0a93b2" d="M220.38 141.064h7.281v-5.46h-7.281v5.46zm23.8553-68.6802l.007-10.183-5.454-4.877c-2.188.008-4.372-.002-6.56.006.002 2.324.003 4.65 0 6.973 1.574.004 3.148 0 4.721.004.001 1.837-.004 3.676.003 5.513l-9.074-.002c0-.416-.002-.833-.017-1.248-2.312 0-4.625-.007-6.939.004.009 1.205-.003 2.411.006 3.615-.015.129.112.208.183.296 1.645 1.589 3.282 3.185 4.925 4.776.081.087.181.121.301.104 4.084 0 8.168-.002 12.25 0l5.648-4.981zm14.5674 13.6767v-11.428c.007-.749-.233-1.522-.761-2.068-.35-.365-.848-.578-1.355-.559-2.264.002-4.527-.004-6.789.004-.817-.005-1.492.631-1.777 1.359-.232.524-.251 1.107-.24 1.671.003 3.673 0 7.348.002 11.021h2.022v-11.527h6.875v9h-2.427v-4.348h-2.021v6.875h6.471zm-8.8987 4.9545h2.428v8.595h-2.428v-8.595zm-2.021-2.528v11.027c-.01.927.376 1.946 1.222 2.414.455.269 1.001.201 1.508.209.636-.012 1.275.023 1.91-.017.77-.08 1.355-.718 1.618-1.409.303-.741.189-1.554.211-2.332l4.446 3.959.006-3.129c-1.483-1.324-2.962-2.648-4.452-3.966v-4.228h4.451v-2.528h-10.92zm10.9197 27.8059c-2.964-1.461-5.921-2.932-8.89-4.381v-1.148c2.969-1.448 5.926-2.92 8.89-4.381l-.001-2.93c-3.64 1.793-7.271 3.597-10.913 5.381v5.006c3.642 1.785 7.273 3.59 10.913 5.383l.001-2.93zm-10.9199 4.1446v12.842h2.021v-10.315h2.428v9h2.021v-9h4.45v-2.527h-10.92zm10.9131 29.1015l-.007-3.711c-1.256-1.344-2.58-2.629-3.855-3.955 1.275-1.326 2.599-2.611 3.855-3.955l.007-3.709-5.795 5.692c-1.711-1.721-3.396-3.469-5.112-5.187l-.003 3.723 3.366 3.436c-1.107 1.162-2.269 2.274-3.358 3.452l-.005 3.706c1.736-1.73 3.43-3.508 5.171-5.234l5.736 5.742zM214.0488 33.7519c-.032 0-.066.008-.096.023-3.134 1.521-4.754 3.295-4.681 5.129.059 1.509 1.293 2.936 3.563 4.123 2.157 1.127 5.198 2.022 8.796 2.586.118.02.231-.063.25-.183.02-.119-.062-.233-.183-.249-7.287-1.146-11.879-3.558-11.987-6.294-.063-1.621 1.51-3.299 4.434-4.715.109-.055.153-.186.101-.295-.038-.078-.116-.125-.197-.125m27.3252 11.2676h-.037c-2.315.381-4.761.635-7.264.756-.122.004-.215.107-.211.229.007.122.113.214.232.209 2.52-.12 4.982-.376 7.314-.758.12-.02.201-.133.183-.254-.019-.107-.113-.182-.217-.182m-6.9189-14.8291h-.403.22c.061 0 .122.128.183.128 11.762 0 21.042 3.121 21.164 7.05.042 1.376-1.062 2.804-3.194 4.065-2.125 1.261-5.169 2.348-8.803 3.121-.12.025-.195.149-.17.268.024.118.142.197.26.173 3.681-.781 6.772-1.869 8.936-3.152 2.28-1.351 3.459-2.88 3.409-4.424-.064-2.09-2.372-3.904-6.498-5.271-3.989-1.322-9.346-1.958-15.104-1.958"/>
    <path fill="#0a93b2" d="M238.4355 41.4492l5.8 4.423-6.812-2.72-1.916 1.993.61-2.761-5.8-4.423 6.813 2.72 1.914-1.994-.609 2.762z"/>
    <path fill="#0a93b2" d="M224.8017 43.7461l.457 2.451 1.708.274c.225.035.34-.092.293-.33l-.311-1.678c-.043-.237-.214-.408-.436-.446l-1.711-.271zm19.43-7.023l.465 2.507c.148.792 1 1.57 1.726 1.686l3.141.498c.527.084.896-.508.787-1.086l-.154-.806c-.108-.579-.699-1.194-1.226-1.277l-3.262-.519-.046-.292c-.062-.333.159-.592.464-.543l3.645.58-.246-1.325-4.111-.649c-.725-.116-1.331.432-1.183 1.226m-8.145 2.552l1.312.207-1.007-5.418-1.342-.213 1.006 5.418.031.006zm-8.729-6.642l-1.344-.213.654 3.519c.083.44-.052.582-.475.515l-2.341-.37-.768-4.129-1.343-.213 1.007 5.418.033.006 4.455.705c.673.108 1.04-.3.908-1.013l-.786-4.225zm-6.451.353l-.263-1.419-5.616-.889 1.749 9.418 4.639.734-.238-1.291-3.296-.522-.505-2.71 2.687.427-.241-1.291-2.685-.426-.505-2.709 4.274.678zm.193 1.032l-3.175-.504.12.644 2.563.408.625 3.355-2.565-.407.119.646 3.175.502-.862-4.644zm7.044-2.262l.019.113c.088-.008.204-.041.307-.025l2.639.413c-.098-.527-.794-.658-1.855-.826l-1.209-.191-.646-3.484 1.588.252c3.906.384 5.394 2.404 5.871 4.812l4.759.755.768 4.128.388.062c.424.067.362.145.28-.296l-.702-3.778 3.418.543.046.25c.258-.113.559-.154.88-.104l5.911.938.551 2.968-.384.273c.333.393.592.872.667 1.277l.093.469c.295 1.748-1.318 2.214-2.055 2.097l-3.394-.538c-.6-.097-1.262-.514-1.744-1.068-.445.44-1.131.612-1.53.55l-3.777-.6.423-.935 3.406.539c.491.079.818-.119.91-.506-.037-.103-.91-4.752-.91-4.752l-1.222-.194.655 3.52c.082.439-.05.582-.475.514l-2.341-.372-.768-4.129-1.343-.21.88 4.726-1.105 1.303-3.981-1.438 1.888.299.03.004-1.199-6.45c-.306-1.64-2.054-3.206-3.606-3.452l-1.585-.251.24 1.288 1.207.192c1.062.171 2.256 1.232 2.461 2.343l.133.699-3.146-.5c-.675-.107-1.041.303-.907 1.015l.563 3.034c.1.538.437.986.887 1.218l.007.081 1.577 1.213-.922-.156c-.488-.077-1.398-.445-1.976-1.18-.437.519-1.2.726-1.631.657l-3.388-.538.552 2.968 2.472.391c1.317.209 2.771 1.69 3.031 3.08l.37 1.998c.26 1.392-.718 2.486-2.033 2.277l-5.404-.857-1.151-6.194-4.974-.79c-.421-.066-.83-.48-.914-.926l-1.859-10c-.081-.444.192-.752.613-.684l9.492 1.506.768 4.129.388.061c.426.067.362.144.279-.297l-.701-3.777 3.42.543zm17.817 7.316l-.03-.156 2.541.404c.201.031.394.235.435.453.041.219-.087.371-.29.339l-.652-.102-1.04-.166-.263-.041c-.304-.05-.64-.397-.701-.731m-15.631-2.553l-.3-1.619c-.082-.441.051-.585.478-.517l2.461.391.527 2.838-2.462-.391c-.425-.067-.621-.26-.704-.702m.839-.59c.082.409.236.35.651.416l.386.061-.121-.646-.386-.061c-.416-.065-.598-.176-.53.23"/>
    <path fill="#0a93b2" d="M235.7265 42.5996l-.361 1.437-.205-.024-.066-.354c-.045-.246-.244-.447-.474-.483l-1.405-.224c-.232-.036-.365.111-.319.357l.708 3.808c.044.243.242.443.475.481l1.404.223c.231.038.363-.112.318-.356l-.091-.485 2.84.45.107.581c.272 1.464-.724 2.577-2.11 2.359l-2.716-.431c-1.384-.221-2.868-1.728-3.139-3.192l-.755-4.063c-.273-1.467.723-2.577 2.108-2.359l.908.146 2.773 2.129zm2.0127.8672c.073.199.124.275.163.48l.097.516-1.131-.179.871-.817z"/>
    <path fill="#444141" d="M186.3193 268.6679v-90.568c0-1.651 1.35-3 3-3h85.38c1.65 0 3 1.349 3 3v90.568h-91.38z"/>
    <path fill="#4f4c4d" d="M258.5478 216.666c0-3.299-2.7-6-6-6h-41.077c-3.3 0-6 2.701-6 6v58.588c0 3.3 2.7 6 6 6h41.077c3.3 0 6-2.7 6-6v-58.588z"/>
    <path fill="#444141" d="M209.7217 277.7837c-1.1 0-2-.9-2-2v-39.029c0-3.122 2.557-5.678 5.678-5.678h37.218c3.122 0 5.677 2.556 5.677 5.678v39.029c0 1.1-.9 2-2 2h-44.573z"/>
    <path fill="#231f20" d="M125.083 190.234h-55.38v4.26h55.38v-4.26zm0 7.924h-55.38v4.26h55.38v-4.26zm0 7.924h-55.38v4.26h55.38v-4.26zm213.94-15.848h55.38v4.26h-55.38v-4.26zm0 7.924h55.38v4.26h-55.38v-4.26zm0 7.924h55.38v4.26h-55.38v-4.26z"/>
    <path fill="#444141" d="M135.4306 320.041h41.645c2.878 0 5.21-2.047 5.21-4.925 0-2.878-2.332-4.925-5.21-4.925h-41.645"/>
    <path fill="#4f4c4d" d="M183.5586 361.5625v6.921c0 .49.532.888 1.021.888.49 0 1.022-.398 1.022-.888v-6.921m2.2665 0v6.921c0 .49.534.888 1.024.888s1.023-.398 1.023-.888v-6.921m2.2655 0v6.921c0 .49.534.888 1.022.888.49 0 1.024-.398 1.024-.888v-6.921m2.2656 0v6.921c0 .49.533.888 1.022.888.491 0 1.024-.398 1.024-.888v-6.921m2.2665 0v6.921c0 .49.532.888 1.022.888.489 0 1.023-.398 1.023-.888v-6.921m2.2655 0v6.921c0 .49.534.888 1.023.888.49 0 1.024-.398 1.024-.888v-6.921m2.2665 0v6.921c0 .49.532.888 1.022.888.489 0 1.022-.398 1.022-.888v-6.921m2.2665 0v6.921c0 .49.534.888 1.022.888.49 0 1.023-.398 1.023-.888v-6.921m2.2675 0v6.921c0 .49.532.888 1.022.888.491 0 1.023-.398 1.023-.888v-6.921m2.2656 0v6.921c0 .49.533.888 1.022.888.491 0 1.024-.398 1.024-.888v-6.921m2.2665 0v6.921c0 .49.534.888 1.023.888.489 0 1.022-.398 1.022-.888v-6.921m2.2665 0v6.921c0 .49.533.888 1.023.888.49 0 1.024-.398 1.024-.888v-6.921m2.2645 0v6.921c0 .49.532.888 1.023.888.49 0 1.022-.398 1.022-.888v-6.921m2.2685 0v6.921c0 .49.532.888 1.021.888.489 0 1.023-.398 1.023-.888v-6.921m2.2666 0v6.921c0 .49.533.888 1.022.888.49 0 1.022-.398 1.022-.888v-6.921m2.2665 0v6.921c0 .49.534.888 1.023.888.491 0 1.023-.398 1.023-.888v-6.921m2.2665 0v6.921c0 .49.535.888 1.023.888.49 0 1.022-.398 1.022-.888v-6.921m2.2675 0v6.921c0 .49.532.888 1.022.888.489 0 1.023-.398 1.023-.888v-6.921m2.2655 0v6.921c0 .49.534.888 1.024.888s1.023-.398 1.023-.888v-6.921m2.2655 0v6.921c0 .49.532.888 1.024.888.488 0 1.022-.398 1.022-.888v-6.921m2.2646 0v6.921c0 .49.535.888 1.024.888.49 0 1.023-.398 1.023-.888v-6.921m2.2665 0v6.921c0 .49.532.888 1.022.888.489 0 1.022-.398 1.022-.888v-6.921m2.2675 0v6.921c0 .49.533.888 1.022.888.49 0 1.024-.398 1.024-.888v-6.921"/>
    <path fill="#5a5758" d="M126.9482 236.7851c0-1.805-1.477-3.282-3.283-3.282H7.6602c-1.805 0-3.281 1.477-3.281 3.282v48.701c0 1.806 1.476 3.283 3.281 3.283h116.005c1.806 0 3.283-1.477 3.283-3.283v-48.701zm332.6914 0c0-1.805-1.478-3.282-3.283-3.282h-116.005c-1.805 0-3.281 1.477-3.281 3.282v48.701c0 1.806 1.476 3.283 3.281 3.283h116.005c1.805 0 3.283-1.477 3.283-3.283v-48.701z"/>
    <path fill="#5a5758" d="M126.9482 216.6855c0-1.806-1.477-3.283-3.283-3.283H7.6602c-1.805 0-3.281 1.477-3.281 3.283v48.701c0 1.805 1.476 3.282 3.281 3.282h116.005c1.806 0 3.283-1.477 3.283-3.282v-48.701z"/>
    <path fill="#4f4c4d" d="M117.4258 256.1582c-2.56 0-4.652 2.094-4.652 4.652v6.336h-94.036v-6.336c0-2.558-2.095-4.652-4.654-4.652h-7.148v-30.434h7.148c2.559 0 4.654-2.093 4.654-4.654v-6.145h94.036v6.145c0 2.561 2.092 4.654 4.652 4.654h6.966v30.434h-6.966z"/>
    <path fill="#4f4c4d" d="M17.0156 261.8183c0-2.146-1.741-3.889-3.89-3.889-2.147 0-3.887 1.743-3.887 3.889 0 2.147 1.74 3.89 3.887 3.89 2.149 0 3.89-1.743 3.89-3.89m0-41.7089c0-2.148-1.741-3.889-3.89-3.889-2.147 0-3.887 1.741-3.887 3.889 0 2.148 1.74 3.889 3.887 3.889 2.149 0 3.89-1.741 3.89-3.889m105.1543 41.7089c0-2.146-1.741-3.889-3.888-3.889-2.149 0-3.889 1.743-3.889 3.889 0 2.147 1.74 3.89 3.889 3.89 2.147 0 3.888-1.743 3.888-3.89m0-41.7089c0-2.148-1.741-3.889-3.888-3.889-2.149 0-3.889 1.741-3.889 3.889 0 2.148 1.74 3.889 3.889 3.889 2.147 0 3.888-1.741 3.888-3.889"/>
    <path fill="#5a5758" d="M459.6406 216.6855c0-1.806-1.479-3.283-3.284-3.283h-116.005c-1.805 0-3.282 1.477-3.282 3.283v48.701c0 1.805 1.477 3.282 3.282 3.282h116.005c1.805 0 3.284-1.477 3.284-3.282v-48.701z"/>
    <path fill="#4f4c4d" d="M450.1172 256.1582c-2.561 0-4.653 2.094-4.653 4.652v6.336h-94.037v-6.336c0-2.558-2.094-4.652-4.652-4.652h-7.149v-30.434h7.149c2.558 0 4.652-2.093 4.652-4.654v-6.145h94.037v6.145c0 2.561 2.092 4.654 4.653 4.654h6.966v30.434h-6.966z"/>
    <path fill="#4f4c4d" d="M349.706 261.8183c0-2.146-1.74-3.889-3.888-3.889-2.148 0-3.888 1.743-3.888 3.889 0 2.147 1.74 3.89 3.888 3.89 2.148 0 3.888-1.743 3.888-3.89m0-41.7089c0-2.148-1.74-3.889-3.888-3.889-2.148 0-3.888 1.741-3.888 3.889 0 2.148 1.74 3.889 3.888 3.889 2.148 0 3.888-1.741 3.888-3.889m105.1553 41.7089c0-2.146-1.742-3.889-3.89-3.889-2.147 0-3.887 1.743-3.887 3.889 0 2.147 1.74 3.89 3.887 3.89 2.148 0 3.89-1.743 3.89-3.89m0-41.7089c0-2.148-1.742-3.889-3.89-3.889-2.147 0-3.887 1.741-3.887 3.889 0 2.148 1.74 3.889 3.887 3.889 2.148 0 3.89-1.741 3.89-3.889"/>
    <path fill="#0c6737" d="M98.709 234.173H69.703v17.17h29.006v-17.17z"/>
    <path fill="#098846" d="M81.17 234.173h-9.435v17.17h9.435v-17.17z"/>
    <path fill="#0c6737" d="M73.77 234.173h-.985v17.17h.985v-17.17zm1.974 0h-.986v17.17h.986v-17.17zm1.972 0h-.986v17.17h.986v-17.17zm1.973 0h-.986v17.17h.986v-17.17zm1.973 0h-.986v17.17h.986v-17.17z"/>
    <path fill="#110f0d" d="M186.3193 257.584h12.702c1.447 0 2.618 1.312 2.618 2.758 0 1.448-1.171 2.759-2.618 2.759h-12.702v-5.517z"/>
  </g>
</svg>
