<svg xmlns="http://www.w3.org/2000/svg" width="400" height="428.8656">
  <defs>
    <clipPath id="a">
      <path d="M0 214.571h200.129V0H0v214.571z"/>
    </clipPath>
    <linearGradient id="b" x2="1" gradientTransform="matrix(0,-179.78844,179.78844,0,200.37662,221.22813)" gradientUnits="userSpaceOnUse">
      <stop offset="0" stop-color="#fff424"/>
      <stop offset=".1077829" stop-color="#fac308"/>
      <stop offset=".227423" stop-color="#fac308"/>
      <stop offset=".497416" stop-color="#f3812f"/>
      <stop offset=".636303" stop-color="#ee5233"/>
      <stop offset=".855615" stop-color="#ea2c35"/>
      <stop offset="1" stop-color="#ea2c35"/>
    </linearGradient>
    <clipPath id="c">
      <path d="M0 214.571h200.129V0H0v214.571z"/>
    </clipPath>
  </defs>
  <g clip-path="url(#a)" transform="matrix(1.9987118,0,0,-1.9987118,0,428.86559)">
    <path fill="#cac2b5" d="M154.5794 74.8154H44.7784c-1.559 0-2.835 1.276-2.835 2.835v9.003c0 1.559 1.276 2.835 2.835 2.835h109.801c1.559 0 2.835-1.276 2.835-2.835v-9.003c0-1.559-1.276-2.835-2.835-2.835"/>
    <path fill="#efede1" d="M181.2666 83.152H19.1526c-1.559 0-2.834 1.276-2.834 2.835v125.75c0 1.559 1.275 2.834 2.834 2.834h162.114c1.559 0 2.835-1.275 2.835-2.834V85.987c0-1.559-1.276-2.835-2.835-2.835"/>
    <path fill="#d8d5cb" d="M173.1577 95.2732h-145.81c-.779 0-1.417.638-1.417 1.417v104.343c0 .779.638 1.417 1.417 1.417h145.81c.78 0 1.417-.638 1.417-1.417V96.6902c0-.779-.637-1.417-1.417-1.417"/>
  </g>
  <path fill="url(#b)" d="M94.820888 41.44128c-15.581957 0-28.327743 12.74579-28.327743 28.327748V192.89967c0 15.57996 12.745786 28.32974 28.327743 28.32974H305.93483c15.57995 0 28.32774-12.74978 28.32774-28.32974V69.769028c0-15.581958-12.74779-28.327748-28.32774-28.327748H94.820888z"/>
  <g clip-path="url(#c)" transform="matrix(1.9987118,0,0,-1.9987118,0,428.86559)">
    <path fill="none" stroke="#4f4c4d" stroke-width=".25" stroke-miterlimit="10" d="M153.0653 103.8857H47.4403c-7.795 0-14.173 6.378-14.173 14.173v61.606c0 7.795 6.378 14.173 14.173 14.173h105.625c7.795 0 14.173-6.378 14.173-14.173v-61.606c0-7.795-6.378-14.173-14.173-14.173z"/>
    <path fill="#e4dccb" d="M141.4103 65.884h-83.463l4.526 8.931h74.458l4.479-8.931z"/>
    <path fill="#efede0" d="M159.509 57.463H41.944v8.421h117.565v-8.421z"/>
    <path fill="#e4dccb" d="M191.6249 0H8.5039c-4.677 0-8.504 3.827-8.504 8.504v40.455c0 4.677 3.827 8.504 8.504 8.504h183.121c4.677 0 8.504-3.827 8.504-8.504V8.504c0-4.677-3.827-8.504-8.504-8.504"/>
    <path fill="#c0ba9f" d="M14.1035 15.3564c-1.218 0-2.215.997-2.215 2.215v22.32c0 1.218.997 2.215 2.215 2.215s2.215-.997 2.215-2.215v-22.32c0-1.218-.997-2.215-2.215-2.215m8.1253 0c-1.218 0-2.215.997-2.215 2.215v22.32c0 1.218.997 2.215 2.215 2.215s2.215-.997 2.215-2.215v-22.32c0-1.218-.997-2.215-2.215-2.215m7.9759 0c-1.218 0-2.215.997-2.215 2.215v22.32c0 1.218.997 2.215 2.215 2.215s2.215-.997 2.215-2.215v-22.32c0-1.218-.997-2.215-2.215-2.215m8.1252 0c-1.218 0-2.215.997-2.215 2.215v22.32c0 1.218.997 2.215 2.215 2.215s2.215-.997 2.215-2.215v-22.32c0-1.218-.997-2.215-2.215-2.215m7.5975 0c-1.218 0-2.215.997-2.215 2.215v22.32c0 1.218.997 2.215 2.215 2.215s2.215-.997 2.215-2.215v-22.32c0-1.218-.997-2.215-2.215-2.215m8.1253 0c-1.218 0-2.215.997-2.215 2.215v22.32c0 1.218.997 2.215 2.215 2.215s2.215-.997 2.215-2.215v-22.32c0-1.218-.997-2.215-2.215-2.215"/>
    <path fill="#666870" d="M188.5454 8.1831H69.9584c-1.559 0-2.835 1.276-2.835 2.835v35.427c0 1.559 1.276 2.835 2.835 2.835h118.587c1.559 0 2.835-1.276 2.835-2.835v-35.427c0-1.559-1.276-2.835-2.835-2.835"/>
    <path fill="none" stroke="#4f4c4d" stroke-width=".5" stroke-miterlimit="10" d="M188.5454 8.1831H69.9584c-1.559 0-2.835 1.276-2.835 2.835v35.427c0 1.559 1.276 2.835 2.835 2.835h118.587c1.559 0 2.835-1.276 2.835-2.835v-35.427c0-1.559-1.276-2.835-2.835-2.835z"/>
    <path fill="#201d1d" d="M122.3736 25.8304h-48.415c-.78 0-1.417.638-1.417 1.417v2.968c0 .779.637 1.417 1.417 1.417h48.415c.78 0 1.417-.638 1.417-1.417v-2.968c0-.779-.637-1.417-1.417-1.417"/>
    <path fill="#201d1d" d="M101.253 22.204H88.199v13.054h13.054V22.204z"/>
    <path fill="#525458" d="M84.562 22.204h-4.636v13.054h4.636V22.204z"/>
    <path fill="#201d1d" d="M179.0843 25.8304h-48.415c-.78 0-1.417.638-1.417 1.417v2.968c0 .779.637 1.417 1.417 1.417h48.415c.78 0 1.417-.638 1.417-1.417v-2.968c0-.779-.637-1.417-1.417-1.417"/>
    <path fill="#525458" d="M186.9229 25.6823h-3.115c-.78 0-1.418.638-1.418 1.417v3.116c0 .779.638 1.417 1.418 1.417h3.115c.78 0 1.417-.638 1.417-1.417v-3.116c0-.779-.637-1.417-1.417-1.417"/>
    <path fill="#201d1d" d="M185.3652 31.7064h1.558c.779 0 1.417-.638 1.417-1.417v-3.116c0-.779-.638-1.417-1.417-1.417l-1.558-.074"/>
    <path fill="#cac2b5" d="M188.34 10.638h-5.95v5.95h5.95v-5.95z"/>
    <path fill="#2c9d40" d="M187.76 11.323h-1.815v1.815h1.815v-1.815z"/>
    <path fill="#13110f" d="M132.3629 179.347c-.061-.746-.13-1.491-.196-2.237-.048-.543-.102-1.085-.141-1.629-.01-.147-.048-.198-.205-.194-.478.013-.956.002-1.433.007-.092.001-.131-.024-.157-.117-.175-.645-.369-1.285-.533-1.932-.046-.179-.016-.377-.021-.567 0-.785-.001-1.57 0-2.355 0-.083-.051-.085-.111-.085-.319.001-.637.002-.956-.001-.076 0-.112.021-.104.106.07.797.137 1.593.205 2.39.021.246.043.491.061.737.002.041.013.104-.04.119-.053.014-.076-.044-.098-.081-.218-.369-.434-.739-.651-1.109-.121-.222-.239-.445-.365-.664-.311-.54-.625-1.078-.937-1.617-.46-.794-.92-1.588-1.381-2.382-.341-.588-.686-1.175-1.025-1.764-.001-.002-.003-.004-.004-.006-.026-.037-.132-.166-.147-.179-.28-.381-.917-.246-1.352-.197-.22.025-.482.014-.691.091-.191.071-.292.215-.358.386-.001 0-.001.001-.002.002 0 .001-.001.003-.002.004-.007.007-.011.016-.012.027 0 .001 0 .002-.001.002-.026.068-.074.211-.1.291-.008.025-.014.044-.017.052-.234.795-.464 1.592-.702 2.387-.038.128.003.146.118.146.437 0 .44.002.439.439-.002.981-.004 1.962-.013 2.943-.002.143.04.184.181.179.323-.01.646-.007.97 0 .112.002.163-.034.188-.145.144-.628.333-1.245.482-1.873.081-.34.181-.681.285-1.018.02-.065.038-.14.114-.149.085-.011.119.065.154.128.518.953 1.036 1.905 1.556 2.856.029.054.066.102.099.152.864 1.587 1.728 3.172 2.591 4.761.049.09.106.127.215.126.522-.007 1.045-.002 1.569-.005.089 0 .128.018.159.114.24.74.493 1.475.735 2.213.034.103.074.128.184.116.381-.044.766-.071 1.148-.108.219-.022.32-.137.302-.36m-.391-4.376c-.077-.857-.154-1.714-.23-2.57-.04-.463-.078-.926-.121-1.388-.036-.401-.079-.802-.116-1.203-.061-.673-.118-1.346-.179-2.019-.022-.255-.054-.509-.074-.763 0 0-.073-1.676-.136-2.014-.061-.338-.358-.306-.358-.306s-2.19.197-2.466.275c-.275.078-.227.327-.227.327l.142 1.531c.062.663.116 1.326.171 1.99.026.325.054.649.073.975.009.152.04.239.23.228.337-.02.677-.001 1.016-.01.131-.004.175.029.174.169-.008.75-.005 1.499-.005 2.248 0 .051.012.101.018.152-.073.589.177 1.12.309 1.673.055.237.135.469.192.705.021.087.052.12.142.119.456-.006.912-.011 1.368-.007.103.001.083-.052.077-.112m-11.278-5.504c-.277.991-.576 1.975-.865 2.962-.015.049-.022.099-.033.149-.219.749-.438 1.497-.659 2.246-.014.052-.022.132-.088.124-.061-.006-.056-.086-.064-.139-.11-.768-.219-1.536-.328-2.304-.07-.528-.138-1.054-.209-1.582-.046-.34-.099-.678-.14-1.019-.012-.096-.046-.132-.144-.131-.364.004-.728.001-1.093.003-.039 0-.086.005-.115.027-.314.238-.675.244-1.041.218-.156-.012-.206.018-.177.198.129.777.238 1.557.355 2.336.162 1.1.325 2.199.486 3.298.033.216.067.433.091.652.01.088.056.091.124.091.379.001.758.008 1.137.004.097-.001.133.033.158.12.1.332.211.662.309.995.029.097.074.124.172.124.867-.005 1.734-.005 2.602 0 .095 0 .132-.03.157-.121.43-1.614.86-3.229 1.298-4.842.036-.131-.002-.141-.113-.14-.391.005-.781.002-1.171.002-.064.001-.129.007-.115-.09.003-.821.004-1.642.006-2.463.001-.272-.007-.544.002-.817.004-.134-.03-.171-.175-.183-.231-.02-.307.07-.367.282m-2.454-.038c-.053-.334-.106-.667-.147-1.003-.013-.104-.039-.153-.119-.132-.685.081-1.34.158-1.995.235-.015.002-.03.009-.045.011-.14.016-.335-.023-.403.076-.059.084.016.261.034.398.032.231.067.461.097.691.013.093.051.136.151.125.117-.012.236-.022.353-.016.221.012.425-.019.609-.154.11-.082.239-.102.378-.098.323.009.647.001.97.006.106 0 .133-.039.117-.139m-.206-1.439c-.092-.635-.174-1.244-.269-1.849-.029-.179-.162-.282-.343-.267-.663.054-1.324.117-1.986.182-.187.018-.286.161-.259.346.09.602.18 1.203.267 1.805.016.116.044.17.187.151.771-.101 1.543-.191 2.316-.28.086-.01.112-.037.087-.088m-3.273 8.275c-.003-.019-.007-.039-.009-.057-.007-.04-.013-.079-.02-.118-.009-.055-.018-.109-.027-.163-.013-.073-.025-.148-.038-.222-.007-.043-.015-.087-.021-.131-.01-.056-.019-.112-.029-.168-.017-.106-.059-.117-.147-.116-.303.005-.606 0-.908.003-.134.002-.161-.047-.137-.179.037-.218.083-.451-.164-.599-.081-.05-.102-.129-.1-.225.005-.241 0-.483-.002-.724.042-.374-.006-.747.001-1.122.001-.125.031-.17.163-.164.215.012.431-.001.647.005.102.003.118-.032.102-.127-.104-.589-.204-1.178-.303-1.768-.015-.085-.045-.155-.12-.204-.055-.036-.112-.074-.157-.123-.272-.292-.596-.403-.999-.36-.327.036-.762-.409-.764-.732 0-.169-.004-.338 0-.506 0-.075-.033-.109-.1-.133-.553-.203-1.106-.407-1.658-.613-.075-.029-.121-.019-.164.053-.249.425-.499.849-.752 1.271-.042.069-.058.138-.057.217.015.889.004 1.775-.24 2.64-.024.084.02.129.078.178.375.31.75.621 1.116.941.104.09.144.079.208-.038.329-.601.662-1.199.998-1.796.033-.059.048-.155.141-.147.118.009.094.114.105.191.101.741.201 1.482.302 2.224 0 .002.001.003.001.004.017.127.453 3.209.545 3.93.004.03.007.06.011.09.011.098.046.129.144.126.205-.007.411.006.616-.004.139-.009.233.049.345.123.209.137.275.308.257.551-.022.281.005.565-.009.847-.011.224.011.418.207.57.107.082.029.223.048.336.013.084-.045.204.03.25.276.164.216.422.216.667 0 .333 0 .332.323.395.282.055.562.113.843.171.27.057.36-.024.316-.291-.005-.03-.01-.061-.016-.092-.005-.035-.011-.07-.017-.105-.003-.019-.007-.039-.01-.059-.007-.043-.014-.086-.022-.129-.123-.74-.246-1.481-.373-2.221-.132-.783-.268-1.565-.4-2.347m-.216-1.279c-.083-.463-.163-.927-.245-1.389-.053-.348-.106-.695-.159-1.043-.011-.069-.062-.071-.116-.071-.184.001-.369.001-.553-.001-.064-.001-.107.01-.105.091.005.26.007.521.009.782v.154c0 .158.007.318-.002.477-.013.215 0 .401.208.542.14.095.06.276.064.418.003.105.025.141.136.136.225-.009.451-.006.677-.003.074.002.1-.015.086-.093m-1.225-7.173c-.054-.314-.106-.626-.163-.937 0 0 0-.004-.001-.009-.004-.042-.022-.233-.064-.592-.046-.41-.284-.403-.284-.403s-1.299-.266-1.532-.318c-.233-.052-.343.208-.343.208l-.403.798-.001.001c-.013.017-.022.041-.031.062l-.02.041c-.148.24-.286.487-.435.726-.05.08-.036.105.05.137.567.207 1.131.423 1.7.627.106.038.149.088.141.198-.008.108.01.218-.005.324-.048.319.037.563.342.722.103.054.191.111.311.096.352-.044.668.02.916.301.042.048.103.081.19.149-.128-.741-.248-1.436-.368-2.131m-4.691 4.539c-.092.344-.292.637-.469.94-.565.799-1.364 1.199-2.307 1.353-.105.017-.171.062-.225.155-.376.64-.757 1.277-1.14 1.912-.057.097-.069.133.068.129.24-.009.482.003.723-.006.106-.003.132.034.13.132-.004.338 0 .676-.005 1.015-.001.09.018.127.117.12.158-.009.319.007.477-.005.195-.014.359.005.453.21.051.109.164.047.25.065.32.066.482-.083.632-.362.603-1.117 1.235-2.219 1.856-3.326.19-.34.379-.681.569-1.022l.164-.254c.057-.084.026-.158-.085-.245-.353-.278-.697-.568-1.039-.86-.099-.085-.137-.072-.169.049m-1.115-5.643c-.021-.128-.095-.191-.226-.175-.722.088-1.447.17-2.168.272-.253.036-.15.226-.111.374.164.792.345 1.58.425 2.387.034.357.068.714.023 1.073-.028.223-.087.431-.233.607-.428.273-.799.142-.958-.347-.152-.466-.149-.953-.161-1.434-.026-.934-.008-1.869.063-2.802.011-.161-.053-.227-.211-.224-.689.015-1.377.028-2.064.039-.188.004-.262.095-.228.278.034 1.159.038 2.318.023 3.478-.002.21-.031.417-.084.621-.158.602-.538.717-.991.303-.121-.531-.079-1.071-.095-1.607-.026-.893-.043-1.786-.057-2.679-.003-.182-.073-.263-.254-.266-.657-.008-1.314-.023-1.971-.031-.222-.004-.269.064-.245.332-.004.234-.008.468-.011.703.019.168.019.337 0 .506v.203c-.005.184-.014.367-.014.552-.003.845-.002 1.691-.003 2.536-.021.611-.038 1.221-.066 1.832-.01.21.064.298.279.299.575.005 1.149.019 1.724.038.185.007.281-.057.289-.248.005-.112.024-.224.045-.334.037-.192.134-.167.24-.056.247.26.536.451.89.517.621.117 1.164-.015 1.567-.536.109-.141.201-.138.326-.018.593.564 1.295.757 2.106.646.344-.048.684-.086 1.003-.227.549-.242.901-.667 1.121-1.214.046-.117.118-.225.117-.357.154-.353.183-.733.213-1.108.107-1.327-.078-2.632-.303-3.933m-3.452 10.709c-.257.483-.553.945-.831 1.417-.123.207-.073.328.158.377.871.183 1.742.366 2.614.543.19.038.352-.038.45-.2.177-.294.337-.597.507-.894.043-.075.043-.107-.056-.101-.092.006-.186-.01-.277.004-.172.025-.298-.025-.374-.185-.034-.074-.096-.08-.166-.079-.216.001-.432 0-.647 0-.232 0-.264-.064-.246-.299.023-.296.009-.594.014-.892 0-.068-.035-.073-.087-.072-.124.003-.246.001-.433.001-.295-.106-.469.086-.626.38m8.304.8c.114.791.221 1.583.328 2.375.038.285.15.417.434.478.235.051.473.094.708.146.074.016.098.001.095-.078-.006-.143-.01-.288 0-.431.007-.099-.021-.172-.103-.22-.129-.078-.172-.189-.152-.335.032-.215-.007-.407-.198-.542-.056-.039-.047-.096-.047-.153 0-.421-.001-.842-.001-1.263 0-.188-.217-.403-.409-.405h-.293c-.433-.001-.425-.002-.362.428m4.369-1.293c.198 1.312.39 2.625.59 3.938.032.207.175.309.387.288.659-.065 1.317-.133 1.975-.199.143-.015.285-.033.428-.045.23-.02.383-.136.444-.359.218-.8.432-1.601.652-2.399.028-.099.014-.119-.088-.118-.458.005-.915.002-1.372.002-.432 0-.864-.007-1.295.004-.137.004-.182-.046-.216-.167-.093-.32-.206-.636-.301-.957-.027-.092-.069-.116-.161-.114-.308.006-.616.005-.925 0-.097-.002-.134.019-.118.126m12.651 2.749c.097.171.271.244.472.229.194-.014.388-.035.582-.046.092-.005.13-.026.095-.128-.233-.685-.464-1.372-.69-2.06-.023-.07-.049-.099-.126-.099-.486.002-.974.001-1.487.001.392.717.766 1.414 1.154 2.103m-32.245-10.508c-.042-.79-.169-1.571-.289-2.353-.035-.226-.129-.307-.357-.275-.671.091-1.344.167-2.015.255-.215.027-.15.447-.137.511.214.986.435 1.971.446 2.987.001.206-.014.409-.071.606-.055.193-.148.359-.334.456-.448.093-.687-.05-.819-.494-.096-.322-.124-.657-.132-.989-.023-1.057-.043-2.116.05-3.171.017-.183-.042-.265-.238-.26-.676.019-1.354.027-2.032.042-.12.003-.247.011-.226.189.008.609.023 1.218.024 1.828.002.711.046 1.424-.049 2.133-.016.119-.05.238-.088.353-.134.398-.4.511-.777.333-.193-.163-.24-.381-.245-.62-.021-1.256-.047-2.512-.073-3.769-.005-.272-.051-.316-.329-.321-.584-.01-1.169-.02-1.753-.03-.412-.006-.406.606-.406.684-.003 1.699.019 3.399-.037 5.097-.01.298-.02.596-.041.892-.014.196.054.286.256.289.58.007 1.161.018 1.741.039.206.007.286-.088.3-.276.008-.097.019-.194.033-.29.009-.061.018-.13.084-.153.07-.024.115.033.157.077.241.256.525.451.875.513.623.11 1.184.008 1.592-.534.087-.116.179-.152.293-.039.786.78 1.736.821 2.736.584 1.078-.256 1.622-1.176 1.755-2.201.02-.156.045-.312.068-.467.089-.541.067-1.084.038-1.626m-11.098-2.774c-.605-.012-1.211-.021-1.815-.041-.212-.008-.331.052-.302.285.003.025.003.051-.002.076-.017.087.013.204-.09.246-.095.037-.158-.055-.224-.107-.725-.571-1.544-.602-2.399-.42-.634.134-1.17.434-1.571.954-.033.044-.057.094-.085.142-.306.433-.435.932-.492 1.447-.107.986.013 1.967.105 2.947.045.478.112.956.167 1.433.016.144.099.21.236.211.734.009 1.468.021 2.202.022.279.001.193-.198.171-.355-.132-.907-.261-1.815-.307-2.732-.017-.332-.015-.666-.023-.998v-.001c0-.061.08-.443.182-.579l.012-.015c.309-.341.744-.447 1.191-.285.418.152.704.526.713.968.021 1.099-.033 2.195-.104 3.292-.017.245-.03.491-.046.736-.01.142.061.216.196.219.724.016 1.447.028 2.17.041.114.001.17-.064.179-.171.008-.097.005-.194.007-.292.022-.605.045-1.209.068-1.814.061-1.626.123-3.25.183-4.876.011-.29-.032-.327-.322-.333m-11.955 3.451c.001-.005.002-.012.004-.018.031-.111.186-.537.312-.696.004-.005.009-.011.014-.016.61-.687 1.451-.468 1.956.245.219.31.209.316.59.213.371-.1.743-.194 1.111-.298.356-.101.371-.137.243-.484-.277-1.177-1.419-2.162-2.663-2.274-1.039-.094-2.013.084-2.847.766-.096.079-.199.156-.264.264-.077.084-.138.157-.141.174-.432.516-.648 1.127-.731 1.782-.117.935-.037 1.85.414 2.696.54 1.014 1.428 1.504 2.543 1.63.496.056.99.047 1.476-.071.895-.217 1.578-.708 1.99-1.547.161-.219.233-.475.31-.728.042-.136-.006-.229-.152-.266-.512-.127-1.025-.255-1.536-.383-.17-.043-.237.06-.303.189-.257.503-.685.726-1.235.695-.506-.028-.825-.333-1.008-.784-.144-.351-.155-.719-.083-1.089m-4.489-2.815c-1.411-.849-3.627-.747-4.943.24-.274.206-.529.437-.74.71-.032.033-.068.063-.097.098-.227.271-.227.314-.007.591.257.326.519.649.773.976.103.132.189.13.309.016.512-.489 1.118-.832 1.79-1.037.245-.074.519-.109.789-.057.39.076.568.445.375.794-.087.155-.221.268-.348.387-.805.561-1.712.972-2.438 1.651-.089.082-.19.155-.247.268-.569.58-.823 1.28-.783 2.089.069 1.409 1.08 2.276 2.379 2.492 1.285.213 2.477-.047 3.554-.792.011-.007.024-.017.038-.027.137-.095.275-.192.39-.314v-.001c.047-.039.093-.079.137-.116 0-.001.002-.003.004-.004 0-.001.001-.001.001-.001.093-.054.165-.135.236-.214.004-.004.008-.007.01-.011.075-.08.056-.172.002-.256-.239-.371-.481-.74-.72-1.111-.101-.154-.207-.109-.322-.016-.494.402-1.035.721-1.648.909-.136.042-.279.068-.421.087-.382.05-.567-.08-.657-.448.02-.215.137-.372.301-.499.331-.257.708-.436 1.071-.634.429-.234.856-.471 1.236-.779.551-.445.99-.974 1.19-1.668.047-.165.068-.338.101-.508.161-1.118-.259-2.177-1.315-2.815m63.819 12.709c-.207.635-.627 1-1.306 1.053-.704.056-1.409.114-2.113.186-.649.065-1.269-.242-1.582-.813-1.038-1.892-2.072-3.785-3.111-5.677-.398-.726-.801-1.448-1.202-2.172-.025-.076-.049-.192-.123-.19-.065.003-.058.126-.078.197-.755 2.797-1.511 5.595-2.265 8.392-.012.044-.018.09-.026.135-.243.694-.721 1.08-1.462 1.144-.665.057-1.327.128-1.989.205-.499.057-.985.075-1.402-.274-.091-.077-.073.039-.083.063-.222.511-.711.763-1.251.653-.893-.182-1.787-.361-2.681-.535-.725-.142-1.018-.464-1.098-1.174-.063-.565-.152-1.127-.23-1.69-.169-1.229-.337-2.457-.506-3.685-.06-.44-.122-.879-.188-1.358-.051.088-.081.139-.111.192-1.113 1.975-2.226 3.95-3.34 5.925-.241.427-.686.663-1.113.576-1.104-.222-2.207-.447-3.307-.685-.793-.171-1.124-.959-.711-1.655.739-1.245 1.475-2.492 2.218-3.735.071-.117.05-.144-.072-.167-.302-.057-.601-.129-.882-.257-.172-.077-.329-.067-.504-.003-.425.154-.869.328-1.316.24-.514-.103-.987-.036-1.489.063-.599.117-1.218.01-1.828-.004-.487-.011-.943-.133-1.268-.549-.108-.138-.248-.103-.388-.025-1.255.711-2.556.815-3.899.275-.168-.068-.319-.064-.489-.004-.45.161-.916.337-1.393.239-.463-.096-.896-.105-1.334.068-.027.01-.06.012-.09.014-.714.033-1.427.017-2.137-.053-.183-.019-.356-.036-.512.086-.222.175-.487.255-.758.27-.717.042-1.437.006-2.154-.027-.365-.016-.711-.098-.998-.344-.128-.109-.261-.12-.415-.059-.215.085-.439.153-.67.154-.735.005-1.47.019-2.203-.031-.415-.028-.792-.159-1.068-.5-.2-.246-.279-.257-.536-.059-.79.607-1.712.837-2.677.86-1.063.025-2.075-.217-2.969-.832-.003-.005-.004-.012-.007-.014-.124-.085-.257-.254-.394-.172-.112.067-.014.257.018.384.051.211.024.416-.012.622-.077.329-.278.578-.524.796-1.664 1.476-3.567 2.027-5.743 1.44-1.936-.522-3.008-2.319-2.71-4.246.118-.761.445-1.421.915-2.02.129-.164.123-.292-.024-.455-.388-.431-.752-.884-1.077-1.364-.213-.315-.272-.671-.196-1.058.068-.339.279-.588.463-.857.332-.342.672-.672 1.056-.96.749-.561 1.617-.79 2.518-.917 1.006-.142 1.986.024 2.933.369.642.233 1.185.629 1.646 1.134.136.148.273.186.415.021.704-.813 1.604-1.258 2.651-1.437 1.555-.265 2.947.042 4.105 1.169.14.135.287.204.432.022.612-.762 1.422-1.165 2.369-1.343.619-.116 1.232-.149 1.842.03.219.065.433.072.649-.004.403-.144.82-.103 1.235-.093.538.013 1.096-.071 1.605.108.485.17.956.102 1.437.108.61.007 1.225-.037 1.829.068.324.056.622.101.937-.053.229-.112.496-.125.754-.131.529-.015 1.057-.024 1.586-.035.398-.009.775.063 1.119.276.264.165.542.045.811.018.53-.054 1.058-.136 1.588-.192.222-.023.44.042.647.119.182.066.358.079.541.02.288-.093.584-.099.883-.091.748.021 1.5-.049 2.236.15.097.026.193-.004.284-.047.312-.147.644-.207.984-.218.539-.017 1.078-.026 1.618-.035.387-.007.755.065 1.088.273.265.166.543.049.812.022.53-.054 1.057-.169 1.588-.185.654-.019 1.273.242 1.434 1.221.039.236.086.47.137.75.136-.239.251-.442.367-.644.031-.047.062-.093.091-.14.363-.586.68-1.201 1.078-1.766.106-.059.208-.125.318-.177.275-.128.559-.088.844-.032.513.102 1.024.216 1.541.292.615.091.993.406 1.096 1.084.082-.274.211-.464.361-.642.021-.021.041-.042.062-.064.482-.388 1.073-.327 1.631-.389.428-.048.859-.087 1.29-.097.712-.015 1.297.518 1.392 1.223.172 1.275.351 2.549.528 3.824.004.027.018.054.041.118.116-.392.22-.748.325-1.105.229-.79.444-1.584.69-2.369.194-.615.254-1.29.73-1.793.586-.501 1.325-.411 2.014-.519.424-.066.828-.026 1.201.202.237.144.424.336.563.578.744 1.293 1.49 2.586 2.236 3.878.021.036.043.069.11.098-.044-.476-.09-.952-.135-1.428-.048-.591-.083-1.184-.15-1.774-.07-.627-.091-1.231.422-1.71.51-.415 1.14-.346 1.732-.425.452-.06.909-.084 1.361-.147.844-.117 1.554.464 1.623 1.312.108 1.324.238 2.645.357 3.969.107 1.205.21 2.411.318 3.617.119 1.328.241 2.655.36 3.983.088.991.174 1.983.255 2.975.012.146-.013.295-.021.442"/>
    <path fill="#6e6f71" d="M108.7874 167.3632c-.051-.28-.098-.514-.137-.75-.161-.979-.781-1.24-1.434-1.221-.531.016-1.059.131-1.589.184-.269.028-.547.145-.811-.021-.334-.209-.702-.28-1.089-.273-.539.009-1.078.018-1.617.035-.341.011-.673.071-.984.218-.092.043-.187.073-.284.047-.736-.199-1.489-.129-2.236-.15-.299-.008-.595-.002-.883.091-.183.058-.36.046-.542-.021-.207-.076-.424-.142-.646-.118-.531.056-1.058.138-1.588.192-.269.027-.548.147-.812-.018-.344-.213-.721-.285-1.118-.276-.53.01-1.058.019-1.587.034-.257.007-.525.02-.753.132-.316.154-.613.109-.938.053-.604-.105-1.218-.061-1.829-.068-.48-.006-.952.062-1.436-.108-.509-.18-1.067-.095-1.606-.108-.415-.01-.831-.051-1.235.093-.216.076-.429.069-.648.004-.611-.179-1.223-.146-1.843-.03-.946.178-1.756.581-2.368 1.343-.146.182-.293.113-.432-.022-1.158-1.127-2.55-1.434-4.105-1.169-1.048.179-1.948.624-2.651 1.437-.142.164-.279.127-.416-.022-.461-.504-1.003-.9-1.646-1.133-.947-.345-1.926-.511-2.933-.369-.9.127-1.768.356-2.517.917-.384.288-.725.618-1.057.96.013-.119.086-.208.153-.297.793-1.062 1.797-1.805 3.122-2.065 1.992-.391 3.802-.107 5.281 1.413.159.162.288.097.416-.044.602-.667 1.333-1.107 2.212-1.318 1.708-.409 3.239-.146 4.538 1.104.172.165.285.145.451-.046 1.019-1.176 2.345-1.509 3.825-1.332.431.052.832.1 1.269.004.588-.128 1.197-.023 1.797-.023.42 0 .829.056 1.218.224.086.038.179.028.273.02.954-.074 1.906-.094 2.851.087.142.028.273.028.406-.035.248-.117.514-.183.787-.195.513-.02 1.027-.023 1.54-.046.492-.023.964.02 1.391.295.098.063.214.067.329.052.433-.056.867-.104 1.299-.167.516-.074 1.029-.139 1.53.082.076.034.165.031.244.005.535-.176 1.087-.128 1.635-.117.43.009.866-.026 1.289.076.278.066.538.099.804-.048.113-.062.254-.08.386-.101.586-.095 1.179-.036 1.768-.075.496-.033.974.014 1.406.294.107.069.234.062.36.046.652-.081 1.304-.17 1.957-.236.692-.07 1.245.332 1.406 1.002.074.309.129.622.193.933-.115.203-.231.406-.366.645m24.63 12.374c.009-.148.034-.296.021-.443-.08-.991-.167-1.983-.255-2.974-.119-1.328-.241-2.655-.36-3.983-.107-1.206-.21-2.412-.318-3.618-.118-1.323-.249-2.644-.357-3.968-.069-.848-.779-1.429-1.623-1.312-.452.063-.908.087-1.36.146-.592.079-1.223.01-1.733.426.111-.489.631-.891 1.206-.948.68-.066 1.36-.127 2.037-.213.555-.072 1.062-.027 1.474.411.318.337.356.757.393 1.185.134 1.549.271 3.098.409 4.647.14 1.559.282 3.117.422 4.676.142 1.585.281 3.17.425 4.755.041.459-.029.879-.381 1.213m-6.232-10.912c-.745-1.293-1.491-2.585-2.235-3.878-.139-.242-.327-.434-.564-.578-.373-.228-.776-.269-1.201-.202-.688.108-1.427.017-2.014.519.193-.522.566-.864 1.103-.97.476-.096.966-.113 1.45-.176.621-.082 1.263.227 1.578.773.404.702.804 1.406 1.214 2.105.212.36.395.739.645 1.077.044.476.09.952.135 1.428-.067-.029-.09-.062-.111-.098m-7.759 1.128c-.022-.064-.036-.091-.041-.118-.177-1.275-.356-2.549-.528-3.824-.095-.705-.679-1.239-1.392-1.223-.43.009-.861.048-1.289.097-.558.062-1.15.001-1.631.389.087-.448.599-.872 1.116-.919.659-.061 1.317-.12 1.976-.178.851-.075 1.479.443 1.591 1.289.147 1.097.305 2.193.459 3.289.006.04-.013.102.065.093-.105.356-.21.713-.326 1.105m-5.304-3.973c-.103-.679-.481-.993-1.096-1.084-.517-.076-1.029-.19-1.541-.292-.286-.057-.569-.096-.845.032-.11.052-.212.118-.317.177.035-.068.067-.137.106-.203.342-.586.684-.745 1.355-.624.539.098 1.076.204 1.614.305.696.129.934.358 1.084 1.047-.149.178-.279.368-.36.642m9.939 6.482c-.694 2.569-1.387 5.139-2.08 7.708-.069.256-.168.495-.37.678.009-.045.014-.091.026-.135.754-2.797 1.51-5.595 2.266-8.392.019-.071.012-.195.078-.197.073-.002.097.114.122.19-.014.049-.029.098-.042.148m-52.147 2.527c.035-.205.063-.41.011-.621-.031-.128-.129-.317-.018-.384.138-.083.271.087.395.172.003.002.004.009.006.014-.051.311-.138.606-.394.819"/>
    <path fill="#88ce26" d="M69.5992 167.0285c-1.411-.85-3.627-.748-4.943.239-.275.206-.529.437-.74.71-.032.034-.068.063-.097.098-.227.272-.228.314-.008.592.258.325.52.648.774.976.103.132.189.129.309.015.512-.489 1.118-.832 1.79-1.036.245-.075.519-.11.789-.057.39.075.568.445.374.794-.086.155-.22.268-.347.387-.806.56-1.713.971-2.439 1.65-.088.082-.19.155-.246.268-.569.581-.823 1.28-.783 2.089.068 1.41 1.08 2.276 2.378 2.492 1.285.214 2.478-.046 3.554-.791.012-.008.025-.017.039-.028.137-.095.275-.192.389-.314.001 0 .001 0 .001-.001.026-.025.109-.096.136-.116.001-.001.003-.002.004-.003 0-.001.001-.001.002-.001.092-.054.165-.136.236-.214.004-.005.007-.008.01-.011.075-.081.056-.172.002-.256-.24-.371-.481-.741-.721-1.111-.1-.155-.206-.109-.321-.017-.494.402-1.036.722-1.648.91-.136.041-.279.068-.421.087-.382.05-.567-.08-.657-.449.02-.214.136-.371.301-.499.33-.257.707-.435 1.071-.634.429-.234.856-.471 1.236-.779.551-.444.99-.973 1.19-1.668.047-.165.068-.338.101-.507.161-1.119-.259-2.178-1.315-2.815m8.7187 1.7608c-.277-1.178-1.419-2.162-2.663-2.274-1.039-.094-2.013.084-2.847.766-.058.047-.172.163-.264.264-.077.084-.138.157-.141.173-.432.517-.648 1.127-.731 1.783-.117.934-.037 1.85.414 2.696.54 1.014 1.428 1.504 2.543 1.63.496.055.99.047 1.476-.071.895-.217 1.578-.709 1.99-1.547.161-.219.233-.476.31-.728.042-.136-.006-.229-.152-.266-.512-.127-1.025-.255-1.536-.384-.17-.042-.237.06-.303.19-.257.502-.685.726-1.235.695-.506-.028-.825-.333-1.008-.784-.144-.351-.155-.719-.083-1.089.001-.006.002-.012.004-.018.031-.112.186-.538.312-.696.004-.005.009-.011.014-.016.61-.687 1.451-.469 1.956.245.219.31.209.316.59.213.371-.1.743-.195 1.111-.299.356-.1.371-.137.243-.483m7.7254-2.3971c-.606-.012-1.211-.021-1.816-.042-.211-.007-.33.053-.301.285.002.025.002.052-.003.077-.016.087.014.204-.089.246-.095.037-.158-.055-.225-.108-.724-.57-1.544-.601-2.398-.419-.634.134-1.171.434-1.571.954-.033.044-.057.094-.086.142-.305.433-.435.932-.491 1.446-.107.986.012 1.967.104 2.947.045.479.112.956.167 1.434.017.144.1.209.236.211.734.009 1.469.021 2.203.022.278 0 .193-.198.171-.355-.133-.907-.262-1.815-.307-2.732-.018-.332-.015-.666-.024-.998v-.001c0-.062.08-.444.182-.579l.013-.015c.309-.341.744-.448 1.191-.285.418.151.703.526.713.968.021 1.099-.033 2.195-.104 3.291-.017.245-.03.491-.047.737-.01.142.062.215.197.219.723.015 1.447.028 2.17.04.113.002.17-.064.179-.17.007-.097.005-.194.007-.292.022-.605.044-1.21.068-1.814.06-1.626.123-3.25.182-4.876.011-.29-.031-.327-.321-.333m21.4708.3165c-.022-.128-.095-.191-.226-.174-.723.088-1.447.169-2.168.271-.253.036-.15.226-.111.374.164.792.345 1.581.424 2.387.035.357.069.714.024 1.073-.029.224-.088.431-.233.607-.429.274-.799.142-.958-.347-.152-.466-.149-.953-.162-1.433-.025-.935-.007-1.87.064-2.803.011-.161-.053-.227-.211-.223-.689.015-1.377.027-2.064.039-.188.003-.262.094-.228.277.034 1.159.038 2.318.023 3.478-.002.21-.031.418-.085.621-.157.602-.537.718-.99.303-.121-.53-.079-1.071-.095-1.607-.026-.893-.043-1.786-.057-2.679-.003-.181-.073-.263-.255-.265-.657-.009-1.314-.024-1.971-.032-.221-.003-.268.064-.244.332-.004.235-.008.469-.011.703.019.169.019.337 0 .507v.202c.002.882.006 1.764.005 2.646 0 .148.024.297-.022.442-.022.611-.038 1.221-.066 1.832-.01.21.064.298.279.3.574.004 1.149.018 1.724.037.184.007.281-.056.289-.247.005-.112.024-.225.045-.335.037-.192.134-.167.24-.056.247.26.536.451.89.518.621.116 1.164-.015 1.567-.537.109-.14.201-.138.326-.018.593.565 1.295.757 2.106.646.344-.047.683-.085 1.003-.227.549-.242.901-.667 1.121-1.214.046-.116.118-.225.117-.357.153-.353.182-.733.213-1.108.106-1.327-.078-2.631-.303-3.933m-10.3733 2.4569c-.042-.79-.169-1.571-.289-2.352-.035-.226-.129-.308-.357-.276-.671.091-1.344.168-2.015.255-.215.027-.15.448-.136.512.213.986.434 1.971.445 2.986.001.206-.014.409-.071.607-.055.192-.148.359-.334.455-.448.093-.687-.05-.819-.493-.096-.323-.124-.657-.132-.99-.023-1.057-.043-2.115.05-3.171.017-.183-.042-.265-.237-.26-.677.019-1.355.028-2.033.043-.12.002-.247.01-.226.188.008.61.023 1.219.024 1.828.002.711.046 1.425-.049 2.133-.016.12-.05.239-.088.353-.134.399-.4.511-.776.333-.194-.163-.24-.38-.245-.619-.022-1.257-.048-2.513-.074-3.77-.005-.272-.051-.316-.328-.321-.585-.01-1.17-.02-1.754-.029-.412-.007-.406.605-.406.683-.003 1.7.019 3.399-.037 5.098-.01.297-.019.595-.041.892-.014.195.054.286.257.288.579.008 1.16.018 1.74.039.206.008.286-.087.3-.276.008-.097.019-.193.033-.29.009-.061.018-.13.084-.152.07-.024.115.033.157.076.241.257.525.451.875.513.623.111 1.184.009 1.592-.534.088-.116.179-.152.293-.039.786.78 1.736.822 2.736.584 1.078-.256 1.622-1.175 1.755-2.201.02-.156.045-.311.068-.467.089-.54.067-1.084.038-1.626"/>
    <path fill="#fff" d="M122.6267 172.8758c-.438 1.613-.868 3.228-1.298 4.842-.024.091-.062.121-.156.121-.868-.004-1.735-.004-2.603 0-.098 0-.143-.027-.172-.124-.098-.333-.209-.663-.309-.995-.025-.086-.061-.121-.158-.12-.379.005-.758-.003-1.136-.004-.069 0-.115-.003-.125-.091-.024-.219-.058-.435-.091-.652-.161-1.099-.323-2.198-.485-3.298-.118-.779-.226-1.559-.356-2.336-.029-.179.021-.209.177-.198.366.026.728.02 1.041-.217.029-.023.076-.028.115-.028.365-.002.729.001 1.093-.003.098-.001.132.035.144.131.041.341.095.68.14 1.019.071.528.139 1.054.209 1.582.109.768.218 1.536.329 2.304.007.053.002.133.063.139.066.009.074-.072.089-.123.22-.75.439-1.498.658-2.247.011-.05.019-.1.033-.149.29-.987.588-1.971.865-2.962.06-.212.136-.302.367-.282.145.012.179.049.175.183-.009.273-.001.545-.002.817-.002.821-.003 1.642-.006 2.463-.014.098.051.091.115.09.39 0 .781.003 1.171-.002.111-.001.149.009.113.14m9.434 6.831c-.382.037-.767.064-1.148.108-.11.012-.15-.013-.184-.116-.242-.738-.495-1.473-.735-2.212-.03-.097-.07-.115-.159-.115-.523.003-1.047-.002-1.569.005-.109.001-.165-.036-.215-.126-.862-1.588-1.727-3.174-2.591-4.76-.033-.051-.07-.099-.099-.152-.52-.951-1.038-1.904-1.556-2.857-.035-.063-.069-.139-.154-.128-.076.009-.094.084-.114.149-.103.337-.204.678-.285 1.018-.149.628-.338 1.245-.482 1.873-.025.111-.076.147-.188.145-.324-.007-.647-.009-.97.001-.14.004-.183-.037-.181-.18.009-.981.012-1.962.013-2.943.001-.436-.002-.439-.439-.439-.115 0-.156-.017-.118-.146.238-.795.468-1.592.703-2.387.002-.008.008-.027.016-.052.026-.08.074-.223.1-.29.001-.001.001-.002.001-.003.005-.012.009-.022.012-.027.001-.001.002-.003.003-.004 0-.001 0-.001.001-.001.066-.171.167-.316.358-.387.209-.077.471-.066.691-.091.435-.049 1.073-.184 1.352.197.016.013.121.142.147.179.001.002.003.004.004.006.339.589.684 1.176 1.026 1.764.461.794.92 1.588 1.38 2.382.312.539.626 1.077.937 1.617.126.219.244.442.366.664.216.37.432.74.65 1.109.022.037.046.096.098.081.053-.014.042-.078.04-.119-.018-.246-.04-.491-.061-.737-.068-.796-.135-1.593-.205-2.389-.008-.086.028-.107.105-.107.318.003.637.002.955.001.06 0 .111.002.111.086-.001.784 0 1.569 0 2.354.005.19-.025.388.021.567.164.647.358 1.287.533 1.932.026.094.065.118.157.117.478-.005.955.006 1.433-.007.157-.004.195.047.205.194.039.544.093 1.086.141 1.629.066.746.135 1.491.196 2.237.018.224-.083.338-.302.36m-10.849-1.558c-.221.799-.435 1.599-.653 2.399-.061.224-.214.339-.444.359-.143.012-.285.03-.427.045-.659.066-1.317.134-1.976.199-.212.021-.355-.081-.387-.288-.2-1.312-.392-2.626-.589-3.938-.017-.107.02-.128.118-.126.308.005.616.006.924 0 .092-.002.134.022.161.115.096.32.208.636.301.956.035.121.08.171.217.167.431-.011.863-.004 1.294-.004.457 0 .914.003 1.372-.002.102-.001.116.019.089.118m0 0c-.221.799-.435 1.599-.653 2.399-.061.224-.214.339-.444.359-.143.012-.285.03-.427.045-.659.066-1.317.134-1.976.199-.212.021-.355-.081-.387-.288-.2-1.312-.392-2.626-.589-3.938-.017-.107.02-.128.118-.126.308.005.616.006.924 0 .092-.002.134.022.161.115.096.32.208.636.301.956.035.121.08.171.217.167.431-.011.863-.004 1.294-.004.457 0 .914.003 1.372-.002.102-.001.116.019.089.118m-3.265-10.071c-.773.089-1.545.179-2.316.28-.143.02-.171-.035-.187-.151-.087-.602-.177-1.203-.267-1.805-.027-.185.072-.328.259-.346.662-.065 1.324-.128 1.987-.182.181-.015.313.088.342.267.095.605.177 1.214.269 1.849.025.051-.001.079-.087.088m13.948 7.005c-.456-.003-.912.002-1.368.007-.09.001-.121-.032-.141-.118-.058-.237-.137-.469-.193-.706-.131-.553-.382-1.084-.309-1.673-.006-.051-.018-.101-.018-.151 0-.75-.003-1.499.005-2.249.001-.14-.043-.173-.174-.168-.339.008-.679-.01-1.016.009-.19.011-.221-.076-.23-.228-.019-.325-.046-.65-.073-.975-.055-.664-.109-1.327-.171-1.99l-.142-1.531s-.047-.249.227-.327c.276-.078 2.467-.275 2.467-.275s.296-.032.357.306c.064.338.137 2.014.137 2.014.019.254.051.508.074.763.06.673.117 1.347.178 2.019.037.401.08.802.116 1.203.043.463.081.925.121 1.388.076.856.153 1.713.23 2.57.006.06.026.113-.077.112m-13.771-5.515c-.324-.005-.647.003-.971-.006-.139-.004-.268.017-.378.098-.184.135-.388.166-.609.154-.117-.006-.236.004-.352.016-.101.011-.139-.032-.152-.124-.03-.231-.065-.461-.097-.692-.018-.136-.093-.314-.034-.398.068-.099.263-.06.403-.076.015-.002.03-.009.045-.01.655-.078 1.31-.155 1.995-.236.08-.021.106.028.12.133.04.335.094.668.147 1.002.015.1-.012.14-.117.139m12.316 10.289c-.194.011-.387.032-.582.047-.201.015-.375-.059-.472-.23-.388-.689-.762-1.386-1.154-2.103.513 0 1.001.001 1.487-.001.077 0 .103.029.127.099.226.688.457 1.375.689 2.06.035.102-.002.123-.095.128m-15.1571 1.6522c-.281-.058-.561-.116-.842-.171-.323-.063-.323-.062-.323-.395-.001-.245.059-.503-.216-.667-.076-.046-.018-.166-.031-.25-.018-.113.059-.254-.047-.336-.196-.152-.219-.346-.208-.57.014-.282-.012-.566.009-.847.018-.243-.048-.414-.257-.551-.112-.074-.205-.132-.344-.123-.205.01-.411-.003-.617.004-.098.003-.132-.029-.144-.127-.003-.029-.007-.059-.011-.089-.055-.473-.114-.945-.178-1.417-.111-.812-.226-1.622-.339-2.433-.009-.027-.023-.053-.028-.08 0-.001-.001-.002-.001-.004-.101-.742-.201-1.483-.302-2.224-.011-.077.013-.182-.105-.191-.093-.008-.108.088-.141.147-.335.597-.669 1.195-.997 1.796-.064.117-.105.128-.209.038-.366-.32-.741-.631-1.115-.941-.059-.049-.102-.094-.079-.178.244-.865.256-1.751.241-2.64-.002-.079.015-.148.056-.217.254-.422.504-.846.753-1.271.042-.072.089-.082.163-.053.553.206 1.105.41 1.658.613.067.024.101.058.1.133-.003.168 0 .337.001.506.001.322.437.768.763.732.404-.043.728.068.999.36.045.049.102.087.157.123.075.049.106.119.121.204.098.59.198 1.179.302 1.768.017.095 0 .13-.102.127-.215-.006-.432.007-.647-.005-.131-.006-.161.039-.163.164-.007.375.042.748-.001 1.122.002.241.008.483.003.724-.003.096.018.175.099.225.247.148.201.381.164.599-.023.132.003.181.137.179.302-.003.606.002.909-.003.088-.001.129.01.147.116.009.056.018.112.028.168.007.041.014.085.022.131.011.069.024.144.037.222.009.054.018.108.027.163.007.039.014.078.02.118.003.018.006.038.009.057.132.782.268 1.564.401 2.347.126.74.249 1.481.373 2.221.007.043.015.086.021.129.004.02.007.04.01.059l.018.105c.005.031.01.062.015.092.044.267-.045.347-.316.291m-5.361-8.101l-.163.254c-.19.341-.38.681-.57 1.022-.621 1.107-1.253 2.209-1.856 3.326-.15.279-.312.428-.632.362-.085-.018-.199.044-.25-.065-.094-.205-.258-.224-.452-.21-.159.012-.319-.004-.478.005-.099.007-.118-.03-.116-.12.005-.339.001-.677.005-1.015.001-.098-.025-.135-.131-.132-.241.009-.482-.003-.723.006-.136.004-.125-.032-.067-.129.383-.635.763-1.272 1.139-1.912.054-.093.12-.138.225-.155.943-.154 1.742-.554 2.307-1.353.178-.303.377-.596.469-.94.033-.121.071-.134.17-.049.342.292.686.582 1.039.86.11.087.141.161.084.245m3.576-3.613c-.247-.281-.564-.345-.916-.301-.12.015-.208-.042-.311-.096-.305-.159-.389-.403-.342-.722.015-.106-.002-.216.005-.324.008-.11-.035-.16-.14-.198-.569-.204-1.133-.42-1.701-.627-.086-.032-.1-.057-.049-.137.148-.239.286-.486.434-.726l.02-.041.032-.062v-.001l.403-.798s.11-.26.343-.208c.234.052 1.532.318 1.532.318s.238-.007.285.403c.041.359.06.55.064.591.001.006.001.01.001.01.056.311.108.623.162.937.121.695.24 1.39.368 2.131-.087-.068-.148-.101-.19-.149m-6.538 8.866c-.17.297-.33.6-.507.894-.098.162-.26.238-.449.2-.873-.177-1.744-.36-2.615-.543-.231-.049-.281-.17-.158-.377.278-.472.574-.934.832-1.417.157-.295.33-.486.625-.38.187 0 .31.002.434-.001.051-.001.087.004.086.072-.005.298.009.596-.013.892-.019.235.014.299.245.299.216 0 .432.001.648 0 .069-.001.132.005.166.079.075.16.201.21.373.185.091-.014.185.002.277-.004.099-.006.099.026.056.101m6.972 2.046c-.01.144-.007.289-.001.432.003.079-.021.094-.095.078-.235-.052-.472-.095-.708-.146-.284-.061-.396-.193-.434-.478-.106-.792-.213-1.584-.328-2.375-.063-.43-.071-.429.362-.428h.293c.192.002.409.217.41.405 0 .421.001.842.001 1.263 0 .057-.01.114.046.153.191.135.23.327.199.542-.021.146.022.257.152.335.081.048.109.121.103.219m.527-5.628c-.226-.003-.452-.006-.677.003-.11.005-.133-.031-.135-.136-.004-.142.075-.323-.064-.418-.209-.141-.222-.327-.209-.542.009-.159.003-.319.003-.477v-.154c-.003-.261-.004-.522-.01-.782-.002-.081.041-.092.105-.091.185.002.369.002.553.001.054 0 .105.002.116.071.053.348.106.695.159 1.043.082.462.162.926.245 1.389.015.078-.012.095-.086.093"/>
    <path fill="#fef6c6" d="M132.0248 112.6395h-82.465c-.78 0-1.418.638-1.418 1.417v44.568c0 .779.638 1.417 1.418 1.417h82.465c.78 0 1.417-.638 1.417-1.417v-44.568c0-.779-.637-1.417-1.417-1.417"/>
    <path fill="#b43b2b" d="M160.0988 154.7744h-17.271c-.78 0-1.418.638-1.418 1.417v2.433c0 .779.638 1.417 1.418 1.417h17.271c.78 0 1.417-.638 1.417-1.417v-2.433c0-.779-.637-1.417-1.417-1.417m0-6.7907h-17.271c-.78 0-1.418.638-1.418 1.417v2.433c0 .779.638 1.417 1.418 1.417h17.271c.78 0 1.417-.638 1.417-1.417v-2.433c0-.779-.637-1.417-1.417-1.417m0-9.3825h-17.271c-.78 0-1.418.638-1.418 1.417v2.433c0 .779.638 1.417 1.418 1.417h17.271c.78 0 1.417-.638 1.417-1.417v-2.433c0-.779-.637-1.417-1.417-1.417m0-6.251h-17.271c-.78 0-1.418.638-1.418 1.417v2.433c0 .779.638 1.417 1.418 1.417h17.271c.78 0 1.417-.638 1.417-1.417v-2.433c0-.779-.637-1.417-1.417-1.417m0-6.4105h-17.271c-.78 0-1.418.638-1.418 1.417v2.433c0 .779.638 1.417 1.418 1.417h17.271c.78 0 1.417-.638 1.417-1.417v-2.433c0-.779-.637-1.417-1.417-1.417m0-9.0292h-17.271c-.78 0-1.418.638-1.418 1.417v2.433c0 .779.638 1.417 1.418 1.417h17.271c.78 0 1.417-.638 1.417-1.417v-2.433c0-.779-.637-1.417-1.417-1.417"/>
    <path fill="#f1ece8" d="M97.05 154.753H50.722v2.633H97.05v-2.633zm0-4.157H50.722v2.633H97.05v-2.633z"/>
    <path fill="#57a734" d="M130.8616 146.646l-79.024.021v2.633l79.024-.021v-2.633z"/>
    <path fill="#f1ece8" d="M97.05 142.531H50.722v2.633H97.05v-2.633zm0-3.951H50.722v2.633H97.05v-2.633z"/>
  </g>
</svg>
