<svg xmlns="http://www.w3.org/2000/svg" width="400" height="408.91547">
  <defs>
    <clipPath id="a">
      <path d="M0 403.24h394.448V0H0v403.24z"/>
    </clipPath>
  </defs>
  <g clip-path="url(#a)" transform="matrix(1.0140754,0,0,-1.0140754,0,408.91546)">
    <path fill="#3a3742" fill-rule="evenodd" d="M8.391 0C.864 0 0 4.572 0 8.624v390.587c0 4.141 3.357 4.028 12.442 4.028h369.564c9.085 0 12.442.113 12.442-4.028V8.624c0-4.052-.864-8.624-8.391-8.624H8.391z"/>
    <path fill="#181221" fill-rule="evenodd" d="M0 160.4541c0 15.891 3.253 19.809 11.835 19.809H382.8c8.582 0 11.648-3.918 11.648-19.809 0 0-394.448-.073-394.448 0"/>
    <path fill="#2a2733" fill-rule="evenodd" d="M.187 346.9384v52.273c0 4.14 3.357 4.028 12.442 4.028h369.377c9.085 0 12.442.112 12.442-4.028v-52.273H.187z"/>
    <path fill="#3f3e4a" fill-rule="evenodd" d="M379.1743 7.6283c3.615 0 6.546 2.931 6.546 6.546v139.754c0 3.616-2.931 6.547-6.546 6.547H15.4603c-3.615 0-6.546-2.931-6.546-6.547V14.1743c0-3.615 2.931-6.546 6.546-6.546h363.714z"/>
    <path fill="none" stroke="#0e0e10" stroke-width="1.278" stroke-miterlimit="10" d="M379.1743 7.6283c3.615 0 6.546 2.931 6.546 6.546v139.754c0 3.616-2.931 6.547-6.546 6.547H15.4603c-3.615 0-6.546-2.931-6.546-6.547V14.1743c0-3.615 2.931-6.546 6.546-6.546h363.714z"/>
    <path fill="#afacb3" fill-rule="evenodd" d="M50.8259 78.6681h21.571c1.24 0 2.245-1.005 2.245-2.245v-15.426c0-1.24-1.005-2.245-2.245-2.245h-21.571c-1.24 0-2.244 1.005-2.244 2.245v15.426c0 1.24 1.004 2.245 2.244 2.245m33.2919.0011h21.574c1.239 0 2.244-1.005 2.244-2.244v-15.431c0-1.24-1.005-2.245-2.244-2.245h-21.574c-1.24 0-2.244 1.005-2.244 2.245v15.431c0 1.239 1.004 2.244 2.244 2.244m33.293 0h21.574c1.239 0 2.244-1.005 2.244-2.244v-15.431c0-1.24-1.005-2.245-2.244-2.245h-21.574c-1.24 0-2.245 1.005-2.245 2.245v15.431c0 1.239 1.005 2.244 2.245 2.244m33.2931 0h21.574c1.239 0 2.244-1.005 2.244-2.244v-15.431c0-1.24-1.005-2.245-2.244-2.245h-21.574c-1.24 0-2.244 1.005-2.244 2.245v15.431c0 1.239 1.004 2.244 2.244 2.244m33.293 0h21.574c1.239 0 2.244-1.005 2.244-2.244v-15.431c0-1.24-1.005-2.245-2.244-2.245h-21.574c-1.24 0-2.244 1.005-2.244 2.245v15.431c0 1.239 1.004 2.244 2.244 2.244m33.2931 0h21.574c1.239 0 2.244-1.005 2.244-2.244v-15.431c0-1.24-1.005-2.245-2.244-2.245H217.29c-1.24 0-2.244 1.005-2.244 2.245v15.431c0 1.239 1.004 2.244 2.244 2.244m33.293 0h21.574c1.239 0 2.244-1.005 2.244-2.244v-15.431c0-1.24-1.005-2.245-2.244-2.245h-21.574c-1.24 0-2.245 1.005-2.245 2.245v15.431c0 1.239 1.005 2.244 2.245 2.244m33.2931 0h21.574c1.239 0 2.244-1.005 2.244-2.244v-15.431c0-1.24-1.005-2.245-2.244-2.245h-21.574c-1.24 0-2.244 1.005-2.244 2.245v15.431c0 1.239 1.004 2.244 2.244 2.244m33.293 0h21.574c1.239 0 2.244-1.005 2.244-2.244v-15.431c0-1.24-1.005-2.245-2.244-2.245h-21.574c-1.24 0-2.244 1.005-2.244 2.245v15.431c0 1.239 1.004 2.244 2.244 2.244m33.2931 0h21.574c1.239 0 2.244-1.005 2.244-2.244v-15.431c0-1.24-1.005-2.245-2.244-2.245h-21.574c-1.24 0-2.244 1.005-2.244 2.245v15.431c0 1.239 1.004 2.244 2.244 2.244M35.1904 46.773h21.574c1.239 0 2.244-1.005 2.244-2.244V29.098c0-1.24-1.005-2.245-2.244-2.245h-21.574c-1.24 0-2.245 1.005-2.245 2.245v15.431c0 1.239 1.005 2.244 2.245 2.244m33.2932 0h21.574c1.239 0 2.244-1.005 2.244-2.244V29.098c0-1.24-1.005-2.245-2.244-2.245h-21.574c-1.24 0-2.245 1.005-2.245 2.245v15.431c0 1.239 1.005 2.244 2.245 2.244m33.293 0h21.574c1.239 0 2.244-1.005 2.244-2.244V29.098c0-1.24-1.005-2.245-2.244-2.245h-21.574c-1.24 0-2.244 1.005-2.244 2.245v15.431c0 1.239 1.004 2.244 2.244 2.244m33.2931 0h21.574c1.239 0 2.244-1.005 2.244-2.244V29.098c0-1.24-1.005-2.245-2.244-2.245h-21.574c-1.24 0-2.244 1.005-2.244 2.245v15.431c0 1.239 1.004 2.244 2.244 2.244m33.2931 0h21.574c1.239 0 2.244-1.005 2.244-2.244V29.098c0-1.24-1.005-2.245-2.244-2.245h-21.574c-1.24 0-2.244 1.005-2.244 2.245v15.431c0 1.239 1.004 2.244 2.244 2.244m33.2931 0h21.574c1.239 0 2.244-1.005 2.244-2.244V29.098c0-1.24-1.005-2.245-2.244-2.245h-21.574c-1.24 0-2.244 1.005-2.244 2.245v15.431c0 1.239 1.004 2.244 2.244 2.244m33.2932 0h21.574c1.239 0 2.244-1.005 2.244-2.244V29.098c0-1.24-1.005-2.245-2.244-2.245h-21.574c-1.24 0-2.244 1.005-2.244 2.245v15.431c0 1.239 1.004 2.244 2.244 2.244m33.2931 0h21.574c1.239 0 2.244-1.005 2.244-2.244V29.098c0-1.24-1.005-2.245-2.244-2.245h-21.574c-1.24 0-2.245 1.005-2.245 2.245v15.431c0 1.239 1.005 2.244 2.245 2.244m33.2931 0h21.574c1.239 0 2.244-1.005 2.244-2.244V29.098c0-1.24-1.005-2.245-2.244-2.245h-21.574c-1.24 0-2.245 1.005-2.245 2.245v15.431c0 1.239 1.005 2.244 2.245 2.244m33.293 0h21.574c1.239 0 2.244-1.005 2.244-2.244V29.098c0-1.24-1.005-2.245-2.244-2.245h-21.574c-1.24 0-2.244 1.005-2.244 2.245v15.431c0 1.239 1.004 2.244 2.244 2.244M42.8315 111.0212h21.574c1.239 0 2.244-1.005 2.244-2.244v-15.431c0-1.24-1.005-2.245-2.244-2.245h-21.574c-1.24 0-2.245 1.005-2.245 2.245v15.431c0 1.239 1.005 2.244 2.245 2.244m33.2931 0h21.574c1.239 0 2.244-1.005 2.244-2.244v-15.431c0-1.24-1.005-2.245-2.244-2.245h-21.574c-1.24 0-2.245 1.005-2.245 2.245v15.431c0 1.239 1.005 2.244 2.245 2.244m33.2931 0h21.574c1.239 0 2.244-1.005 2.244-2.244v-15.431c0-1.24-1.005-2.245-2.244-2.245h-21.574c-1.24 0-2.244 1.005-2.244 2.245v15.431c0 1.239 1.004 2.244 2.244 2.244m33.2931 0h21.574c1.239 0 2.244-1.005 2.244-2.244v-15.431c0-1.24-1.005-2.245-2.244-2.245h-21.574c-1.24 0-2.244 1.005-2.244 2.245v15.431c0 1.239 1.004 2.244 2.244 2.244m33.2931 0h21.574c1.239 0 2.244-1.005 2.244-2.244v-15.431c0-1.24-1.005-2.245-2.244-2.245h-21.574c-1.24 0-2.244 1.005-2.244 2.245v15.431c0 1.239 1.004 2.244 2.244 2.244m33.2931 0h21.574c1.239 0 2.244-1.005 2.244-2.244v-15.431c0-1.24-1.005-2.245-2.244-2.245h-21.574c-1.24 0-2.244 1.005-2.244 2.245v15.431c0 1.239 1.004 2.244 2.244 2.244m33.2931 0h21.574c1.239 0 2.244-1.005 2.244-2.244v-15.431c0-1.24-1.005-2.245-2.244-2.245h-21.574c-1.24 0-2.244 1.005-2.244 2.245v15.431c0 1.239 1.004 2.244 2.244 2.244m33.2931 0h21.574c1.239 0 2.244-1.005 2.244-2.244v-15.431c0-1.24-1.005-2.245-2.244-2.245h-21.574c-1.24 0-2.244 1.005-2.244 2.245v15.431c0 1.239 1.004 2.244 2.244 2.244m33.2931 0h21.574c1.239 0 2.244-1.005 2.244-2.244v-15.431c0-1.24-1.005-2.245-2.244-2.245h-21.574c-1.24 0-2.245 1.005-2.245 2.245v15.431c0 1.239 1.005 2.244 2.245 2.244m33.2931 0h21.574c1.239 0 2.244-1.005 2.244-2.244v-15.431c0-1.24-1.005-2.245-2.244-2.245h-21.574c-1.24 0-2.244 1.005-2.244 2.245v15.431c0 1.239 1.004 2.244 2.244 2.244M25.4821 142.9525h21.574c1.239 0 2.244-1.005 2.244-2.245v-15.43c0-1.24-1.005-2.245-2.244-2.245h-21.574c-1.24 0-2.245 1.005-2.245 2.245v15.43c0 1.24 1.005 2.245 2.245 2.245m33.293 0h21.574c1.239 0 2.244-1.005 2.244-2.245v-15.43c0-1.24-1.005-2.245-2.244-2.245h-21.574c-1.24 0-2.244 1.005-2.244 2.245v15.43c0 1.24 1.004 2.245 2.244 2.245m33.2931 0h21.574c1.239 0 2.244-1.005 2.244-2.245v-15.43c0-1.24-1.005-2.245-2.244-2.245h-21.574c-1.24 0-2.244 1.005-2.244 2.245v15.43c0 1.24 1.004 2.245 2.244 2.245m33.2931 0h21.574c1.239 0 2.244-1.005 2.244-2.245v-15.43c0-1.24-1.005-2.245-2.244-2.245h-21.574c-1.24 0-2.244 1.005-2.244 2.245v15.43c0 1.24 1.004 2.245 2.244 2.245m33.2931 0h21.574c1.239 0 2.244-1.005 2.244-2.245v-15.43c0-1.24-1.005-2.245-2.244-2.245h-21.574c-1.24 0-2.244 1.005-2.244 2.245v15.43c0 1.24 1.004 2.245 2.244 2.245m33.2932 0h21.574c1.239 0 2.244-1.005 2.244-2.245v-15.43c0-1.24-1.005-2.245-2.244-2.245h-21.574c-1.24 0-2.244 1.005-2.244 2.245v15.43c0 1.24 1.004 2.245 2.244 2.245m33.2931 0h21.574c1.239 0 2.244-1.005 2.244-2.245v-15.43c0-1.24-1.005-2.245-2.244-2.245h-21.574c-1.24 0-2.245 1.005-2.245 2.245v15.43c0 1.24 1.005 2.245 2.245 2.245m33.2931 0h21.574c1.239 0 2.244-1.005 2.244-2.245v-15.43c0-1.24-1.005-2.245-2.244-2.245h-21.574c-1.24 0-2.245 1.005-2.245 2.245v15.43c0 1.24 1.005 2.245 2.245 2.245m33.293 0h21.574c1.239 0 2.244-1.005 2.244-2.245v-15.43c0-1.24-1.005-2.245-2.244-2.245h-21.574c-1.24 0-2.244 1.005-2.244 2.245v15.43c0 1.24 1.004 2.245 2.244 2.245m33.2931 0h21.574c1.239 0 2.244-1.005 2.244-2.245v-15.43c0-1.24-1.005-2.245-2.244-2.245h-21.574c-1.24 0-2.244 1.005-2.244 2.245v15.43c0 1.24 1.004 2.245 2.244 2.245"/>
    <path fill="#f05953" d="M20.0218 196.1421h15.094v3.595h-6.107c-.377 0-.8-.009-1.268-.025-.467-.016-.915-.033-1.342-.049-.492-.033-.985-.058-1.477-.074v.074l1.207 1.207c.344.344.705.722 1.083 1.132.377.41.722.804 1.034 1.182l6.525 7.978v3.3h-14.084v-3.546h5.269c.361 0 .763.004 1.207.012.443.008.862.021 1.255.037.46.016.928.041 1.404.074v-.074c-.378-.361-.747-.73-1.108-1.108-.312-.328-.64-.677-.985-1.046-.345-.37-.657-.719-.936-1.047l-6.771-8.224v-3.398zm16.4233 0h4.777l1.896 3.226c.213.36.431.759.652 1.194.222.435.423.841.604 1.219.213.443.418.886.615 1.329h.049l.591-1.329c.181-.378.374-.784.579-1.219.205-.435.414-.834.628-1.194l1.847-3.226h4.974l-6.107 9.603 5.54 8.717h-4.58l-1.502-2.487c-.213-.362-.431-.751-.652-1.17-.222-.419-.423-.817-.603-1.194-.214-.427-.419-.87-.616-1.33h-.049c-.214.46-.419.903-.616 1.33-.181.377-.378.775-.591 1.194-.213.419-.427.808-.64 1.17l-1.477 2.487h-4.802l5.639-8.742-6.156-9.578zm23.2565 3.2995c-.566.476-.85 1.124-.85 1.945 0 .854.288 1.527.862 2.019.575.493 1.355.739 2.34.739.984 0 1.756-.246 2.314-.739.558-.492.837-1.165.837-2.019 0-.804-.287-1.449-.862-1.933-.574-.484-1.338-.726-2.289-.726-1.002 0-1.786.238-2.352.714m.32 7.941c-.468.402-.702.94-.702 1.613 0 .689.234 1.239.702 1.65.468.41 1.129.615 1.982.615.87 0 1.535-.205 1.995-.615.459-.411.689-.961.689-1.65 0-.673-.23-1.211-.689-1.613-.46-.402-1.125-.603-1.995-.603-.853 0-1.514.201-1.982.603m4.925-11.29c.878.246 1.637.604 2.277 1.071.641.468 1.141 1.047 1.502 1.736.361.69.542 1.469.542 2.34 0 1.034-.292 1.945-.874 2.733-.583.788-1.457 1.345-2.622 1.674v.074c.919.328 1.6.804 2.043 1.428.444.624.665 1.33.665 2.118 0 .738-.152 1.403-.455 1.994-.304.591-.735 1.092-1.293 1.502-.558.41-1.236.726-2.032.948-.796.222-1.686.333-2.671.333-.985 0-1.88-.115-2.684-.345-.805-.23-1.49-.558-2.056-.985-.566-.427-1.002-.94-1.305-1.539-.304-.599-.456-1.26-.456-1.982 0-.821.222-1.539.665-2.155.443-.615 1.133-1.087 2.069-1.416v-.073c-1.133-.345-1.995-.908-2.586-1.687-.591-.78-.886-1.687-.886-2.721 0-.854.18-1.613.541-2.278.361-.664.866-1.231 1.515-1.699.648-.467 1.416-.825 2.302-1.071.886-.246 1.855-.369 2.906-.369 1.05 0 2.014.123 2.893.369m6.5864.0494h4.211v18.32h-4.211v-18.32z"/>
    <path fill="#181221" d="M122.82 393.477h5.755V371.9h-5.755v21.577zm14.383-15.822h14.387v-1.439h-14.387v1.439zm-5.751 10.068v-4.313h20.138v-1.439h-20.138v-10.07h25.893v15.822h-25.893zm28.771 0h5.751v-15.822h-5.751v15.822zm0 5.754h5.751v-4.316h-5.751v4.316zm8.6283-5.7544v-15.822h5.755v11.51h23.015v4.312h-28.77zm-77.6792 0v-15.822h28.77v4.316h-23.015v7.194h23.015v4.312h-28.77zm-31.6481 0v-15.822h5.755v11.51H82.54v-11.51h5.755v15.822H59.524zm-8.632.0004h5.755v-15.822h-5.755v15.822zm0 5.754h5.755v-4.316h-5.755v4.316zm-31.6444-5.7544v-10.067h23.016v-1.439h-23.016v-4.316h28.771v10.071h-23.02v1.439h23.02v4.312h-28.771z"/>
    <path fill="#5b585b" d="M121.262 395.035h5.755v-21.577h-5.755v21.577zm14.383-15.821h14.387v-1.439h-14.387v1.439zm-5.751 10.067v-4.313h20.138v-1.439h-20.138v-10.07h25.893v15.822h-25.893zm28.771 0h5.751v-15.822h-5.751v15.822zm0 5.754h5.751v-4.316h-5.751v4.316zm8.6282-5.7544v-15.822h5.755v11.51h23.015v4.312h-28.77zm-77.6792 0v-15.822h28.77v4.316H95.369v7.194h23.015v4.312h-28.77zm-31.648 0v-15.822h5.755v11.51h17.261v-11.51h5.755v15.822H57.966zm-8.632.0004h5.755v-15.822h-5.755v15.822zm0 5.754h5.755v-4.316h-5.755v4.316zm-31.6445-5.7544v-10.067h23.016v-1.439h-23.016v-4.316h28.771v10.071h-23.02v1.439h23.02v4.312h-28.771z"/>
    <path fill="#2a2733" d="M122.041 394.256h5.755v-21.577h-5.755v21.577zm14.383-15.821h14.387v-1.439h-14.387v1.439zm-5.751 10.067v-4.313h20.138v-1.439h-20.138v-10.07h25.893v15.822h-25.893zm28.771 0h5.751V372.68h-5.751v15.822zm0 5.754h5.751v-4.316h-5.751v4.316zm8.6283-5.7544v-15.822h5.755v11.51h23.015v4.312h-28.77zm-77.6792 0v-15.822h28.77v4.316h-23.015v7.194h23.015v4.312h-28.77zm-31.6481 0v-15.822H64.5v11.51h17.261v-11.51h5.755v15.822H58.745zm-8.632.0004h5.755V372.68h-5.755v15.822zm0 5.754h5.755v-4.316h-5.755v4.316zm-31.6444-5.7544v-10.067h23.016v-1.439h-23.016v-4.316h28.771v10.071h-23.02v1.439h23.02v4.312h-28.771z"/>
  </g>
</svg>
